<?xml version="1.0" encoding="utf-8" standalone="no"?>
<!DOCTYPE svg PUBLIC "-//W3C//DTD SVG 1.1//EN"
  "http://www.w3.org/Graphics/SVG/1.1/DTD/svg11.dtd">
<svg xmlns:xlink="http://www.w3.org/1999/xlink" width="432pt" height="288pt" viewBox="0 0 432 288" xmlns="http://www.w3.org/2000/svg" version="1.1">
 <metadata>
  <rdf:RDF xmlns:dc="http://purl.org/dc/elements/1.1/" xmlns:cc="http://creativecommons.org/ns#" xmlns:rdf="http://www.w3.org/1999/02/22-rdf-syntax-ns#">
   <cc:Work>
    <dc:type rdf:resource="http://purl.org/dc/dcmitype/StillImage"/>
    <dc:format>image/svg+xml</dc:format>
    <dc:creator>
     <cc:Agent>
      <dc:title>Matplotlib v3.8.4, https://matplotlib.org/</dc:title>
     </cc:Agent>
    </dc:creator>
   </cc:Work>
  </rdf:RDF>
 </metadata>
 <defs>
  <style type="text/css">*{stroke-linejoin: round; stroke-linecap: butt}</style>
 </defs>
 <g id="figure_1">
  <g id="patch_1">
   <path d="M 0 288 
L 432 288 
L 432 0 
L 0 0 
z
" style="fill: #212946"/>
  </g>
  <g id="axes_1">
   <g id="patch_2">
    <path d="M 38.31274 259.14351 
L 428.99976 259.14351 
L 428.99976 18.118365 
L 38.31274 18.118365 
z
" style="fill: #212946"/>
   </g>
   <g id="matplotlib.axis_1">
    <g id="xtick_1">
     <g id="line2d_1">
      <path d="M 56.071241 259.14351 
L 56.071241 18.118365 
" clip-path="url(#p299424a925)" style="fill: none; stroke: #2a3459; stroke-width: 0.8; stroke-linecap: round"/>
     </g>
     <g id="line2d_2"/>
     <g id="text_1">
      <!-- Jul -->
      <g style="fill: #e6e6e6" transform="translate(50.038428 270.241947) scale(0.1 -0.1)">
       <defs>
        <path id="DejaVuSans-4a" d="M 628 4666 
L 1259 4666 
L 1259 325 
Q 1259 -519 939 -900 
Q 619 -1281 -91 -1281 
L -331 -1281 
L -331 -750 
L -134 -750 
Q 284 -750 456 -515 
Q 628 -281 628 325 
L 628 4666 
z
" transform="scale(0.015625)"/>
        <path id="DejaVuSans-75" d="M 544 1381 
L 544 3500 
L 1119 3500 
L 1119 1403 
Q 1119 906 1312 657 
Q 1506 409 1894 409 
Q 2359 409 2629 706 
Q 2900 1003 2900 1516 
L 2900 3500 
L 3475 3500 
L 3475 0 
L 2900 0 
L 2900 538 
Q 2691 219 2414 64 
Q 2138 -91 1772 -91 
Q 1169 -91 856 284 
Q 544 659 544 1381 
z
M 1991 3584 
L 1991 3584 
z
" transform="scale(0.015625)"/>
        <path id="DejaVuSans-6c" d="M 603 4863 
L 1178 4863 
L 1178 0 
L 603 0 
L 603 4863 
z
" transform="scale(0.015625)"/>
       </defs>
       <use xlink:href="#DejaVuSans-4a"/>
       <use xlink:href="#DejaVuSans-75" x="29.492188"/>
       <use xlink:href="#DejaVuSans-6c" x="92.871094"/>
      </g>
     </g>
    </g>
    <g id="xtick_2">
     <g id="line2d_3">
      <path d="M 105.060209 259.14351 
L 105.060209 18.118365 
" clip-path="url(#p299424a925)" style="fill: none; stroke: #2a3459; stroke-width: 0.8; stroke-linecap: round"/>
     </g>
     <g id="line2d_4"/>
     <g id="text_2">
      <!-- 05 -->
      <g style="fill: #e6e6e6" transform="translate(98.697709 270.241947) scale(0.1 -0.1)">
       <defs>
        <path id="DejaVuSans-30" d="M 2034 4250 
Q 1547 4250 1301 3770 
Q 1056 3291 1056 2328 
Q 1056 1369 1301 889 
Q 1547 409 2034 409 
Q 2525 409 2770 889 
Q 3016 1369 3016 2328 
Q 3016 3291 2770 3770 
Q 2525 4250 2034 4250 
z
M 2034 4750 
Q 2819 4750 3233 4129 
Q 3647 3509 3647 2328 
Q 3647 1150 3233 529 
Q 2819 -91 2034 -91 
Q 1250 -91 836 529 
Q 422 1150 422 2328 
Q 422 3509 836 4129 
Q 1250 4750 2034 4750 
z
" transform="scale(0.015625)"/>
        <path id="DejaVuSans-35" d="M 691 4666 
L 3169 4666 
L 3169 4134 
L 1269 4134 
L 1269 2991 
Q 1406 3038 1543 3061 
Q 1681 3084 1819 3084 
Q 2600 3084 3056 2656 
Q 3513 2228 3513 1497 
Q 3513 744 3044 326 
Q 2575 -91 1722 -91 
Q 1428 -91 1123 -41 
Q 819 9 494 109 
L 494 744 
Q 775 591 1075 516 
Q 1375 441 1709 441 
Q 2250 441 2565 725 
Q 2881 1009 2881 1497 
Q 2881 1984 2565 2268 
Q 2250 2553 1709 2553 
Q 1456 2553 1204 2497 
Q 953 2441 691 2322 
L 691 4666 
z
" transform="scale(0.015625)"/>
       </defs>
       <use xlink:href="#DejaVuSans-30"/>
       <use xlink:href="#DejaVuSans-35" x="63.623047"/>
      </g>
     </g>
    </g>
    <g id="xtick_3">
     <g id="line2d_5">
      <path d="M 154.049177 259.14351 
L 154.049177 18.118365 
" clip-path="url(#p299424a925)" style="fill: none; stroke: #2a3459; stroke-width: 0.8; stroke-linecap: round"/>
     </g>
     <g id="line2d_6"/>
     <g id="text_3">
      <!-- 09 -->
      <g style="fill: #e6e6e6" transform="translate(147.686677 270.241947) scale(0.1 -0.1)">
       <defs>
        <path id="DejaVuSans-39" d="M 703 97 
L 703 672 
Q 941 559 1184 500 
Q 1428 441 1663 441 
Q 2288 441 2617 861 
Q 2947 1281 2994 2138 
Q 2813 1869 2534 1725 
Q 2256 1581 1919 1581 
Q 1219 1581 811 2004 
Q 403 2428 403 3163 
Q 403 3881 828 4315 
Q 1253 4750 1959 4750 
Q 2769 4750 3195 4129 
Q 3622 3509 3622 2328 
Q 3622 1225 3098 567 
Q 2575 -91 1691 -91 
Q 1453 -91 1209 -44 
Q 966 3 703 97 
z
M 1959 2075 
Q 2384 2075 2632 2365 
Q 2881 2656 2881 3163 
Q 2881 3666 2632 3958 
Q 2384 4250 1959 4250 
Q 1534 4250 1286 3958 
Q 1038 3666 1038 3163 
Q 1038 2656 1286 2365 
Q 1534 2075 1959 2075 
z
" transform="scale(0.015625)"/>
       </defs>
       <use xlink:href="#DejaVuSans-30"/>
       <use xlink:href="#DejaVuSans-39" x="63.623047"/>
      </g>
     </g>
    </g>
    <g id="xtick_4">
     <g id="line2d_7">
      <path d="M 203.038145 259.14351 
L 203.038145 18.118365 
" clip-path="url(#p299424a925)" style="fill: none; stroke: #2a3459; stroke-width: 0.8; stroke-linecap: round"/>
     </g>
     <g id="line2d_8"/>
     <g id="text_4">
      <!-- 13 -->
      <g style="fill: #e6e6e6" transform="translate(196.675645 270.241947) scale(0.1 -0.1)">
       <defs>
        <path id="DejaVuSans-31" d="M 794 531 
L 1825 531 
L 1825 4091 
L 703 3866 
L 703 4441 
L 1819 4666 
L 2450 4666 
L 2450 531 
L 3481 531 
L 3481 0 
L 794 0 
L 794 531 
z
" transform="scale(0.015625)"/>
        <path id="DejaVuSans-33" d="M 2597 2516 
Q 3050 2419 3304 2112 
Q 3559 1806 3559 1356 
Q 3559 666 3084 287 
Q 2609 -91 1734 -91 
Q 1441 -91 1130 -33 
Q 819 25 488 141 
L 488 750 
Q 750 597 1062 519 
Q 1375 441 1716 441 
Q 2309 441 2620 675 
Q 2931 909 2931 1356 
Q 2931 1769 2642 2001 
Q 2353 2234 1838 2234 
L 1294 2234 
L 1294 2753 
L 1863 2753 
Q 2328 2753 2575 2939 
Q 2822 3125 2822 3475 
Q 2822 3834 2567 4026 
Q 2313 4219 1838 4219 
Q 1578 4219 1281 4162 
Q 984 4106 628 3988 
L 628 4550 
Q 988 4650 1302 4700 
Q 1616 4750 1894 4750 
Q 2613 4750 3031 4423 
Q 3450 4097 3450 3541 
Q 3450 3153 3228 2886 
Q 3006 2619 2597 2516 
z
" transform="scale(0.015625)"/>
       </defs>
       <use xlink:href="#DejaVuSans-31"/>
       <use xlink:href="#DejaVuSans-33" x="63.623047"/>
      </g>
     </g>
    </g>
    <g id="xtick_5">
     <g id="line2d_9">
      <path d="M 252.027113 259.14351 
L 252.027113 18.118365 
" clip-path="url(#p299424a925)" style="fill: none; stroke: #2a3459; stroke-width: 0.8; stroke-linecap: round"/>
     </g>
     <g id="line2d_10"/>
     <g id="text_5">
      <!-- 17 -->
      <g style="fill: #e6e6e6" transform="translate(245.664613 270.241947) scale(0.1 -0.1)">
       <defs>
        <path id="DejaVuSans-37" d="M 525 4666 
L 3525 4666 
L 3525 4397 
L 1831 0 
L 1172 0 
L 2766 4134 
L 525 4134 
L 525 4666 
z
" transform="scale(0.015625)"/>
       </defs>
       <use xlink:href="#DejaVuSans-31"/>
       <use xlink:href="#DejaVuSans-37" x="63.623047"/>
      </g>
     </g>
    </g>
    <g id="xtick_6">
     <g id="line2d_11">
      <path d="M 301.016081 259.14351 
L 301.016081 18.118365 
" clip-path="url(#p299424a925)" style="fill: none; stroke: #2a3459; stroke-width: 0.8; stroke-linecap: round"/>
     </g>
     <g id="line2d_12"/>
     <g id="text_6">
      <!-- 21 -->
      <g style="fill: #e6e6e6" transform="translate(294.653581 270.241947) scale(0.1 -0.1)">
       <defs>
        <path id="DejaVuSans-32" d="M 1228 531 
L 3431 531 
L 3431 0 
L 469 0 
L 469 531 
Q 828 903 1448 1529 
Q 2069 2156 2228 2338 
Q 2531 2678 2651 2914 
Q 2772 3150 2772 3378 
Q 2772 3750 2511 3984 
Q 2250 4219 1831 4219 
Q 1534 4219 1204 4116 
Q 875 4013 500 3803 
L 500 4441 
Q 881 4594 1212 4672 
Q 1544 4750 1819 4750 
Q 2544 4750 2975 4387 
Q 3406 4025 3406 3419 
Q 3406 3131 3298 2873 
Q 3191 2616 2906 2266 
Q 2828 2175 2409 1742 
Q 1991 1309 1228 531 
z
" transform="scale(0.015625)"/>
       </defs>
       <use xlink:href="#DejaVuSans-32"/>
       <use xlink:href="#DejaVuSans-31" x="63.623047"/>
      </g>
     </g>
    </g>
    <g id="xtick_7">
     <g id="line2d_13">
      <path d="M 350.005049 259.14351 
L 350.005049 18.118365 
" clip-path="url(#p299424a925)" style="fill: none; stroke: #2a3459; stroke-width: 0.8; stroke-linecap: round"/>
     </g>
     <g id="line2d_14"/>
     <g id="text_7">
      <!-- 25 -->
      <g style="fill: #e6e6e6" transform="translate(343.642549 270.241947) scale(0.1 -0.1)">
       <use xlink:href="#DejaVuSans-32"/>
       <use xlink:href="#DejaVuSans-35" x="63.623047"/>
      </g>
     </g>
    </g>
    <g id="xtick_8">
     <g id="line2d_15">
      <path d="M 398.994017 259.14351 
L 398.994017 18.118365 
" clip-path="url(#p299424a925)" style="fill: none; stroke: #2a3459; stroke-width: 0.8; stroke-linecap: round"/>
     </g>
     <g id="line2d_16"/>
     <g id="text_8">
      <!-- 29 -->
      <g style="fill: #e6e6e6" transform="translate(392.631517 270.241947) scale(0.1 -0.1)">
       <use xlink:href="#DejaVuSans-32"/>
       <use xlink:href="#DejaVuSans-39" x="63.623047"/>
      </g>
     </g>
    </g>
    <g id="text_9">
     <!-- 2024-Jul -->
     <g style="fill: #e6e6e6" transform="translate(387.313823 282.920073) scale(0.1 -0.1)">
      <defs>
       <path id="DejaVuSans-34" d="M 2419 4116 
L 825 1625 
L 2419 1625 
L 2419 4116 
z
M 2253 4666 
L 3047 4666 
L 3047 1625 
L 3713 1625 
L 3713 1100 
L 3047 1100 
L 3047 0 
L 2419 0 
L 2419 1100 
L 313 1100 
L 313 1709 
L 2253 4666 
z
" transform="scale(0.015625)"/>
       <path id="DejaVuSans-2d" d="M 313 2009 
L 1997 2009 
L 1997 1497 
L 313 1497 
L 313 2009 
z
" transform="scale(0.015625)"/>
      </defs>
      <use xlink:href="#DejaVuSans-32"/>
      <use xlink:href="#DejaVuSans-30" x="63.623047"/>
      <use xlink:href="#DejaVuSans-32" x="127.246094"/>
      <use xlink:href="#DejaVuSans-34" x="190.869141"/>
      <use xlink:href="#DejaVuSans-2d" x="254.492188"/>
      <use xlink:href="#DejaVuSans-4a" x="296.201172"/>
      <use xlink:href="#DejaVuSans-75" x="325.693359"/>
      <use xlink:href="#DejaVuSans-6c" x="389.072266"/>
     </g>
    </g>
   </g>
   <g id="matplotlib.axis_2">
    <g id="ytick_1">
     <g id="line2d_17">
      <path d="M 38.31274 248.187822 
L 428.99976 248.187822 
" clip-path="url(#p299424a925)" style="fill: none; stroke: #2a3459; stroke-width: 0.8; stroke-linecap: round"/>
     </g>
     <g id="line2d_18"/>
     <g id="text_10">
      <!-- 0 -->
      <g style="fill: #e6e6e6" transform="translate(28.45024 251.98704) scale(0.1 -0.1)">
       <use xlink:href="#DejaVuSans-30"/>
      </g>
     </g>
    </g>
    <g id="ytick_2">
     <g id="line2d_19">
      <path d="M 38.31274 214.976689 
L 428.99976 214.976689 
" clip-path="url(#p299424a925)" style="fill: none; stroke: #2a3459; stroke-width: 0.8; stroke-linecap: round"/>
     </g>
     <g id="line2d_20"/>
     <g id="text_11">
      <!-- 2500 -->
      <g style="fill: #e6e6e6" transform="translate(9.36274 218.775908) scale(0.1 -0.1)">
       <use xlink:href="#DejaVuSans-32"/>
       <use xlink:href="#DejaVuSans-35" x="63.623047"/>
       <use xlink:href="#DejaVuSans-30" x="127.246094"/>
       <use xlink:href="#DejaVuSans-30" x="190.869141"/>
      </g>
     </g>
    </g>
    <g id="ytick_3">
     <g id="line2d_21">
      <path d="M 38.31274 181.765556 
L 428.99976 181.765556 
" clip-path="url(#p299424a925)" style="fill: none; stroke: #2a3459; stroke-width: 0.8; stroke-linecap: round"/>
     </g>
     <g id="line2d_22"/>
     <g id="text_12">
      <!-- 5000 -->
      <g style="fill: #e6e6e6" transform="translate(9.36274 185.564775) scale(0.1 -0.1)">
       <use xlink:href="#DejaVuSans-35"/>
       <use xlink:href="#DejaVuSans-30" x="63.623047"/>
       <use xlink:href="#DejaVuSans-30" x="127.246094"/>
       <use xlink:href="#DejaVuSans-30" x="190.869141"/>
      </g>
     </g>
    </g>
    <g id="ytick_4">
     <g id="line2d_23">
      <path d="M 38.31274 148.554424 
L 428.99976 148.554424 
" clip-path="url(#p299424a925)" style="fill: none; stroke: #2a3459; stroke-width: 0.8; stroke-linecap: round"/>
     </g>
     <g id="line2d_24"/>
     <g id="text_13">
      <!-- 7500 -->
      <g style="fill: #e6e6e6" transform="translate(9.36274 152.353643) scale(0.1 -0.1)">
       <use xlink:href="#DejaVuSans-37"/>
       <use xlink:href="#DejaVuSans-35" x="63.623047"/>
       <use xlink:href="#DejaVuSans-30" x="127.246094"/>
       <use xlink:href="#DejaVuSans-30" x="190.869141"/>
      </g>
     </g>
    </g>
    <g id="ytick_5">
     <g id="line2d_25">
      <path d="M 38.31274 115.343291 
L 428.99976 115.343291 
" clip-path="url(#p299424a925)" style="fill: none; stroke: #2a3459; stroke-width: 0.8; stroke-linecap: round"/>
     </g>
     <g id="line2d_26"/>
     <g id="text_14">
      <!-- 10000 -->
      <g style="fill: #e6e6e6" transform="translate(3.00024 119.14251) scale(0.1 -0.1)">
       <use xlink:href="#DejaVuSans-31"/>
       <use xlink:href="#DejaVuSans-30" x="63.623047"/>
       <use xlink:href="#DejaVuSans-30" x="127.246094"/>
       <use xlink:href="#DejaVuSans-30" x="190.869141"/>
       <use xlink:href="#DejaVuSans-30" x="254.492188"/>
      </g>
     </g>
    </g>
    <g id="ytick_6">
     <g id="line2d_27">
      <path d="M 38.31274 82.132159 
L 428.99976 82.132159 
" clip-path="url(#p299424a925)" style="fill: none; stroke: #2a3459; stroke-width: 0.8; stroke-linecap: round"/>
     </g>
     <g id="line2d_28"/>
     <g id="text_15">
      <!-- 12500 -->
      <g style="fill: #e6e6e6" transform="translate(3.00024 85.931378) scale(0.1 -0.1)">
       <use xlink:href="#DejaVuSans-31"/>
       <use xlink:href="#DejaVuSans-32" x="63.623047"/>
       <use xlink:href="#DejaVuSans-35" x="127.246094"/>
       <use xlink:href="#DejaVuSans-30" x="190.869141"/>
       <use xlink:href="#DejaVuSans-30" x="254.492188"/>
      </g>
     </g>
    </g>
    <g id="ytick_7">
     <g id="line2d_29">
      <path d="M 38.31274 48.921026 
L 428.99976 48.921026 
" clip-path="url(#p299424a925)" style="fill: none; stroke: #2a3459; stroke-width: 0.8; stroke-linecap: round"/>
     </g>
     <g id="line2d_30"/>
     <g id="text_16">
      <!-- 15000 -->
      <g style="fill: #e6e6e6" transform="translate(3.00024 52.720245) scale(0.1 -0.1)">
       <use xlink:href="#DejaVuSans-31"/>
       <use xlink:href="#DejaVuSans-35" x="63.623047"/>
       <use xlink:href="#DejaVuSans-30" x="127.246094"/>
       <use xlink:href="#DejaVuSans-30" x="190.869141"/>
       <use xlink:href="#DejaVuSans-30" x="254.492188"/>
      </g>
     </g>
    </g>
   </g>
   <g id="PolyCollection_1">
    <defs>
     <path id="m4d94497371" d="M 56.071241 -39.812178 
L 56.071241 -155.479911 
L 68.318483 -77.686154 
L 80.565725 -88.35357 
L 92.812967 -85.245008 
L 105.060209 -109.980659 
L 117.307451 -194.323652 
L 129.554693 -39.878601 
L 141.801935 -216.33599 
L 154.049177 -97.559696 
L 166.296419 -93.282102 
L 178.543661 -90.319669 
L 190.790903 -91.501985 
L 203.038145 -84.315096 
L 215.285387 -92.538172 
L 227.532629 -91.329287 
L 239.779871 -84.514363 
L 252.027113 -87.516649 
L 264.274355 -62.143344 
L 276.521597 -109.701686 
L 288.768839 -87.237676 
L 301.016081 -86.825858 
L 313.263323 -48.686193 
L 325.510565 -122.016374 
L 337.757807 -83.385184 
L 350.005049 -76.902371 
L 362.252291 -67.244574 
L 374.499533 -109.210161 
L 386.746775 -83.039789 
L 398.994017 -77.300905 
L 411.241259 -258.925947 
L 411.241259 -39.812178 
L 411.241259 -39.812178 
L 398.994017 -39.812178 
L 386.746775 -39.812178 
L 374.499533 -39.812178 
L 362.252291 -39.812178 
L 350.005049 -39.812178 
L 337.757807 -39.812178 
L 325.510565 -39.812178 
L 313.263323 -39.812178 
L 301.016081 -39.812178 
L 288.768839 -39.812178 
L 276.521597 -39.812178 
L 264.274355 -39.812178 
L 252.027113 -39.812178 
L 239.779871 -39.812178 
L 227.532629 -39.812178 
L 215.285387 -39.812178 
L 203.038145 -39.812178 
L 190.790903 -39.812178 
L 178.543661 -39.812178 
L 166.296419 -39.812178 
L 154.049177 -39.812178 
L 141.801935 -39.812178 
L 129.554693 -39.812178 
L 117.307451 -39.812178 
L 105.060209 -39.812178 
L 92.812967 -39.812178 
L 80.565725 -39.812178 
L 68.318483 -39.812178 
L 56.071241 -39.812178 
z
" style="stroke: #08f7fe; stroke-opacity: 0.1"/>
    </defs>
    <g clip-path="url(#p299424a925)">
     <use xlink:href="#m4d94497371" x="0" y="288" style="fill: #08f7fe; fill-opacity: 0.1; stroke: #08f7fe; stroke-opacity: 0.1"/>
    </g>
   </g>
   <g id="PolyCollection_2">
    <defs>
     <path id="m7cdf5ad762" d="M 56.071241 -39.812178 
L 56.071241 -39.812178 
L 68.318483 -39.812178 
L 80.565725 -39.812178 
L 92.812967 -39.812178 
L 105.060209 -39.812178 
L 117.307451 -39.812178 
L 129.554693 -39.812178 
L 141.801935 -39.812178 
L 154.049177 -39.812178 
L 166.296419 -39.812178 
L 178.543661 -39.812178 
L 190.790903 -39.825463 
L 203.038145 -39.812178 
L 215.285387 -39.812178 
L 227.532629 -39.812178 
L 239.779871 -39.812178 
L 252.027113 -39.825463 
L 264.274355 -39.825463 
L 276.521597 -39.812178 
L 288.768839 -39.812178 
L 301.016081 -39.812178 
L 313.263323 -39.812178 
L 325.510565 -39.812178 
L 337.757807 -39.812178 
L 350.005049 -39.825463 
L 362.252291 -39.812178 
L 374.499533 -39.812178 
L 386.746775 -39.825463 
L 398.994017 -39.812178 
L 411.241259 -39.825463 
L 411.241259 -39.812178 
L 411.241259 -39.812178 
L 398.994017 -39.812178 
L 386.746775 -39.812178 
L 374.499533 -39.812178 
L 362.252291 -39.812178 
L 350.005049 -39.812178 
L 337.757807 -39.812178 
L 325.510565 -39.812178 
L 313.263323 -39.812178 
L 301.016081 -39.812178 
L 288.768839 -39.812178 
L 276.521597 -39.812178 
L 264.274355 -39.812178 
L 252.027113 -39.812178 
L 239.779871 -39.812178 
L 227.532629 -39.812178 
L 215.285387 -39.812178 
L 203.038145 -39.812178 
L 190.790903 -39.812178 
L 178.543661 -39.812178 
L 166.296419 -39.812178 
L 154.049177 -39.812178 
L 141.801935 -39.812178 
L 129.554693 -39.812178 
L 117.307451 -39.812178 
L 105.060209 -39.812178 
L 92.812967 -39.812178 
L 80.565725 -39.812178 
L 68.318483 -39.812178 
L 56.071241 -39.812178 
z
" style="stroke: #fe53bb; stroke-opacity: 0.1"/>
    </defs>
    <g clip-path="url(#p299424a925)">
     <use xlink:href="#m7cdf5ad762" x="0" y="288" style="fill: #fe53bb; fill-opacity: 0.1; stroke: #fe53bb; stroke-opacity: 0.1"/>
    </g>
   </g>
   <g id="PolyCollection_3">
    <defs>
     <path id="m24ecddc7a5" d="M 56.071241 -39.812178 
L 56.071241 -39.865316 
L 68.318483 -39.812178 
L 80.565725 -41.831415 
L 92.812967 -41.419597 
L 105.060209 -44.302324 
L 117.307451 -44.753995 
L 129.554693 -41.778277 
L 141.801935 -40.874935 
L 154.049177 -40.330272 
L 166.296419 -40.409979 
L 178.543661 -40.356841 
L 190.790903 -40.117721 
L 203.038145 -40.157574 
L 215.285387 -40.117721 
L 227.532629 -40.104436 
L 239.779871 -40.051299 
L 252.027113 -40.170859 
L 264.274355 -40.117721 
L 276.521597 -40.077867 
L 288.768839 -40.077867 
L 301.016081 -40.131005 
L 313.263323 -40.157574 
L 325.510565 -40.011445 
L 337.757807 -39.984876 
L 350.005049 -40.011445 
L 362.252291 -40.038014 
L 374.499533 -40.064583 
L 386.746775 -39.998161 
L 398.994017 -39.971592 
L 411.241259 -40.02473 
L 411.241259 -39.812178 
L 411.241259 -39.812178 
L 398.994017 -39.812178 
L 386.746775 -39.812178 
L 374.499533 -39.812178 
L 362.252291 -39.812178 
L 350.005049 -39.812178 
L 337.757807 -39.812178 
L 325.510565 -39.812178 
L 313.263323 -39.812178 
L 301.016081 -39.812178 
L 288.768839 -39.812178 
L 276.521597 -39.812178 
L 264.274355 -39.812178 
L 252.027113 -39.812178 
L 239.779871 -39.812178 
L 227.532629 -39.812178 
L 215.285387 -39.812178 
L 203.038145 -39.812178 
L 190.790903 -39.812178 
L 178.543661 -39.812178 
L 166.296419 -39.812178 
L 154.049177 -39.812178 
L 141.801935 -39.812178 
L 129.554693 -39.812178 
L 117.307451 -39.812178 
L 105.060209 -39.812178 
L 92.812967 -39.812178 
L 80.565725 -39.812178 
L 68.318483 -39.812178 
L 56.071241 -39.812178 
z
" style="stroke: #f5d300; stroke-opacity: 0.1"/>
    </defs>
    <g clip-path="url(#p299424a925)">
     <use xlink:href="#m24ecddc7a5" x="0" y="288" style="fill: #f5d300; fill-opacity: 0.1; stroke: #f5d300; stroke-opacity: 0.1"/>
    </g>
   </g>
   <g id="PolyCollection_4">
    <defs>
     <path id="m22c055b7e8" d="M 56.071241 -39.812178 
L 56.071241 -39.825463 
L 68.318483 -44.129626 
L 80.565725 -42.655051 
L 92.812967 -40.781943 
L 105.060209 -44.38203 
L 117.307451 -60.987597 
L 129.554693 -39.838747 
L 141.801935 -51.489213 
L 154.049177 -42.163527 
L 166.296419 -41.539157 
L 178.543661 -41.525873 
L 190.790903 -41.539157 
L 203.038145 -41.153908 
L 215.285387 -41.273468 
L 227.532629 -41.153908 
L 239.779871 -40.582677 
L 252.027113 -41.007779 
L 264.274355 -40.250565 
L 276.521597 -41.207046 
L 288.768839 -40.821797 
L 301.016081 -40.967926 
L 313.263323 -39.891885 
L 325.510565 -41.379744 
L 337.757807 -40.516254 
L 350.005049 -40.370125 
L 362.252291 -40.197428 
L 374.499533 -41.047633 
L 386.746775 -40.423263 
L 398.994017 -40.26385 
L 411.241259 -40.157574 
L 411.241259 -39.812178 
L 411.241259 -39.812178 
L 398.994017 -39.812178 
L 386.746775 -39.812178 
L 374.499533 -39.812178 
L 362.252291 -39.812178 
L 350.005049 -39.812178 
L 337.757807 -39.812178 
L 325.510565 -39.812178 
L 313.263323 -39.812178 
L 301.016081 -39.812178 
L 288.768839 -39.812178 
L 276.521597 -39.812178 
L 264.274355 -39.812178 
L 252.027113 -39.812178 
L 239.779871 -39.812178 
L 227.532629 -39.812178 
L 215.285387 -39.812178 
L 203.038145 -39.812178 
L 190.790903 -39.812178 
L 178.543661 -39.812178 
L 166.296419 -39.812178 
L 154.049177 -39.812178 
L 141.801935 -39.812178 
L 129.554693 -39.812178 
L 117.307451 -39.812178 
L 105.060209 -39.812178 
L 92.812967 -39.812178 
L 80.565725 -39.812178 
L 68.318483 -39.812178 
L 56.071241 -39.812178 
z
" style="stroke: #00ff41; stroke-opacity: 0.1"/>
    </defs>
    <g clip-path="url(#p299424a925)">
     <use xlink:href="#m22c055b7e8" x="0" y="288" style="fill: #00ff41; fill-opacity: 0.1; stroke: #00ff41; stroke-opacity: 0.1"/>
    </g>
   </g>
   <g id="line2d_31">
    <path d="M 56.071241 132.520089 
L 68.318483 210.313846 
L 80.565725 199.64643 
L 92.812967 202.754992 
L 105.060209 178.019341 
L 117.307451 93.676348 
L 129.554693 248.121399 
L 141.801935 71.66401 
L 154.049177 190.440304 
L 166.296419 194.717898 
L 178.543661 197.680331 
L 190.790903 196.498015 
L 203.038145 203.684904 
L 215.285387 195.461828 
L 227.532629 196.670713 
L 239.779871 203.485637 
L 252.027113 200.483351 
L 264.274355 225.856656 
L 276.521597 178.298314 
L 288.768839 200.762324 
L 301.016081 201.174142 
L 313.263323 239.313807 
L 325.510565 165.983626 
L 337.757807 204.614816 
L 350.005049 211.097629 
L 362.252291 220.755426 
L 374.499533 178.789839 
L 386.746775 204.960211 
L 398.994017 210.699095 
L 411.241259 29.074053 
" clip-path="url(#p299424a925)" style="fill: none; stroke: #08f7fe; stroke-width: 1.5; stroke-linecap: round"/>
   </g>
   <g id="line2d_32">
    <path d="M 56.071241 248.187822 
L 68.318483 248.187822 
L 80.565725 248.187822 
L 92.812967 248.187822 
L 105.060209 248.187822 
L 117.307451 248.187822 
L 129.554693 248.187822 
L 141.801935 248.187822 
L 154.049177 248.187822 
L 166.296419 248.187822 
L 178.543661 248.187822 
L 190.790903 248.174537 
L 203.038145 248.187822 
L 215.285387 248.187822 
L 227.532629 248.187822 
L 239.779871 248.187822 
L 252.027113 248.174537 
L 264.274355 248.174537 
L 276.521597 248.187822 
L 288.768839 248.187822 
L 301.016081 248.187822 
L 313.263323 248.187822 
L 325.510565 248.187822 
L 337.757807 248.187822 
L 350.005049 248.174537 
L 362.252291 248.187822 
L 374.499533 248.187822 
L 386.746775 248.174537 
L 398.994017 248.187822 
L 411.241259 248.174537 
" clip-path="url(#p299424a925)" style="fill: none; stroke: #fe53bb; stroke-width: 1.5; stroke-linecap: round"/>
   </g>
   <g id="line2d_33">
    <path d="M 56.071241 248.134684 
L 68.318483 248.187822 
L 80.565725 246.168585 
L 92.812967 246.580403 
L 105.060209 243.697676 
L 117.307451 243.246005 
L 129.554693 246.221723 
L 141.801935 247.125065 
L 154.049177 247.669728 
L 166.296419 247.590021 
L 178.543661 247.643159 
L 190.790903 247.882279 
L 203.038145 247.842426 
L 215.285387 247.882279 
L 227.532629 247.895564 
L 239.779871 247.948701 
L 252.027113 247.829141 
L 264.274355 247.882279 
L 276.521597 247.922133 
L 288.768839 247.922133 
L 301.016081 247.868995 
L 313.263323 247.842426 
L 325.510565 247.988555 
L 337.757807 248.015124 
L 350.005049 247.988555 
L 362.252291 247.961986 
L 374.499533 247.935417 
L 386.746775 248.001839 
L 398.994017 248.028408 
L 411.241259 247.97527 
" clip-path="url(#p299424a925)" style="fill: none; stroke: #f5d300; stroke-width: 1.5; stroke-linecap: round"/>
   </g>
   <g id="line2d_34">
    <path d="M 56.071241 248.174537 
L 68.318483 243.870374 
L 80.565725 245.344949 
L 92.812967 247.218057 
L 105.060209 243.61797 
L 117.307451 227.012403 
L 129.554693 248.161253 
L 141.801935 236.510787 
L 154.049177 245.836473 
L 166.296419 246.460843 
L 178.543661 246.474127 
L 190.790903 246.460843 
L 203.038145 246.846092 
L 215.285387 246.726532 
L 227.532629 246.846092 
L 239.779871 247.417323 
L 252.027113 246.992221 
L 264.274355 247.749435 
L 276.521597 246.792954 
L 288.768839 247.178203 
L 301.016081 247.032074 
L 313.263323 248.108115 
L 325.510565 246.620256 
L 337.757807 247.483746 
L 350.005049 247.629875 
L 362.252291 247.802572 
L 374.499533 246.952367 
L 386.746775 247.576737 
L 398.994017 247.73615 
L 411.241259 247.842426 
" clip-path="url(#p299424a925)" style="fill: none; stroke: #00ff41; stroke-width: 1.5; stroke-linecap: round"/>
   </g>
   <g id="patch_3">
    <path d="M 38.31274 259.14351 
L 38.31274 18.118365 
" style="fill: none"/>
   </g>
   <g id="patch_4">
    <path d="M 428.99976 259.14351 
L 428.99976 18.118365 
" style="fill: none"/>
   </g>
   <g id="patch_5">
    <path d="M 38.31274 259.14351 
L 428.99976 259.14351 
" style="fill: none"/>
   </g>
   <g id="patch_6">
    <path d="M 38.31274 18.118365 
L 428.99976 18.118365 
" style="fill: none"/>
   </g>
   <g id="text_17">
    <!-- Daily Download Count -->
    <g style="fill: #e6e6e6" transform="translate(167.017812 12.118365) scale(0.12 -0.12)">
     <defs>
      <path id="DejaVuSans-44" d="M 1259 4147 
L 1259 519 
L 2022 519 
Q 2988 519 3436 956 
Q 3884 1394 3884 2338 
Q 3884 3275 3436 3711 
Q 2988 4147 2022 4147 
L 1259 4147 
z
M 628 4666 
L 1925 4666 
Q 3281 4666 3915 4102 
Q 4550 3538 4550 2338 
Q 4550 1131 3912 565 
Q 3275 0 1925 0 
L 628 0 
L 628 4666 
z
" transform="scale(0.015625)"/>
      <path id="DejaVuSans-61" d="M 2194 1759 
Q 1497 1759 1228 1600 
Q 959 1441 959 1056 
Q 959 750 1161 570 
Q 1363 391 1709 391 
Q 2188 391 2477 730 
Q 2766 1069 2766 1631 
L 2766 1759 
L 2194 1759 
z
M 3341 1997 
L 3341 0 
L 2766 0 
L 2766 531 
Q 2569 213 2275 61 
Q 1981 -91 1556 -91 
Q 1019 -91 701 211 
Q 384 513 384 1019 
Q 384 1609 779 1909 
Q 1175 2209 1959 2209 
L 2766 2209 
L 2766 2266 
Q 2766 2663 2505 2880 
Q 2244 3097 1772 3097 
Q 1472 3097 1187 3025 
Q 903 2953 641 2809 
L 641 3341 
Q 956 3463 1253 3523 
Q 1550 3584 1831 3584 
Q 2591 3584 2966 3190 
Q 3341 2797 3341 1997 
z
" transform="scale(0.015625)"/>
      <path id="DejaVuSans-69" d="M 603 3500 
L 1178 3500 
L 1178 0 
L 603 0 
L 603 3500 
z
M 603 4863 
L 1178 4863 
L 1178 4134 
L 603 4134 
L 603 4863 
z
" transform="scale(0.015625)"/>
      <path id="DejaVuSans-79" d="M 2059 -325 
Q 1816 -950 1584 -1140 
Q 1353 -1331 966 -1331 
L 506 -1331 
L 506 -850 
L 844 -850 
Q 1081 -850 1212 -737 
Q 1344 -625 1503 -206 
L 1606 56 
L 191 3500 
L 800 3500 
L 1894 763 
L 2988 3500 
L 3597 3500 
L 2059 -325 
z
" transform="scale(0.015625)"/>
      <path id="DejaVuSans-20" transform="scale(0.015625)"/>
      <path id="DejaVuSans-6f" d="M 1959 3097 
Q 1497 3097 1228 2736 
Q 959 2375 959 1747 
Q 959 1119 1226 758 
Q 1494 397 1959 397 
Q 2419 397 2687 759 
Q 2956 1122 2956 1747 
Q 2956 2369 2687 2733 
Q 2419 3097 1959 3097 
z
M 1959 3584 
Q 2709 3584 3137 3096 
Q 3566 2609 3566 1747 
Q 3566 888 3137 398 
Q 2709 -91 1959 -91 
Q 1206 -91 779 398 
Q 353 888 353 1747 
Q 353 2609 779 3096 
Q 1206 3584 1959 3584 
z
" transform="scale(0.015625)"/>
      <path id="DejaVuSans-77" d="M 269 3500 
L 844 3500 
L 1563 769 
L 2278 3500 
L 2956 3500 
L 3675 769 
L 4391 3500 
L 4966 3500 
L 4050 0 
L 3372 0 
L 2619 2869 
L 1863 0 
L 1184 0 
L 269 3500 
z
" transform="scale(0.015625)"/>
      <path id="DejaVuSans-6e" d="M 3513 2113 
L 3513 0 
L 2938 0 
L 2938 2094 
Q 2938 2591 2744 2837 
Q 2550 3084 2163 3084 
Q 1697 3084 1428 2787 
Q 1159 2491 1159 1978 
L 1159 0 
L 581 0 
L 581 3500 
L 1159 3500 
L 1159 2956 
Q 1366 3272 1645 3428 
Q 1925 3584 2291 3584 
Q 2894 3584 3203 3211 
Q 3513 2838 3513 2113 
z
" transform="scale(0.015625)"/>
      <path id="DejaVuSans-64" d="M 2906 2969 
L 2906 4863 
L 3481 4863 
L 3481 0 
L 2906 0 
L 2906 525 
Q 2725 213 2448 61 
Q 2172 -91 1784 -91 
Q 1150 -91 751 415 
Q 353 922 353 1747 
Q 353 2572 751 3078 
Q 1150 3584 1784 3584 
Q 2172 3584 2448 3432 
Q 2725 3281 2906 2969 
z
M 947 1747 
Q 947 1113 1208 752 
Q 1469 391 1925 391 
Q 2381 391 2643 752 
Q 2906 1113 2906 1747 
Q 2906 2381 2643 2742 
Q 2381 3103 1925 3103 
Q 1469 3103 1208 2742 
Q 947 2381 947 1747 
z
" transform="scale(0.015625)"/>
      <path id="DejaVuSans-43" d="M 4122 4306 
L 4122 3641 
Q 3803 3938 3442 4084 
Q 3081 4231 2675 4231 
Q 1875 4231 1450 3742 
Q 1025 3253 1025 2328 
Q 1025 1406 1450 917 
Q 1875 428 2675 428 
Q 3081 428 3442 575 
Q 3803 722 4122 1019 
L 4122 359 
Q 3791 134 3420 21 
Q 3050 -91 2638 -91 
Q 1578 -91 968 557 
Q 359 1206 359 2328 
Q 359 3453 968 4101 
Q 1578 4750 2638 4750 
Q 3056 4750 3426 4639 
Q 3797 4528 4122 4306 
z
" transform="scale(0.015625)"/>
      <path id="DejaVuSans-74" d="M 1172 4494 
L 1172 3500 
L 2356 3500 
L 2356 3053 
L 1172 3053 
L 1172 1153 
Q 1172 725 1289 603 
Q 1406 481 1766 481 
L 2356 481 
L 2356 0 
L 1766 0 
Q 1100 0 847 248 
Q 594 497 594 1153 
L 594 3053 
L 172 3053 
L 172 3500 
L 594 3500 
L 594 4494 
L 1172 4494 
z
" transform="scale(0.015625)"/>
     </defs>
     <use xlink:href="#DejaVuSans-44"/>
     <use xlink:href="#DejaVuSans-61" x="77.001953"/>
     <use xlink:href="#DejaVuSans-69" x="138.28125"/>
     <use xlink:href="#DejaVuSans-6c" x="166.064453"/>
     <use xlink:href="#DejaVuSans-79" x="193.847656"/>
     <use xlink:href="#DejaVuSans-20" x="253.027344"/>
     <use xlink:href="#DejaVuSans-44" x="284.814453"/>
     <use xlink:href="#DejaVuSans-6f" x="361.816406"/>
     <use xlink:href="#DejaVuSans-77" x="422.998047"/>
     <use xlink:href="#DejaVuSans-6e" x="504.785156"/>
     <use xlink:href="#DejaVuSans-6c" x="568.164062"/>
     <use xlink:href="#DejaVuSans-6f" x="595.947266"/>
     <use xlink:href="#DejaVuSans-61" x="657.128906"/>
     <use xlink:href="#DejaVuSans-64" x="718.408203"/>
     <use xlink:href="#DejaVuSans-20" x="781.884766"/>
     <use xlink:href="#DejaVuSans-43" x="813.671875"/>
     <use xlink:href="#DejaVuSans-6f" x="883.496094"/>
     <use xlink:href="#DejaVuSans-75" x="944.677734"/>
     <use xlink:href="#DejaVuSans-6e" x="1008.056641"/>
     <use xlink:href="#DejaVuSans-74" x="1071.435547"/>
    </g>
   </g>
   <g id="legend_1">
    <g id="line2d_35">
     <path d="M 164.905469 31.216802 
L 174.905469 31.216802 
L 184.905469 31.216802 
" style="fill: none; stroke: #08f7fe; stroke-width: 1.5; stroke-linecap: round"/>
    </g>
    <g id="text_18">
     <!-- Craftimizer -->
     <g style="fill: #e6e6e6" transform="translate(192.905469 34.716802) scale(0.1 -0.1)">
      <defs>
       <path id="DejaVuSans-72" d="M 2631 2963 
Q 2534 3019 2420 3045 
Q 2306 3072 2169 3072 
Q 1681 3072 1420 2755 
Q 1159 2438 1159 1844 
L 1159 0 
L 581 0 
L 581 3500 
L 1159 3500 
L 1159 2956 
Q 1341 3275 1631 3429 
Q 1922 3584 2338 3584 
Q 2397 3584 2469 3576 
Q 2541 3569 2628 3553 
L 2631 2963 
z
" transform="scale(0.015625)"/>
       <path id="DejaVuSans-66" d="M 2375 4863 
L 2375 4384 
L 1825 4384 
Q 1516 4384 1395 4259 
Q 1275 4134 1275 3809 
L 1275 3500 
L 2222 3500 
L 2222 3053 
L 1275 3053 
L 1275 0 
L 697 0 
L 697 3053 
L 147 3053 
L 147 3500 
L 697 3500 
L 697 3744 
Q 697 4328 969 4595 
Q 1241 4863 1831 4863 
L 2375 4863 
z
" transform="scale(0.015625)"/>
       <path id="DejaVuSans-6d" d="M 3328 2828 
Q 3544 3216 3844 3400 
Q 4144 3584 4550 3584 
Q 5097 3584 5394 3201 
Q 5691 2819 5691 2113 
L 5691 0 
L 5113 0 
L 5113 2094 
Q 5113 2597 4934 2840 
Q 4756 3084 4391 3084 
Q 3944 3084 3684 2787 
Q 3425 2491 3425 1978 
L 3425 0 
L 2847 0 
L 2847 2094 
Q 2847 2600 2669 2842 
Q 2491 3084 2119 3084 
Q 1678 3084 1418 2786 
Q 1159 2488 1159 1978 
L 1159 0 
L 581 0 
L 581 3500 
L 1159 3500 
L 1159 2956 
Q 1356 3278 1631 3431 
Q 1906 3584 2284 3584 
Q 2666 3584 2933 3390 
Q 3200 3197 3328 2828 
z
" transform="scale(0.015625)"/>
       <path id="DejaVuSans-7a" d="M 353 3500 
L 3084 3500 
L 3084 2975 
L 922 459 
L 3084 459 
L 3084 0 
L 275 0 
L 275 525 
L 2438 3041 
L 353 3041 
L 353 3500 
z
" transform="scale(0.015625)"/>
       <path id="DejaVuSans-65" d="M 3597 1894 
L 3597 1613 
L 953 1613 
Q 991 1019 1311 708 
Q 1631 397 2203 397 
Q 2534 397 2845 478 
Q 3156 559 3463 722 
L 3463 178 
Q 3153 47 2828 -22 
Q 2503 -91 2169 -91 
Q 1331 -91 842 396 
Q 353 884 353 1716 
Q 353 2575 817 3079 
Q 1281 3584 2069 3584 
Q 2775 3584 3186 3129 
Q 3597 2675 3597 1894 
z
M 3022 2063 
Q 3016 2534 2758 2815 
Q 2500 3097 2075 3097 
Q 1594 3097 1305 2825 
Q 1016 2553 972 2059 
L 3022 2063 
z
" transform="scale(0.015625)"/>
      </defs>
      <use xlink:href="#DejaVuSans-43"/>
      <use xlink:href="#DejaVuSans-72" x="69.824219"/>
      <use xlink:href="#DejaVuSans-61" x="110.9375"/>
      <use xlink:href="#DejaVuSans-66" x="172.216797"/>
      <use xlink:href="#DejaVuSans-74" x="205.671875"/>
      <use xlink:href="#DejaVuSans-69" x="244.880859"/>
      <use xlink:href="#DejaVuSans-6d" x="272.664062"/>
      <use xlink:href="#DejaVuSans-69" x="370.076172"/>
      <use xlink:href="#DejaVuSans-7a" x="397.859375"/>
      <use xlink:href="#DejaVuSans-65" x="450.349609"/>
      <use xlink:href="#DejaVuSans-72" x="511.873047"/>
     </g>
    </g>
    <g id="line2d_36">
     <path d="M 164.905469 45.894927 
L 174.905469 45.894927 
L 184.905469 45.894927 
" style="fill: none; stroke: #fe53bb; stroke-width: 1.5; stroke-linecap: round"/>
    </g>
    <g id="text_19">
     <!-- ItemIcons -->
     <g style="fill: #e6e6e6" transform="translate(192.905469 49.394927) scale(0.1 -0.1)">
      <defs>
       <path id="DejaVuSans-49" d="M 628 4666 
L 1259 4666 
L 1259 0 
L 628 0 
L 628 4666 
z
" transform="scale(0.015625)"/>
       <path id="DejaVuSans-63" d="M 3122 3366 
L 3122 2828 
Q 2878 2963 2633 3030 
Q 2388 3097 2138 3097 
Q 1578 3097 1268 2742 
Q 959 2388 959 1747 
Q 959 1106 1268 751 
Q 1578 397 2138 397 
Q 2388 397 2633 464 
Q 2878 531 3122 666 
L 3122 134 
Q 2881 22 2623 -34 
Q 2366 -91 2075 -91 
Q 1284 -91 818 406 
Q 353 903 353 1747 
Q 353 2603 823 3093 
Q 1294 3584 2113 3584 
Q 2378 3584 2631 3529 
Q 2884 3475 3122 3366 
z
" transform="scale(0.015625)"/>
       <path id="DejaVuSans-73" d="M 2834 3397 
L 2834 2853 
Q 2591 2978 2328 3040 
Q 2066 3103 1784 3103 
Q 1356 3103 1142 2972 
Q 928 2841 928 2578 
Q 928 2378 1081 2264 
Q 1234 2150 1697 2047 
L 1894 2003 
Q 2506 1872 2764 1633 
Q 3022 1394 3022 966 
Q 3022 478 2636 193 
Q 2250 -91 1575 -91 
Q 1294 -91 989 -36 
Q 684 19 347 128 
L 347 722 
Q 666 556 975 473 
Q 1284 391 1588 391 
Q 1994 391 2212 530 
Q 2431 669 2431 922 
Q 2431 1156 2273 1281 
Q 2116 1406 1581 1522 
L 1381 1569 
Q 847 1681 609 1914 
Q 372 2147 372 2553 
Q 372 3047 722 3315 
Q 1072 3584 1716 3584 
Q 2034 3584 2315 3537 
Q 2597 3491 2834 3397 
z
" transform="scale(0.015625)"/>
      </defs>
      <use xlink:href="#DejaVuSans-49"/>
      <use xlink:href="#DejaVuSans-74" x="29.492188"/>
      <use xlink:href="#DejaVuSans-65" x="68.701172"/>
      <use xlink:href="#DejaVuSans-6d" x="130.224609"/>
      <use xlink:href="#DejaVuSans-49" x="227.636719"/>
      <use xlink:href="#DejaVuSans-63" x="257.128906"/>
      <use xlink:href="#DejaVuSans-6f" x="312.109375"/>
      <use xlink:href="#DejaVuSans-6e" x="373.291016"/>
      <use xlink:href="#DejaVuSans-73" x="436.669922"/>
     </g>
    </g>
    <g id="line2d_37">
     <path d="M 164.905469 60.573052 
L 174.905469 60.573052 
L 184.905469 60.573052 
" style="fill: none; stroke: #f5d300; stroke-width: 1.5; stroke-linecap: round"/>
    </g>
    <g id="text_20">
     <!-- SomethingNeedDoing -->
     <g style="fill: #e6e6e6" transform="translate(192.905469 64.073052) scale(0.1 -0.1)">
      <defs>
       <path id="DejaVuSans-53" d="M 3425 4513 
L 3425 3897 
Q 3066 4069 2747 4153 
Q 2428 4238 2131 4238 
Q 1616 4238 1336 4038 
Q 1056 3838 1056 3469 
Q 1056 3159 1242 3001 
Q 1428 2844 1947 2747 
L 2328 2669 
Q 3034 2534 3370 2195 
Q 3706 1856 3706 1288 
Q 3706 609 3251 259 
Q 2797 -91 1919 -91 
Q 1588 -91 1214 -16 
Q 841 59 441 206 
L 441 856 
Q 825 641 1194 531 
Q 1563 422 1919 422 
Q 2459 422 2753 634 
Q 3047 847 3047 1241 
Q 3047 1584 2836 1778 
Q 2625 1972 2144 2069 
L 1759 2144 
Q 1053 2284 737 2584 
Q 422 2884 422 3419 
Q 422 4038 858 4394 
Q 1294 4750 2059 4750 
Q 2388 4750 2728 4690 
Q 3069 4631 3425 4513 
z
" transform="scale(0.015625)"/>
       <path id="DejaVuSans-68" d="M 3513 2113 
L 3513 0 
L 2938 0 
L 2938 2094 
Q 2938 2591 2744 2837 
Q 2550 3084 2163 3084 
Q 1697 3084 1428 2787 
Q 1159 2491 1159 1978 
L 1159 0 
L 581 0 
L 581 4863 
L 1159 4863 
L 1159 2956 
Q 1366 3272 1645 3428 
Q 1925 3584 2291 3584 
Q 2894 3584 3203 3211 
Q 3513 2838 3513 2113 
z
" transform="scale(0.015625)"/>
       <path id="DejaVuSans-67" d="M 2906 1791 
Q 2906 2416 2648 2759 
Q 2391 3103 1925 3103 
Q 1463 3103 1205 2759 
Q 947 2416 947 1791 
Q 947 1169 1205 825 
Q 1463 481 1925 481 
Q 2391 481 2648 825 
Q 2906 1169 2906 1791 
z
M 3481 434 
Q 3481 -459 3084 -895 
Q 2688 -1331 1869 -1331 
Q 1566 -1331 1297 -1286 
Q 1028 -1241 775 -1147 
L 775 -588 
Q 1028 -725 1275 -790 
Q 1522 -856 1778 -856 
Q 2344 -856 2625 -561 
Q 2906 -266 2906 331 
L 2906 616 
Q 2728 306 2450 153 
Q 2172 0 1784 0 
Q 1141 0 747 490 
Q 353 981 353 1791 
Q 353 2603 747 3093 
Q 1141 3584 1784 3584 
Q 2172 3584 2450 3431 
Q 2728 3278 2906 2969 
L 2906 3500 
L 3481 3500 
L 3481 434 
z
" transform="scale(0.015625)"/>
       <path id="DejaVuSans-4e" d="M 628 4666 
L 1478 4666 
L 3547 763 
L 3547 4666 
L 4159 4666 
L 4159 0 
L 3309 0 
L 1241 3903 
L 1241 0 
L 628 0 
L 628 4666 
z
" transform="scale(0.015625)"/>
      </defs>
      <use xlink:href="#DejaVuSans-53"/>
      <use xlink:href="#DejaVuSans-6f" x="63.476562"/>
      <use xlink:href="#DejaVuSans-6d" x="124.658203"/>
      <use xlink:href="#DejaVuSans-65" x="222.070312"/>
      <use xlink:href="#DejaVuSans-74" x="283.59375"/>
      <use xlink:href="#DejaVuSans-68" x="322.802734"/>
      <use xlink:href="#DejaVuSans-69" x="386.181641"/>
      <use xlink:href="#DejaVuSans-6e" x="413.964844"/>
      <use xlink:href="#DejaVuSans-67" x="477.34375"/>
      <use xlink:href="#DejaVuSans-4e" x="540.820312"/>
      <use xlink:href="#DejaVuSans-65" x="615.625"/>
      <use xlink:href="#DejaVuSans-65" x="677.148438"/>
      <use xlink:href="#DejaVuSans-64" x="738.671875"/>
      <use xlink:href="#DejaVuSans-44" x="802.148438"/>
      <use xlink:href="#DejaVuSans-6f" x="879.150391"/>
      <use xlink:href="#DejaVuSans-69" x="940.332031"/>
      <use xlink:href="#DejaVuSans-6e" x="968.115234"/>
      <use xlink:href="#DejaVuSans-67" x="1031.494141"/>
     </g>
    </g>
    <g id="line2d_38">
     <path d="M 164.905469 75.251177 
L 174.905469 75.251177 
L 184.905469 75.251177 
" style="fill: none; stroke: #00ff41; stroke-width: 1.5; stroke-linecap: round"/>
    </g>
    <g id="text_21">
     <!-- Waitingway.Dalamud -->
     <g style="fill: #e6e6e6" transform="translate(192.905469 78.751177) scale(0.1 -0.1)">
      <defs>
       <path id="DejaVuSans-57" d="M 213 4666 
L 850 4666 
L 1831 722 
L 2809 4666 
L 3519 4666 
L 4500 722 
L 5478 4666 
L 6119 4666 
L 4947 0 
L 4153 0 
L 3169 4050 
L 2175 0 
L 1381 0 
L 213 4666 
z
" transform="scale(0.015625)"/>
       <path id="DejaVuSans-2e" d="M 684 794 
L 1344 794 
L 1344 0 
L 684 0 
L 684 794 
z
" transform="scale(0.015625)"/>
      </defs>
      <use xlink:href="#DejaVuSans-57"/>
      <use xlink:href="#DejaVuSans-61" x="92.501953"/>
      <use xlink:href="#DejaVuSans-69" x="153.78125"/>
      <use xlink:href="#DejaVuSans-74" x="181.564453"/>
      <use xlink:href="#DejaVuSans-69" x="220.773438"/>
      <use xlink:href="#DejaVuSans-6e" x="248.556641"/>
      <use xlink:href="#DejaVuSans-67" x="311.935547"/>
      <use xlink:href="#DejaVuSans-77" x="375.412109"/>
      <use xlink:href="#DejaVuSans-61" x="457.199219"/>
      <use xlink:href="#DejaVuSans-79" x="518.478516"/>
      <use xlink:href="#DejaVuSans-2e" x="563.408203"/>
      <use xlink:href="#DejaVuSans-44" x="595.195312"/>
      <use xlink:href="#DejaVuSans-61" x="672.197266"/>
      <use xlink:href="#DejaVuSans-6c" x="733.476562"/>
      <use xlink:href="#DejaVuSans-61" x="761.259766"/>
      <use xlink:href="#DejaVuSans-6d" x="822.539062"/>
      <use xlink:href="#DejaVuSans-75" x="919.951172"/>
      <use xlink:href="#DejaVuSans-64" x="983.330078"/>
     </g>
    </g>
   </g>
  </g>
 </g>
 <defs>
  <clipPath id="p299424a925">
   <rect x="38.31274" y="18.118365" width="390.68702" height="241.025145"/>
  </clipPath>
 </defs>
</svg>
