<?xml version="1.0" encoding="utf-8" standalone="no"?>
<!DOCTYPE svg PUBLIC "-//W3C//DTD SVG 1.1//EN"
  "http://www.w3.org/Graphics/SVG/1.1/DTD/svg11.dtd">
<svg xmlns:xlink="http://www.w3.org/1999/xlink" width="432pt" height="288pt" viewBox="0 0 432 288" xmlns="http://www.w3.org/2000/svg" version="1.1">
 <metadata>
  <rdf:RDF xmlns:dc="http://purl.org/dc/elements/1.1/" xmlns:cc="http://creativecommons.org/ns#" xmlns:rdf="http://www.w3.org/1999/02/22-rdf-syntax-ns#">
   <cc:Work>
    <dc:type rdf:resource="http://purl.org/dc/dcmitype/StillImage"/>
    <dc:format>image/svg+xml</dc:format>
    <dc:creator>
     <cc:Agent>
      <dc:title>Matplotlib v3.8.4, https://matplotlib.org/</dc:title>
     </cc:Agent>
    </dc:creator>
   </cc:Work>
  </rdf:RDF>
 </metadata>
 <defs>
  <style type="text/css">*{stroke-linejoin: round; stroke-linecap: butt}</style>
 </defs>
 <g id="figure_1">
  <g id="patch_1">
   <path d="M 0 288 
L 432 288 
L 432 0 
L 0 0 
z
" style="fill: #212946"/>
  </g>
  <g id="axes_1">
   <g id="patch_2">
    <path d="M 38.31274 259.14351 
L 428.99976 259.14351 
L 428.99976 18.118365 
L 38.31274 18.118365 
z
" style="fill: #212946"/>
   </g>
   <g id="matplotlib.axis_1">
    <g id="xtick_1">
     <g id="line2d_1">
      <path d="M 56.071241 259.14351 
L 56.071241 18.118365 
" clip-path="url(#p299424a925)" style="fill: none; stroke: #2a3459; stroke-width: 0.8; stroke-linecap: round"/>
     </g>
     <g id="line2d_2"/>
     <g id="text_1">
      <!-- 29 -->
      <g style="fill: #e6e6e6" transform="translate(49.708741 270.241947) scale(0.1 -0.1)">
       <defs>
        <path id="DejaVuSans-32" d="M 1228 531 
L 3431 531 
L 3431 0 
L 469 0 
L 469 531 
Q 828 903 1448 1529 
Q 2069 2156 2228 2338 
Q 2531 2678 2651 2914 
Q 2772 3150 2772 3378 
Q 2772 3750 2511 3984 
Q 2250 4219 1831 4219 
Q 1534 4219 1204 4116 
Q 875 4013 500 3803 
L 500 4441 
Q 881 4594 1212 4672 
Q 1544 4750 1819 4750 
Q 2544 4750 2975 4387 
Q 3406 4025 3406 3419 
Q 3406 3131 3298 2873 
Q 3191 2616 2906 2266 
Q 2828 2175 2409 1742 
Q 1991 1309 1228 531 
z
" transform="scale(0.015625)"/>
        <path id="DejaVuSans-39" d="M 703 97 
L 703 672 
Q 941 559 1184 500 
Q 1428 441 1663 441 
Q 2288 441 2617 861 
Q 2947 1281 2994 2138 
Q 2813 1869 2534 1725 
Q 2256 1581 1919 1581 
Q 1219 1581 811 2004 
Q 403 2428 403 3163 
Q 403 3881 828 4315 
Q 1253 4750 1959 4750 
Q 2769 4750 3195 4129 
Q 3622 3509 3622 2328 
Q 3622 1225 3098 567 
Q 2575 -91 1691 -91 
Q 1453 -91 1209 -44 
Q 966 3 703 97 
z
M 1959 2075 
Q 2384 2075 2632 2365 
Q 2881 2656 2881 3163 
Q 2881 3666 2632 3958 
Q 2384 4250 1959 4250 
Q 1534 4250 1286 3958 
Q 1038 3666 1038 3163 
Q 1038 2656 1286 2365 
Q 1534 2075 1959 2075 
z
" transform="scale(0.015625)"/>
       </defs>
       <use xlink:href="#DejaVuSans-32"/>
       <use xlink:href="#DejaVuSans-39" x="63.623047"/>
      </g>
     </g>
    </g>
    <g id="xtick_2">
     <g id="line2d_3">
      <path d="M 81.440528 259.14351 
L 81.440528 18.118365 
" clip-path="url(#p299424a925)" style="fill: none; stroke: #2a3459; stroke-width: 0.8; stroke-linecap: round"/>
     </g>
     <g id="line2d_4"/>
     <g id="text_2">
      <!-- Jul -->
      <g style="fill: #e6e6e6" transform="translate(75.407715 270.241947) scale(0.1 -0.1)">
       <defs>
        <path id="DejaVuSans-4a" d="M 628 4666 
L 1259 4666 
L 1259 325 
Q 1259 -519 939 -900 
Q 619 -1281 -91 -1281 
L -331 -1281 
L -331 -750 
L -134 -750 
Q 284 -750 456 -515 
Q 628 -281 628 325 
L 628 4666 
z
" transform="scale(0.015625)"/>
        <path id="DejaVuSans-75" d="M 544 1381 
L 544 3500 
L 1119 3500 
L 1119 1403 
Q 1119 906 1312 657 
Q 1506 409 1894 409 
Q 2359 409 2629 706 
Q 2900 1003 2900 1516 
L 2900 3500 
L 3475 3500 
L 3475 0 
L 2900 0 
L 2900 538 
Q 2691 219 2414 64 
Q 2138 -91 1772 -91 
Q 1169 -91 856 284 
Q 544 659 544 1381 
z
M 1991 3584 
L 1991 3584 
z
" transform="scale(0.015625)"/>
        <path id="DejaVuSans-6c" d="M 603 4863 
L 1178 4863 
L 1178 0 
L 603 0 
L 603 4863 
z
" transform="scale(0.015625)"/>
       </defs>
       <use xlink:href="#DejaVuSans-4a"/>
       <use xlink:href="#DejaVuSans-75" x="29.492188"/>
       <use xlink:href="#DejaVuSans-6c" x="92.871094"/>
      </g>
     </g>
    </g>
    <g id="xtick_3">
     <g id="line2d_5">
      <path d="M 132.179102 259.14351 
L 132.179102 18.118365 
" clip-path="url(#p299424a925)" style="fill: none; stroke: #2a3459; stroke-width: 0.8; stroke-linecap: round"/>
     </g>
     <g id="line2d_6"/>
     <g id="text_3">
      <!-- 05 -->
      <g style="fill: #e6e6e6" transform="translate(125.816602 270.241947) scale(0.1 -0.1)">
       <defs>
        <path id="DejaVuSans-30" d="M 2034 4250 
Q 1547 4250 1301 3770 
Q 1056 3291 1056 2328 
Q 1056 1369 1301 889 
Q 1547 409 2034 409 
Q 2525 409 2770 889 
Q 3016 1369 3016 2328 
Q 3016 3291 2770 3770 
Q 2525 4250 2034 4250 
z
M 2034 4750 
Q 2819 4750 3233 4129 
Q 3647 3509 3647 2328 
Q 3647 1150 3233 529 
Q 2819 -91 2034 -91 
Q 1250 -91 836 529 
Q 422 1150 422 2328 
Q 422 3509 836 4129 
Q 1250 4750 2034 4750 
z
" transform="scale(0.015625)"/>
        <path id="DejaVuSans-35" d="M 691 4666 
L 3169 4666 
L 3169 4134 
L 1269 4134 
L 1269 2991 
Q 1406 3038 1543 3061 
Q 1681 3084 1819 3084 
Q 2600 3084 3056 2656 
Q 3513 2228 3513 1497 
Q 3513 744 3044 326 
Q 2575 -91 1722 -91 
Q 1428 -91 1123 -41 
Q 819 9 494 109 
L 494 744 
Q 775 591 1075 516 
Q 1375 441 1709 441 
Q 2250 441 2565 725 
Q 2881 1009 2881 1497 
Q 2881 1984 2565 2268 
Q 2250 2553 1709 2553 
Q 1456 2553 1204 2497 
Q 953 2441 691 2322 
L 691 4666 
z
" transform="scale(0.015625)"/>
       </defs>
       <use xlink:href="#DejaVuSans-30"/>
       <use xlink:href="#DejaVuSans-35" x="63.623047"/>
      </g>
     </g>
    </g>
    <g id="xtick_4">
     <g id="line2d_7">
      <path d="M 182.917676 259.14351 
L 182.917676 18.118365 
" clip-path="url(#p299424a925)" style="fill: none; stroke: #2a3459; stroke-width: 0.8; stroke-linecap: round"/>
     </g>
     <g id="line2d_8"/>
     <g id="text_4">
      <!-- 09 -->
      <g style="fill: #e6e6e6" transform="translate(176.555176 270.241947) scale(0.1 -0.1)">
       <use xlink:href="#DejaVuSans-30"/>
       <use xlink:href="#DejaVuSans-39" x="63.623047"/>
      </g>
     </g>
    </g>
    <g id="xtick_5">
     <g id="line2d_9">
      <path d="M 233.65625 259.14351 
L 233.65625 18.118365 
" clip-path="url(#p299424a925)" style="fill: none; stroke: #2a3459; stroke-width: 0.8; stroke-linecap: round"/>
     </g>
     <g id="line2d_10"/>
     <g id="text_5">
      <!-- 13 -->
      <g style="fill: #e6e6e6" transform="translate(227.29375 270.241947) scale(0.1 -0.1)">
       <defs>
        <path id="DejaVuSans-31" d="M 794 531 
L 1825 531 
L 1825 4091 
L 703 3866 
L 703 4441 
L 1819 4666 
L 2450 4666 
L 2450 531 
L 3481 531 
L 3481 0 
L 794 0 
L 794 531 
z
" transform="scale(0.015625)"/>
        <path id="DejaVuSans-33" d="M 2597 2516 
Q 3050 2419 3304 2112 
Q 3559 1806 3559 1356 
Q 3559 666 3084 287 
Q 2609 -91 1734 -91 
Q 1441 -91 1130 -33 
Q 819 25 488 141 
L 488 750 
Q 750 597 1062 519 
Q 1375 441 1716 441 
Q 2309 441 2620 675 
Q 2931 909 2931 1356 
Q 2931 1769 2642 2001 
Q 2353 2234 1838 2234 
L 1294 2234 
L 1294 2753 
L 1863 2753 
Q 2328 2753 2575 2939 
Q 2822 3125 2822 3475 
Q 2822 3834 2567 4026 
Q 2313 4219 1838 4219 
Q 1578 4219 1281 4162 
Q 984 4106 628 3988 
L 628 4550 
Q 988 4650 1302 4700 
Q 1616 4750 1894 4750 
Q 2613 4750 3031 4423 
Q 3450 4097 3450 3541 
Q 3450 3153 3228 2886 
Q 3006 2619 2597 2516 
z
" transform="scale(0.015625)"/>
       </defs>
       <use xlink:href="#DejaVuSans-31"/>
       <use xlink:href="#DejaVuSans-33" x="63.623047"/>
      </g>
     </g>
    </g>
    <g id="xtick_6">
     <g id="line2d_11">
      <path d="M 284.394824 259.14351 
L 284.394824 18.118365 
" clip-path="url(#p299424a925)" style="fill: none; stroke: #2a3459; stroke-width: 0.8; stroke-linecap: round"/>
     </g>
     <g id="line2d_12"/>
     <g id="text_6">
      <!-- 17 -->
      <g style="fill: #e6e6e6" transform="translate(278.032324 270.241947) scale(0.1 -0.1)">
       <defs>
        <path id="DejaVuSans-37" d="M 525 4666 
L 3525 4666 
L 3525 4397 
L 1831 0 
L 1172 0 
L 2766 4134 
L 525 4134 
L 525 4666 
z
" transform="scale(0.015625)"/>
       </defs>
       <use xlink:href="#DejaVuSans-31"/>
       <use xlink:href="#DejaVuSans-37" x="63.623047"/>
      </g>
     </g>
    </g>
    <g id="xtick_7">
     <g id="line2d_13">
      <path d="M 335.133398 259.14351 
L 335.133398 18.118365 
" clip-path="url(#p299424a925)" style="fill: none; stroke: #2a3459; stroke-width: 0.8; stroke-linecap: round"/>
     </g>
     <g id="line2d_14"/>
     <g id="text_7">
      <!-- 21 -->
      <g style="fill: #e6e6e6" transform="translate(328.770898 270.241947) scale(0.1 -0.1)">
       <use xlink:href="#DejaVuSans-32"/>
       <use xlink:href="#DejaVuSans-31" x="63.623047"/>
      </g>
     </g>
    </g>
    <g id="xtick_8">
     <g id="line2d_15">
      <path d="M 385.871972 259.14351 
L 385.871972 18.118365 
" clip-path="url(#p299424a925)" style="fill: none; stroke: #2a3459; stroke-width: 0.8; stroke-linecap: round"/>
     </g>
     <g id="line2d_16"/>
     <g id="text_8">
      <!-- 25 -->
      <g style="fill: #e6e6e6" transform="translate(379.509472 270.241947) scale(0.1 -0.1)">
       <use xlink:href="#DejaVuSans-32"/>
       <use xlink:href="#DejaVuSans-35" x="63.623047"/>
      </g>
     </g>
    </g>
    <g id="text_9">
     <!-- 2024-Jul -->
     <g style="fill: #e6e6e6" transform="translate(387.313823 282.920073) scale(0.1 -0.1)">
      <defs>
       <path id="DejaVuSans-34" d="M 2419 4116 
L 825 1625 
L 2419 1625 
L 2419 4116 
z
M 2253 4666 
L 3047 4666 
L 3047 1625 
L 3713 1625 
L 3713 1100 
L 3047 1100 
L 3047 0 
L 2419 0 
L 2419 1100 
L 313 1100 
L 313 1709 
L 2253 4666 
z
" transform="scale(0.015625)"/>
       <path id="DejaVuSans-2d" d="M 313 2009 
L 1997 2009 
L 1997 1497 
L 313 1497 
L 313 2009 
z
" transform="scale(0.015625)"/>
      </defs>
      <use xlink:href="#DejaVuSans-32"/>
      <use xlink:href="#DejaVuSans-30" x="63.623047"/>
      <use xlink:href="#DejaVuSans-32" x="127.246094"/>
      <use xlink:href="#DejaVuSans-34" x="190.869141"/>
      <use xlink:href="#DejaVuSans-2d" x="254.492188"/>
      <use xlink:href="#DejaVuSans-4a" x="296.201172"/>
      <use xlink:href="#DejaVuSans-75" x="325.693359"/>
      <use xlink:href="#DejaVuSans-6c" x="389.072266"/>
     </g>
    </g>
   </g>
   <g id="matplotlib.axis_2">
    <g id="ytick_1">
     <g id="line2d_17">
      <path d="M 38.31274 248.187822 
L 428.99976 248.187822 
" clip-path="url(#p299424a925)" style="fill: none; stroke: #2a3459; stroke-width: 0.8; stroke-linecap: round"/>
     </g>
     <g id="line2d_18"/>
     <g id="text_10">
      <!-- 0 -->
      <g style="fill: #e6e6e6" transform="translate(28.45024 251.98704) scale(0.1 -0.1)">
       <use xlink:href="#DejaVuSans-30"/>
      </g>
     </g>
    </g>
    <g id="ytick_2">
     <g id="line2d_19">
      <path d="M 38.31274 215.208627 
L 428.99976 215.208627 
" clip-path="url(#p299424a925)" style="fill: none; stroke: #2a3459; stroke-width: 0.8; stroke-linecap: round"/>
     </g>
     <g id="line2d_20"/>
     <g id="text_11">
      <!-- 2000 -->
      <g style="fill: #e6e6e6" transform="translate(9.36274 219.007846) scale(0.1 -0.1)">
       <use xlink:href="#DejaVuSans-32"/>
       <use xlink:href="#DejaVuSans-30" x="63.623047"/>
       <use xlink:href="#DejaVuSans-30" x="127.246094"/>
       <use xlink:href="#DejaVuSans-30" x="190.869141"/>
      </g>
     </g>
    </g>
    <g id="ytick_3">
     <g id="line2d_21">
      <path d="M 38.31274 182.229433 
L 428.99976 182.229433 
" clip-path="url(#p299424a925)" style="fill: none; stroke: #2a3459; stroke-width: 0.8; stroke-linecap: round"/>
     </g>
     <g id="line2d_22"/>
     <g id="text_12">
      <!-- 4000 -->
      <g style="fill: #e6e6e6" transform="translate(9.36274 186.028651) scale(0.1 -0.1)">
       <use xlink:href="#DejaVuSans-34"/>
       <use xlink:href="#DejaVuSans-30" x="63.623047"/>
       <use xlink:href="#DejaVuSans-30" x="127.246094"/>
       <use xlink:href="#DejaVuSans-30" x="190.869141"/>
      </g>
     </g>
    </g>
    <g id="ytick_4">
     <g id="line2d_23">
      <path d="M 38.31274 149.250238 
L 428.99976 149.250238 
" clip-path="url(#p299424a925)" style="fill: none; stroke: #2a3459; stroke-width: 0.8; stroke-linecap: round"/>
     </g>
     <g id="line2d_24"/>
     <g id="text_13">
      <!-- 6000 -->
      <g style="fill: #e6e6e6" transform="translate(9.36274 153.049457) scale(0.1 -0.1)">
       <defs>
        <path id="DejaVuSans-36" d="M 2113 2584 
Q 1688 2584 1439 2293 
Q 1191 2003 1191 1497 
Q 1191 994 1439 701 
Q 1688 409 2113 409 
Q 2538 409 2786 701 
Q 3034 994 3034 1497 
Q 3034 2003 2786 2293 
Q 2538 2584 2113 2584 
z
M 3366 4563 
L 3366 3988 
Q 3128 4100 2886 4159 
Q 2644 4219 2406 4219 
Q 1781 4219 1451 3797 
Q 1122 3375 1075 2522 
Q 1259 2794 1537 2939 
Q 1816 3084 2150 3084 
Q 2853 3084 3261 2657 
Q 3669 2231 3669 1497 
Q 3669 778 3244 343 
Q 2819 -91 2113 -91 
Q 1303 -91 875 529 
Q 447 1150 447 2328 
Q 447 3434 972 4092 
Q 1497 4750 2381 4750 
Q 2619 4750 2861 4703 
Q 3103 4656 3366 4563 
z
" transform="scale(0.015625)"/>
       </defs>
       <use xlink:href="#DejaVuSans-36"/>
       <use xlink:href="#DejaVuSans-30" x="63.623047"/>
       <use xlink:href="#DejaVuSans-30" x="127.246094"/>
       <use xlink:href="#DejaVuSans-30" x="190.869141"/>
      </g>
     </g>
    </g>
    <g id="ytick_5">
     <g id="line2d_25">
      <path d="M 38.31274 116.271044 
L 428.99976 116.271044 
" clip-path="url(#p299424a925)" style="fill: none; stroke: #2a3459; stroke-width: 0.8; stroke-linecap: round"/>
     </g>
     <g id="line2d_26"/>
     <g id="text_14">
      <!-- 8000 -->
      <g style="fill: #e6e6e6" transform="translate(9.36274 120.070262) scale(0.1 -0.1)">
       <defs>
        <path id="DejaVuSans-38" d="M 2034 2216 
Q 1584 2216 1326 1975 
Q 1069 1734 1069 1313 
Q 1069 891 1326 650 
Q 1584 409 2034 409 
Q 2484 409 2743 651 
Q 3003 894 3003 1313 
Q 3003 1734 2745 1975 
Q 2488 2216 2034 2216 
z
M 1403 2484 
Q 997 2584 770 2862 
Q 544 3141 544 3541 
Q 544 4100 942 4425 
Q 1341 4750 2034 4750 
Q 2731 4750 3128 4425 
Q 3525 4100 3525 3541 
Q 3525 3141 3298 2862 
Q 3072 2584 2669 2484 
Q 3125 2378 3379 2068 
Q 3634 1759 3634 1313 
Q 3634 634 3220 271 
Q 2806 -91 2034 -91 
Q 1263 -91 848 271 
Q 434 634 434 1313 
Q 434 1759 690 2068 
Q 947 2378 1403 2484 
z
M 1172 3481 
Q 1172 3119 1398 2916 
Q 1625 2713 2034 2713 
Q 2441 2713 2670 2916 
Q 2900 3119 2900 3481 
Q 2900 3844 2670 4047 
Q 2441 4250 2034 4250 
Q 1625 4250 1398 4047 
Q 1172 3844 1172 3481 
z
" transform="scale(0.015625)"/>
       </defs>
       <use xlink:href="#DejaVuSans-38"/>
       <use xlink:href="#DejaVuSans-30" x="63.623047"/>
       <use xlink:href="#DejaVuSans-30" x="127.246094"/>
       <use xlink:href="#DejaVuSans-30" x="190.869141"/>
      </g>
     </g>
    </g>
    <g id="ytick_6">
     <g id="line2d_27">
      <path d="M 38.31274 83.291849 
L 428.99976 83.291849 
" clip-path="url(#p299424a925)" style="fill: none; stroke: #2a3459; stroke-width: 0.8; stroke-linecap: round"/>
     </g>
     <g id="line2d_28"/>
     <g id="text_15">
      <!-- 10000 -->
      <g style="fill: #e6e6e6" transform="translate(3.00024 87.091068) scale(0.1 -0.1)">
       <use xlink:href="#DejaVuSans-31"/>
       <use xlink:href="#DejaVuSans-30" x="63.623047"/>
       <use xlink:href="#DejaVuSans-30" x="127.246094"/>
       <use xlink:href="#DejaVuSans-30" x="190.869141"/>
       <use xlink:href="#DejaVuSans-30" x="254.492188"/>
      </g>
     </g>
    </g>
    <g id="ytick_7">
     <g id="line2d_29">
      <path d="M 38.31274 50.312655 
L 428.99976 50.312655 
" clip-path="url(#p299424a925)" style="fill: none; stroke: #2a3459; stroke-width: 0.8; stroke-linecap: round"/>
     </g>
     <g id="line2d_30"/>
     <g id="text_16">
      <!-- 12000 -->
      <g style="fill: #e6e6e6" transform="translate(3.00024 54.111873) scale(0.1 -0.1)">
       <use xlink:href="#DejaVuSans-31"/>
       <use xlink:href="#DejaVuSans-32" x="63.623047"/>
       <use xlink:href="#DejaVuSans-30" x="127.246094"/>
       <use xlink:href="#DejaVuSans-30" x="190.869141"/>
       <use xlink:href="#DejaVuSans-30" x="254.492188"/>
      </g>
     </g>
    </g>
   </g>
   <g id="PolyCollection_1">
    <defs>
     <path id="m0e7e8be6f3" d="M 56.071241 -39.812178 
L 56.071241 -146.895623 
L 68.755884 -39.828668 
L 81.440528 -183.387102 
L 94.125171 -86.82402 
L 106.809815 -100.065167 
L 119.494458 -96.206601 
L 132.179102 -126.910231 
L 144.863745 -231.602684 
L 157.548389 -39.894626 
L 170.233032 -258.925947 
L 182.917676 -111.492458 
L 195.602319 -106.182807 
L 208.286963 -102.505627 
L 220.971606 -103.973201 
L 233.65625 -95.052329 
L 246.340894 -105.25939 
L 259.025537 -103.758837 
L 271.710181 -95.299673 
L 284.394824 -99.026322 
L 297.079468 -67.531191 
L 309.764111 -126.56395 
L 322.448755 -98.680041 
L 335.133398 -98.168863 
L 347.818042 -50.827229 
L 360.502685 -141.849806 
L 373.187329 -93.898057 
L 385.871972 -85.851134 
L 398.556616 -73.863197 
L 411.241259 -84.878248 
L 411.241259 -39.812178 
L 411.241259 -39.812178 
L 398.556616 -39.812178 
L 385.871972 -39.812178 
L 373.187329 -39.812178 
L 360.502685 -39.812178 
L 347.818042 -39.812178 
L 335.133398 -39.812178 
L 322.448755 -39.812178 
L 309.764111 -39.812178 
L 297.079468 -39.812178 
L 284.394824 -39.812178 
L 271.710181 -39.812178 
L 259.025537 -39.812178 
L 246.340894 -39.812178 
L 233.65625 -39.812178 
L 220.971606 -39.812178 
L 208.286963 -39.812178 
L 195.602319 -39.812178 
L 182.917676 -39.812178 
L 170.233032 -39.812178 
L 157.548389 -39.812178 
L 144.863745 -39.812178 
L 132.179102 -39.812178 
L 119.494458 -39.812178 
L 106.809815 -39.812178 
L 94.125171 -39.812178 
L 81.440528 -39.812178 
L 68.755884 -39.812178 
L 56.071241 -39.812178 
z
" style="stroke: #08f7fe; stroke-opacity: 0.1"/>
    </defs>
    <g clip-path="url(#p299424a925)">
     <use xlink:href="#m0e7e8be6f3" x="0" y="288" style="fill: #08f7fe; fill-opacity: 0.1; stroke: #08f7fe; stroke-opacity: 0.1"/>
    </g>
   </g>
   <g id="PolyCollection_2">
    <defs>
     <path id="m3c8a7d89e7" d="M 56.071241 -39.812178 
L 56.071241 -39.812178 
L 68.755884 -39.812178 
L 81.440528 -39.812178 
L 94.125171 -39.812178 
L 106.809815 -39.812178 
L 119.494458 -39.812178 
L 132.179102 -39.812178 
L 144.863745 -39.812178 
L 157.548389 -39.812178 
L 170.233032 -39.812178 
L 182.917676 -39.812178 
L 195.602319 -39.812178 
L 208.286963 -39.812178 
L 220.971606 -39.828668 
L 233.65625 -39.812178 
L 246.340894 -39.812178 
L 259.025537 -39.812178 
L 271.710181 -39.812178 
L 284.394824 -39.828668 
L 297.079468 -39.828668 
L 309.764111 -39.812178 
L 322.448755 -39.812178 
L 335.133398 -39.812178 
L 347.818042 -39.812178 
L 360.502685 -39.812178 
L 373.187329 -39.812178 
L 385.871972 -39.828668 
L 398.556616 -39.812178 
L 411.241259 -39.812178 
L 411.241259 -39.812178 
L 411.241259 -39.812178 
L 398.556616 -39.812178 
L 385.871972 -39.812178 
L 373.187329 -39.812178 
L 360.502685 -39.812178 
L 347.818042 -39.812178 
L 335.133398 -39.812178 
L 322.448755 -39.812178 
L 309.764111 -39.812178 
L 297.079468 -39.812178 
L 284.394824 -39.812178 
L 271.710181 -39.812178 
L 259.025537 -39.812178 
L 246.340894 -39.812178 
L 233.65625 -39.812178 
L 220.971606 -39.812178 
L 208.286963 -39.812178 
L 195.602319 -39.812178 
L 182.917676 -39.812178 
L 170.233032 -39.812178 
L 157.548389 -39.812178 
L 144.863745 -39.812178 
L 132.179102 -39.812178 
L 119.494458 -39.812178 
L 106.809815 -39.812178 
L 94.125171 -39.812178 
L 81.440528 -39.812178 
L 68.755884 -39.812178 
L 56.071241 -39.812178 
z
" style="stroke: #fe53bb; stroke-opacity: 0.1"/>
    </defs>
    <g clip-path="url(#p299424a925)">
     <use xlink:href="#m3c8a7d89e7" x="0" y="288" style="fill: #fe53bb; fill-opacity: 0.1; stroke: #fe53bb; stroke-opacity: 0.1"/>
    </g>
   </g>
   <g id="PolyCollection_3">
    <defs>
     <path id="m71c05b7744" d="M 56.071241 -39.812178 
L 56.071241 -39.861647 
L 68.755884 -39.878137 
L 81.440528 -39.878137 
L 94.125171 -39.812178 
L 106.809815 -42.318597 
L 119.494458 -41.80742 
L 132.179102 -45.385662 
L 144.863745 -45.946309 
L 157.548389 -42.252639 
L 170.233032 -41.131346 
L 182.917676 -40.455273 
L 195.602319 -40.55421 
L 208.286963 -40.488252 
L 220.971606 -40.191439 
L 233.65625 -40.240908 
L 246.340894 -40.191439 
L 259.025537 -40.17495 
L 271.710181 -40.108991 
L 284.394824 -40.257398 
L 297.079468 -40.191439 
L 309.764111 -40.14197 
L 322.448755 -40.14197 
L 335.133398 -40.207929 
L 347.818042 -40.240908 
L 360.502685 -40.059522 
L 373.187329 -40.026543 
L 385.871972 -40.059522 
L 398.556616 -40.092502 
L 411.241259 -39.960585 
L 411.241259 -39.812178 
L 411.241259 -39.812178 
L 398.556616 -39.812178 
L 385.871972 -39.812178 
L 373.187329 -39.812178 
L 360.502685 -39.812178 
L 347.818042 -39.812178 
L 335.133398 -39.812178 
L 322.448755 -39.812178 
L 309.764111 -39.812178 
L 297.079468 -39.812178 
L 284.394824 -39.812178 
L 271.710181 -39.812178 
L 259.025537 -39.812178 
L 246.340894 -39.812178 
L 233.65625 -39.812178 
L 220.971606 -39.812178 
L 208.286963 -39.812178 
L 195.602319 -39.812178 
L 182.917676 -39.812178 
L 170.233032 -39.812178 
L 157.548389 -39.812178 
L 144.863745 -39.812178 
L 132.179102 -39.812178 
L 119.494458 -39.812178 
L 106.809815 -39.812178 
L 94.125171 -39.812178 
L 81.440528 -39.812178 
L 68.755884 -39.812178 
L 56.071241 -39.812178 
z
" style="stroke: #f5d300; stroke-opacity: 0.1"/>
    </defs>
    <g clip-path="url(#p299424a925)">
     <use xlink:href="#m71c05b7744" x="0" y="288" style="fill: #f5d300; fill-opacity: 0.1; stroke: #f5d300; stroke-opacity: 0.1"/>
    </g>
   </g>
   <g id="PolyCollection_4">
    <defs>
     <path id="m6a2d874349" d="M 56.071241 -39.812178 
L 56.071241 -39.812178 
L 68.755884 -39.812178 
L 81.440528 -39.828668 
L 94.125171 -45.171298 
L 106.809815 -43.340952 
L 119.494458 -41.015919 
L 132.179102 -45.4846 
L 144.863745 -66.096596 
L 157.548389 -39.845158 
L 170.233032 -54.306534 
L 182.917676 -42.730837 
L 195.602319 -41.955826 
L 208.286963 -41.939336 
L 220.971606 -41.955826 
L 233.65625 -41.477628 
L 246.340894 -41.626034 
L 259.025537 -41.477628 
L 271.710181 -40.768575 
L 284.394824 -41.296242 
L 297.079468 -40.356335 
L 309.764111 -41.543586 
L 322.448755 -41.065388 
L 335.133398 -41.246773 
L 347.818042 -39.911116 
L 360.502685 -41.757951 
L 373.187329 -40.686127 
L 385.871972 -40.504741 
L 398.556616 -40.290377 
L 411.241259 -40.521231 
L 411.241259 -39.812178 
L 411.241259 -39.812178 
L 398.556616 -39.812178 
L 385.871972 -39.812178 
L 373.187329 -39.812178 
L 360.502685 -39.812178 
L 347.818042 -39.812178 
L 335.133398 -39.812178 
L 322.448755 -39.812178 
L 309.764111 -39.812178 
L 297.079468 -39.812178 
L 284.394824 -39.812178 
L 271.710181 -39.812178 
L 259.025537 -39.812178 
L 246.340894 -39.812178 
L 233.65625 -39.812178 
L 220.971606 -39.812178 
L 208.286963 -39.812178 
L 195.602319 -39.812178 
L 182.917676 -39.812178 
L 170.233032 -39.812178 
L 157.548389 -39.812178 
L 144.863745 -39.812178 
L 132.179102 -39.812178 
L 119.494458 -39.812178 
L 106.809815 -39.812178 
L 94.125171 -39.812178 
L 81.440528 -39.812178 
L 68.755884 -39.812178 
L 56.071241 -39.812178 
z
" style="stroke: #00ff41; stroke-opacity: 0.1"/>
    </defs>
    <g clip-path="url(#p299424a925)">
     <use xlink:href="#m6a2d874349" x="0" y="288" style="fill: #00ff41; fill-opacity: 0.1; stroke: #00ff41; stroke-opacity: 0.1"/>
    </g>
   </g>
   <g id="line2d_31">
    <path d="M 56.071241 141.104377 
L 68.755884 248.171332 
L 81.440528 104.612898 
L 94.125171 201.17598 
L 106.809815 187.934833 
L 119.494458 191.793399 
L 132.179102 161.089769 
L 144.863745 56.397316 
L 157.548389 248.105374 
L 170.233032 29.074053 
L 182.917676 176.507542 
L 195.602319 181.817193 
L 208.286963 185.494373 
L 220.971606 184.026799 
L 233.65625 192.947671 
L 246.340894 182.74061 
L 259.025537 184.241163 
L 271.710181 192.700327 
L 284.394824 188.973678 
L 297.079468 220.468809 
L 309.764111 161.43605 
L 322.448755 189.319959 
L 335.133398 189.831137 
L 347.818042 237.172771 
L 360.502685 146.150194 
L 373.187329 194.101943 
L 385.871972 202.148866 
L 398.556616 214.136803 
L 411.241259 203.121752 
" clip-path="url(#p299424a925)" style="fill: none; stroke: #08f7fe; stroke-width: 1.5; stroke-linecap: round"/>
   </g>
   <g id="line2d_32">
    <path d="M 56.071241 248.187822 
L 68.755884 248.187822 
L 81.440528 248.187822 
L 94.125171 248.187822 
L 106.809815 248.187822 
L 119.494458 248.187822 
L 132.179102 248.187822 
L 144.863745 248.187822 
L 157.548389 248.187822 
L 170.233032 248.187822 
L 182.917676 248.187822 
L 195.602319 248.187822 
L 208.286963 248.187822 
L 220.971606 248.171332 
L 233.65625 248.187822 
L 246.340894 248.187822 
L 259.025537 248.187822 
L 271.710181 248.187822 
L 284.394824 248.171332 
L 297.079468 248.171332 
L 309.764111 248.187822 
L 322.448755 248.187822 
L 335.133398 248.187822 
L 347.818042 248.187822 
L 360.502685 248.187822 
L 373.187329 248.187822 
L 385.871972 248.171332 
L 398.556616 248.187822 
L 411.241259 248.187822 
" clip-path="url(#p299424a925)" style="fill: none; stroke: #fe53bb; stroke-width: 1.5; stroke-linecap: round"/>
   </g>
   <g id="line2d_33">
    <path d="M 56.071241 248.138353 
L 68.755884 248.121863 
L 81.440528 248.121863 
L 94.125171 248.187822 
L 106.809815 245.681403 
L 119.494458 246.19258 
L 132.179102 242.614338 
L 144.863745 242.053691 
L 157.548389 245.747361 
L 170.233032 246.868654 
L 182.917676 247.544727 
L 195.602319 247.44579 
L 208.286963 247.511748 
L 220.971606 247.808561 
L 233.65625 247.759092 
L 246.340894 247.808561 
L 259.025537 247.82505 
L 271.710181 247.891009 
L 284.394824 247.742602 
L 297.079468 247.808561 
L 309.764111 247.85803 
L 322.448755 247.85803 
L 335.133398 247.792071 
L 347.818042 247.759092 
L 360.502685 247.940478 
L 373.187329 247.973457 
L 385.871972 247.940478 
L 398.556616 247.907498 
L 411.241259 248.039415 
" clip-path="url(#p299424a925)" style="fill: none; stroke: #f5d300; stroke-width: 1.5; stroke-linecap: round"/>
   </g>
   <g id="line2d_34">
    <path d="M 56.071241 248.187822 
L 68.755884 248.187822 
L 81.440528 248.171332 
L 94.125171 242.828702 
L 106.809815 244.659048 
L 119.494458 246.984081 
L 132.179102 242.5154 
L 144.863745 221.903404 
L 157.548389 248.154842 
L 170.233032 233.693466 
L 182.917676 245.269163 
L 195.602319 246.044174 
L 208.286963 246.060664 
L 220.971606 246.044174 
L 233.65625 246.522372 
L 246.340894 246.373966 
L 259.025537 246.522372 
L 271.710181 247.231425 
L 284.394824 246.703758 
L 297.079468 247.643665 
L 309.764111 246.456414 
L 322.448755 246.934612 
L 335.133398 246.753227 
L 347.818042 248.088884 
L 360.502685 246.242049 
L 373.187329 247.313873 
L 385.871972 247.495259 
L 398.556616 247.709623 
L 411.241259 247.478769 
" clip-path="url(#p299424a925)" style="fill: none; stroke: #00ff41; stroke-width: 1.5; stroke-linecap: round"/>
   </g>
   <g id="patch_3">
    <path d="M 38.31274 259.14351 
L 38.31274 18.118365 
" style="fill: none"/>
   </g>
   <g id="patch_4">
    <path d="M 428.99976 259.14351 
L 428.99976 18.118365 
" style="fill: none"/>
   </g>
   <g id="patch_5">
    <path d="M 38.31274 259.14351 
L 428.99976 259.14351 
" style="fill: none"/>
   </g>
   <g id="patch_6">
    <path d="M 38.31274 18.118365 
L 428.99976 18.118365 
" style="fill: none"/>
   </g>
   <g id="text_17">
    <!-- Daily Download Count -->
    <g style="fill: #e6e6e6" transform="translate(167.017812 12.118365) scale(0.12 -0.12)">
     <defs>
      <path id="DejaVuSans-44" d="M 1259 4147 
L 1259 519 
L 2022 519 
Q 2988 519 3436 956 
Q 3884 1394 3884 2338 
Q 3884 3275 3436 3711 
Q 2988 4147 2022 4147 
L 1259 4147 
z
M 628 4666 
L 1925 4666 
Q 3281 4666 3915 4102 
Q 4550 3538 4550 2338 
Q 4550 1131 3912 565 
Q 3275 0 1925 0 
L 628 0 
L 628 4666 
z
" transform="scale(0.015625)"/>
      <path id="DejaVuSans-61" d="M 2194 1759 
Q 1497 1759 1228 1600 
Q 959 1441 959 1056 
Q 959 750 1161 570 
Q 1363 391 1709 391 
Q 2188 391 2477 730 
Q 2766 1069 2766 1631 
L 2766 1759 
L 2194 1759 
z
M 3341 1997 
L 3341 0 
L 2766 0 
L 2766 531 
Q 2569 213 2275 61 
Q 1981 -91 1556 -91 
Q 1019 -91 701 211 
Q 384 513 384 1019 
Q 384 1609 779 1909 
Q 1175 2209 1959 2209 
L 2766 2209 
L 2766 2266 
Q 2766 2663 2505 2880 
Q 2244 3097 1772 3097 
Q 1472 3097 1187 3025 
Q 903 2953 641 2809 
L 641 3341 
Q 956 3463 1253 3523 
Q 1550 3584 1831 3584 
Q 2591 3584 2966 3190 
Q 3341 2797 3341 1997 
z
" transform="scale(0.015625)"/>
      <path id="DejaVuSans-69" d="M 603 3500 
L 1178 3500 
L 1178 0 
L 603 0 
L 603 3500 
z
M 603 4863 
L 1178 4863 
L 1178 4134 
L 603 4134 
L 603 4863 
z
" transform="scale(0.015625)"/>
      <path id="DejaVuSans-79" d="M 2059 -325 
Q 1816 -950 1584 -1140 
Q 1353 -1331 966 -1331 
L 506 -1331 
L 506 -850 
L 844 -850 
Q 1081 -850 1212 -737 
Q 1344 -625 1503 -206 
L 1606 56 
L 191 3500 
L 800 3500 
L 1894 763 
L 2988 3500 
L 3597 3500 
L 2059 -325 
z
" transform="scale(0.015625)"/>
      <path id="DejaVuSans-20" transform="scale(0.015625)"/>
      <path id="DejaVuSans-6f" d="M 1959 3097 
Q 1497 3097 1228 2736 
Q 959 2375 959 1747 
Q 959 1119 1226 758 
Q 1494 397 1959 397 
Q 2419 397 2687 759 
Q 2956 1122 2956 1747 
Q 2956 2369 2687 2733 
Q 2419 3097 1959 3097 
z
M 1959 3584 
Q 2709 3584 3137 3096 
Q 3566 2609 3566 1747 
Q 3566 888 3137 398 
Q 2709 -91 1959 -91 
Q 1206 -91 779 398 
Q 353 888 353 1747 
Q 353 2609 779 3096 
Q 1206 3584 1959 3584 
z
" transform="scale(0.015625)"/>
      <path id="DejaVuSans-77" d="M 269 3500 
L 844 3500 
L 1563 769 
L 2278 3500 
L 2956 3500 
L 3675 769 
L 4391 3500 
L 4966 3500 
L 4050 0 
L 3372 0 
L 2619 2869 
L 1863 0 
L 1184 0 
L 269 3500 
z
" transform="scale(0.015625)"/>
      <path id="DejaVuSans-6e" d="M 3513 2113 
L 3513 0 
L 2938 0 
L 2938 2094 
Q 2938 2591 2744 2837 
Q 2550 3084 2163 3084 
Q 1697 3084 1428 2787 
Q 1159 2491 1159 1978 
L 1159 0 
L 581 0 
L 581 3500 
L 1159 3500 
L 1159 2956 
Q 1366 3272 1645 3428 
Q 1925 3584 2291 3584 
Q 2894 3584 3203 3211 
Q 3513 2838 3513 2113 
z
" transform="scale(0.015625)"/>
      <path id="DejaVuSans-64" d="M 2906 2969 
L 2906 4863 
L 3481 4863 
L 3481 0 
L 2906 0 
L 2906 525 
Q 2725 213 2448 61 
Q 2172 -91 1784 -91 
Q 1150 -91 751 415 
Q 353 922 353 1747 
Q 353 2572 751 3078 
Q 1150 3584 1784 3584 
Q 2172 3584 2448 3432 
Q 2725 3281 2906 2969 
z
M 947 1747 
Q 947 1113 1208 752 
Q 1469 391 1925 391 
Q 2381 391 2643 752 
Q 2906 1113 2906 1747 
Q 2906 2381 2643 2742 
Q 2381 3103 1925 3103 
Q 1469 3103 1208 2742 
Q 947 2381 947 1747 
z
" transform="scale(0.015625)"/>
      <path id="DejaVuSans-43" d="M 4122 4306 
L 4122 3641 
Q 3803 3938 3442 4084 
Q 3081 4231 2675 4231 
Q 1875 4231 1450 3742 
Q 1025 3253 1025 2328 
Q 1025 1406 1450 917 
Q 1875 428 2675 428 
Q 3081 428 3442 575 
Q 3803 722 4122 1019 
L 4122 359 
Q 3791 134 3420 21 
Q 3050 -91 2638 -91 
Q 1578 -91 968 557 
Q 359 1206 359 2328 
Q 359 3453 968 4101 
Q 1578 4750 2638 4750 
Q 3056 4750 3426 4639 
Q 3797 4528 4122 4306 
z
" transform="scale(0.015625)"/>
      <path id="DejaVuSans-74" d="M 1172 4494 
L 1172 3500 
L 2356 3500 
L 2356 3053 
L 1172 3053 
L 1172 1153 
Q 1172 725 1289 603 
Q 1406 481 1766 481 
L 2356 481 
L 2356 0 
L 1766 0 
Q 1100 0 847 248 
Q 594 497 594 1153 
L 594 3053 
L 172 3053 
L 172 3500 
L 594 3500 
L 594 4494 
L 1172 4494 
z
" transform="scale(0.015625)"/>
     </defs>
     <use xlink:href="#DejaVuSans-44"/>
     <use xlink:href="#DejaVuSans-61" x="77.001953"/>
     <use xlink:href="#DejaVuSans-69" x="138.28125"/>
     <use xlink:href="#DejaVuSans-6c" x="166.064453"/>
     <use xlink:href="#DejaVuSans-79" x="193.847656"/>
     <use xlink:href="#DejaVuSans-20" x="253.027344"/>
     <use xlink:href="#DejaVuSans-44" x="284.814453"/>
     <use xlink:href="#DejaVuSans-6f" x="361.816406"/>
     <use xlink:href="#DejaVuSans-77" x="422.998047"/>
     <use xlink:href="#DejaVuSans-6e" x="504.785156"/>
     <use xlink:href="#DejaVuSans-6c" x="568.164062"/>
     <use xlink:href="#DejaVuSans-6f" x="595.947266"/>
     <use xlink:href="#DejaVuSans-61" x="657.128906"/>
     <use xlink:href="#DejaVuSans-64" x="718.408203"/>
     <use xlink:href="#DejaVuSans-20" x="781.884766"/>
     <use xlink:href="#DejaVuSans-43" x="813.671875"/>
     <use xlink:href="#DejaVuSans-6f" x="883.496094"/>
     <use xlink:href="#DejaVuSans-75" x="944.677734"/>
     <use xlink:href="#DejaVuSans-6e" x="1008.056641"/>
     <use xlink:href="#DejaVuSans-74" x="1071.435547"/>
    </g>
   </g>
   <g id="legend_1">
    <g id="line2d_35">
     <path d="M 282.498198 31.216802 
L 292.498198 31.216802 
L 302.498198 31.216802 
" style="fill: none; stroke: #08f7fe; stroke-width: 1.5; stroke-linecap: round"/>
    </g>
    <g id="text_18">
     <!-- Craftimizer -->
     <g style="fill: #e6e6e6" transform="translate(310.498198 34.716802) scale(0.1 -0.1)">
      <defs>
       <path id="DejaVuSans-72" d="M 2631 2963 
Q 2534 3019 2420 3045 
Q 2306 3072 2169 3072 
Q 1681 3072 1420 2755 
Q 1159 2438 1159 1844 
L 1159 0 
L 581 0 
L 581 3500 
L 1159 3500 
L 1159 2956 
Q 1341 3275 1631 3429 
Q 1922 3584 2338 3584 
Q 2397 3584 2469 3576 
Q 2541 3569 2628 3553 
L 2631 2963 
z
" transform="scale(0.015625)"/>
       <path id="DejaVuSans-66" d="M 2375 4863 
L 2375 4384 
L 1825 4384 
Q 1516 4384 1395 4259 
Q 1275 4134 1275 3809 
L 1275 3500 
L 2222 3500 
L 2222 3053 
L 1275 3053 
L 1275 0 
L 697 0 
L 697 3053 
L 147 3053 
L 147 3500 
L 697 3500 
L 697 3744 
Q 697 4328 969 4595 
Q 1241 4863 1831 4863 
L 2375 4863 
z
" transform="scale(0.015625)"/>
       <path id="DejaVuSans-6d" d="M 3328 2828 
Q 3544 3216 3844 3400 
Q 4144 3584 4550 3584 
Q 5097 3584 5394 3201 
Q 5691 2819 5691 2113 
L 5691 0 
L 5113 0 
L 5113 2094 
Q 5113 2597 4934 2840 
Q 4756 3084 4391 3084 
Q 3944 3084 3684 2787 
Q 3425 2491 3425 1978 
L 3425 0 
L 2847 0 
L 2847 2094 
Q 2847 2600 2669 2842 
Q 2491 3084 2119 3084 
Q 1678 3084 1418 2786 
Q 1159 2488 1159 1978 
L 1159 0 
L 581 0 
L 581 3500 
L 1159 3500 
L 1159 2956 
Q 1356 3278 1631 3431 
Q 1906 3584 2284 3584 
Q 2666 3584 2933 3390 
Q 3200 3197 3328 2828 
z
" transform="scale(0.015625)"/>
       <path id="DejaVuSans-7a" d="M 353 3500 
L 3084 3500 
L 3084 2975 
L 922 459 
L 3084 459 
L 3084 0 
L 275 0 
L 275 525 
L 2438 3041 
L 353 3041 
L 353 3500 
z
" transform="scale(0.015625)"/>
       <path id="DejaVuSans-65" d="M 3597 1894 
L 3597 1613 
L 953 1613 
Q 991 1019 1311 708 
Q 1631 397 2203 397 
Q 2534 397 2845 478 
Q 3156 559 3463 722 
L 3463 178 
Q 3153 47 2828 -22 
Q 2503 -91 2169 -91 
Q 1331 -91 842 396 
Q 353 884 353 1716 
Q 353 2575 817 3079 
Q 1281 3584 2069 3584 
Q 2775 3584 3186 3129 
Q 3597 2675 3597 1894 
z
M 3022 2063 
Q 3016 2534 2758 2815 
Q 2500 3097 2075 3097 
Q 1594 3097 1305 2825 
Q 1016 2553 972 2059 
L 3022 2063 
z
" transform="scale(0.015625)"/>
      </defs>
      <use xlink:href="#DejaVuSans-43"/>
      <use xlink:href="#DejaVuSans-72" x="69.824219"/>
      <use xlink:href="#DejaVuSans-61" x="110.9375"/>
      <use xlink:href="#DejaVuSans-66" x="172.216797"/>
      <use xlink:href="#DejaVuSans-74" x="205.671875"/>
      <use xlink:href="#DejaVuSans-69" x="244.880859"/>
      <use xlink:href="#DejaVuSans-6d" x="272.664062"/>
      <use xlink:href="#DejaVuSans-69" x="370.076172"/>
      <use xlink:href="#DejaVuSans-7a" x="397.859375"/>
      <use xlink:href="#DejaVuSans-65" x="450.349609"/>
      <use xlink:href="#DejaVuSans-72" x="511.873047"/>
     </g>
    </g>
    <g id="line2d_36">
     <path d="M 282.498198 45.894927 
L 292.498198 45.894927 
L 302.498198 45.894927 
" style="fill: none; stroke: #fe53bb; stroke-width: 1.5; stroke-linecap: round"/>
    </g>
    <g id="text_19">
     <!-- ItemIcons -->
     <g style="fill: #e6e6e6" transform="translate(310.498198 49.394927) scale(0.1 -0.1)">
      <defs>
       <path id="DejaVuSans-49" d="M 628 4666 
L 1259 4666 
L 1259 0 
L 628 0 
L 628 4666 
z
" transform="scale(0.015625)"/>
       <path id="DejaVuSans-63" d="M 3122 3366 
L 3122 2828 
Q 2878 2963 2633 3030 
Q 2388 3097 2138 3097 
Q 1578 3097 1268 2742 
Q 959 2388 959 1747 
Q 959 1106 1268 751 
Q 1578 397 2138 397 
Q 2388 397 2633 464 
Q 2878 531 3122 666 
L 3122 134 
Q 2881 22 2623 -34 
Q 2366 -91 2075 -91 
Q 1284 -91 818 406 
Q 353 903 353 1747 
Q 353 2603 823 3093 
Q 1294 3584 2113 3584 
Q 2378 3584 2631 3529 
Q 2884 3475 3122 3366 
z
" transform="scale(0.015625)"/>
       <path id="DejaVuSans-73" d="M 2834 3397 
L 2834 2853 
Q 2591 2978 2328 3040 
Q 2066 3103 1784 3103 
Q 1356 3103 1142 2972 
Q 928 2841 928 2578 
Q 928 2378 1081 2264 
Q 1234 2150 1697 2047 
L 1894 2003 
Q 2506 1872 2764 1633 
Q 3022 1394 3022 966 
Q 3022 478 2636 193 
Q 2250 -91 1575 -91 
Q 1294 -91 989 -36 
Q 684 19 347 128 
L 347 722 
Q 666 556 975 473 
Q 1284 391 1588 391 
Q 1994 391 2212 530 
Q 2431 669 2431 922 
Q 2431 1156 2273 1281 
Q 2116 1406 1581 1522 
L 1381 1569 
Q 847 1681 609 1914 
Q 372 2147 372 2553 
Q 372 3047 722 3315 
Q 1072 3584 1716 3584 
Q 2034 3584 2315 3537 
Q 2597 3491 2834 3397 
z
" transform="scale(0.015625)"/>
      </defs>
      <use xlink:href="#DejaVuSans-49"/>
      <use xlink:href="#DejaVuSans-74" x="29.492188"/>
      <use xlink:href="#DejaVuSans-65" x="68.701172"/>
      <use xlink:href="#DejaVuSans-6d" x="130.224609"/>
      <use xlink:href="#DejaVuSans-49" x="227.636719"/>
      <use xlink:href="#DejaVuSans-63" x="257.128906"/>
      <use xlink:href="#DejaVuSans-6f" x="312.109375"/>
      <use xlink:href="#DejaVuSans-6e" x="373.291016"/>
      <use xlink:href="#DejaVuSans-73" x="436.669922"/>
     </g>
    </g>
    <g id="line2d_37">
     <path d="M 282.498198 60.573052 
L 292.498198 60.573052 
L 302.498198 60.573052 
" style="fill: none; stroke: #f5d300; stroke-width: 1.5; stroke-linecap: round"/>
    </g>
    <g id="text_20">
     <!-- SomethingNeedDoing -->
     <g style="fill: #e6e6e6" transform="translate(310.498198 64.073052) scale(0.1 -0.1)">
      <defs>
       <path id="DejaVuSans-53" d="M 3425 4513 
L 3425 3897 
Q 3066 4069 2747 4153 
Q 2428 4238 2131 4238 
Q 1616 4238 1336 4038 
Q 1056 3838 1056 3469 
Q 1056 3159 1242 3001 
Q 1428 2844 1947 2747 
L 2328 2669 
Q 3034 2534 3370 2195 
Q 3706 1856 3706 1288 
Q 3706 609 3251 259 
Q 2797 -91 1919 -91 
Q 1588 -91 1214 -16 
Q 841 59 441 206 
L 441 856 
Q 825 641 1194 531 
Q 1563 422 1919 422 
Q 2459 422 2753 634 
Q 3047 847 3047 1241 
Q 3047 1584 2836 1778 
Q 2625 1972 2144 2069 
L 1759 2144 
Q 1053 2284 737 2584 
Q 422 2884 422 3419 
Q 422 4038 858 4394 
Q 1294 4750 2059 4750 
Q 2388 4750 2728 4690 
Q 3069 4631 3425 4513 
z
" transform="scale(0.015625)"/>
       <path id="DejaVuSans-68" d="M 3513 2113 
L 3513 0 
L 2938 0 
L 2938 2094 
Q 2938 2591 2744 2837 
Q 2550 3084 2163 3084 
Q 1697 3084 1428 2787 
Q 1159 2491 1159 1978 
L 1159 0 
L 581 0 
L 581 4863 
L 1159 4863 
L 1159 2956 
Q 1366 3272 1645 3428 
Q 1925 3584 2291 3584 
Q 2894 3584 3203 3211 
Q 3513 2838 3513 2113 
z
" transform="scale(0.015625)"/>
       <path id="DejaVuSans-67" d="M 2906 1791 
Q 2906 2416 2648 2759 
Q 2391 3103 1925 3103 
Q 1463 3103 1205 2759 
Q 947 2416 947 1791 
Q 947 1169 1205 825 
Q 1463 481 1925 481 
Q 2391 481 2648 825 
Q 2906 1169 2906 1791 
z
M 3481 434 
Q 3481 -459 3084 -895 
Q 2688 -1331 1869 -1331 
Q 1566 -1331 1297 -1286 
Q 1028 -1241 775 -1147 
L 775 -588 
Q 1028 -725 1275 -790 
Q 1522 -856 1778 -856 
Q 2344 -856 2625 -561 
Q 2906 -266 2906 331 
L 2906 616 
Q 2728 306 2450 153 
Q 2172 0 1784 0 
Q 1141 0 747 490 
Q 353 981 353 1791 
Q 353 2603 747 3093 
Q 1141 3584 1784 3584 
Q 2172 3584 2450 3431 
Q 2728 3278 2906 2969 
L 2906 3500 
L 3481 3500 
L 3481 434 
z
" transform="scale(0.015625)"/>
       <path id="DejaVuSans-4e" d="M 628 4666 
L 1478 4666 
L 3547 763 
L 3547 4666 
L 4159 4666 
L 4159 0 
L 3309 0 
L 1241 3903 
L 1241 0 
L 628 0 
L 628 4666 
z
" transform="scale(0.015625)"/>
      </defs>
      <use xlink:href="#DejaVuSans-53"/>
      <use xlink:href="#DejaVuSans-6f" x="63.476562"/>
      <use xlink:href="#DejaVuSans-6d" x="124.658203"/>
      <use xlink:href="#DejaVuSans-65" x="222.070312"/>
      <use xlink:href="#DejaVuSans-74" x="283.59375"/>
      <use xlink:href="#DejaVuSans-68" x="322.802734"/>
      <use xlink:href="#DejaVuSans-69" x="386.181641"/>
      <use xlink:href="#DejaVuSans-6e" x="413.964844"/>
      <use xlink:href="#DejaVuSans-67" x="477.34375"/>
      <use xlink:href="#DejaVuSans-4e" x="540.820312"/>
      <use xlink:href="#DejaVuSans-65" x="615.625"/>
      <use xlink:href="#DejaVuSans-65" x="677.148438"/>
      <use xlink:href="#DejaVuSans-64" x="738.671875"/>
      <use xlink:href="#DejaVuSans-44" x="802.148438"/>
      <use xlink:href="#DejaVuSans-6f" x="879.150391"/>
      <use xlink:href="#DejaVuSans-69" x="940.332031"/>
      <use xlink:href="#DejaVuSans-6e" x="968.115234"/>
      <use xlink:href="#DejaVuSans-67" x="1031.494141"/>
     </g>
    </g>
    <g id="line2d_38">
     <path d="M 282.498198 75.251177 
L 292.498198 75.251177 
L 302.498198 75.251177 
" style="fill: none; stroke: #00ff41; stroke-width: 1.5; stroke-linecap: round"/>
    </g>
    <g id="text_21">
     <!-- Waitingway.Dalamud -->
     <g style="fill: #e6e6e6" transform="translate(310.498198 78.751177) scale(0.1 -0.1)">
      <defs>
       <path id="DejaVuSans-57" d="M 213 4666 
L 850 4666 
L 1831 722 
L 2809 4666 
L 3519 4666 
L 4500 722 
L 5478 4666 
L 6119 4666 
L 4947 0 
L 4153 0 
L 3169 4050 
L 2175 0 
L 1381 0 
L 213 4666 
z
" transform="scale(0.015625)"/>
       <path id="DejaVuSans-2e" d="M 684 794 
L 1344 794 
L 1344 0 
L 684 0 
L 684 794 
z
" transform="scale(0.015625)"/>
      </defs>
      <use xlink:href="#DejaVuSans-57"/>
      <use xlink:href="#DejaVuSans-61" x="92.501953"/>
      <use xlink:href="#DejaVuSans-69" x="153.78125"/>
      <use xlink:href="#DejaVuSans-74" x="181.564453"/>
      <use xlink:href="#DejaVuSans-69" x="220.773438"/>
      <use xlink:href="#DejaVuSans-6e" x="248.556641"/>
      <use xlink:href="#DejaVuSans-67" x="311.935547"/>
      <use xlink:href="#DejaVuSans-77" x="375.412109"/>
      <use xlink:href="#DejaVuSans-61" x="457.199219"/>
      <use xlink:href="#DejaVuSans-79" x="518.478516"/>
      <use xlink:href="#DejaVuSans-2e" x="563.408203"/>
      <use xlink:href="#DejaVuSans-44" x="595.195312"/>
      <use xlink:href="#DejaVuSans-61" x="672.197266"/>
      <use xlink:href="#DejaVuSans-6c" x="733.476562"/>
      <use xlink:href="#DejaVuSans-61" x="761.259766"/>
      <use xlink:href="#DejaVuSans-6d" x="822.539062"/>
      <use xlink:href="#DejaVuSans-75" x="919.951172"/>
      <use xlink:href="#DejaVuSans-64" x="983.330078"/>
     </g>
    </g>
   </g>
  </g>
 </g>
 <defs>
  <clipPath id="p299424a925">
   <rect x="38.31274" y="18.118365" width="390.68702" height="241.025145"/>
  </clipPath>
 </defs>
</svg>
