<?xml version="1.0" encoding="utf-8" standalone="no"?>
<!DOCTYPE svg PUBLIC "-//W3C//DTD SVG 1.1//EN"
  "http://www.w3.org/Graphics/SVG/1.1/DTD/svg11.dtd">
<svg xmlns:xlink="http://www.w3.org/1999/xlink" width="432pt" height="288pt" viewBox="0 0 432 288" xmlns="http://www.w3.org/2000/svg" version="1.1">
 <metadata>
  <rdf:RDF xmlns:dc="http://purl.org/dc/elements/1.1/" xmlns:cc="http://creativecommons.org/ns#" xmlns:rdf="http://www.w3.org/1999/02/22-rdf-syntax-ns#">
   <cc:Work>
    <dc:type rdf:resource="http://purl.org/dc/dcmitype/StillImage"/>
    <dc:format>image/svg+xml</dc:format>
    <dc:creator>
     <cc:Agent>
      <dc:title>Matplotlib v3.8.4, https://matplotlib.org/</dc:title>
     </cc:Agent>
    </dc:creator>
   </cc:Work>
  </rdf:RDF>
 </metadata>
 <defs>
  <style type="text/css">*{stroke-linejoin: round; stroke-linecap: butt}</style>
 </defs>
 <g id="figure_1">
  <g id="patch_1">
   <path d="M 0 288 
L 432 288 
L 432 0 
L 0 0 
z
" style="fill: #212946"/>
  </g>
  <g id="axes_1">
   <g id="patch_2">
    <path d="M 34.304927 259.85601 
L 428.99976 259.85601 
L 428.99976 17.69649 
L 34.304927 17.69649 
z
" style="fill: #212946"/>
   </g>
   <g id="matplotlib.axis_1">
    <g id="xtick_1">
     <g id="line2d_1">
      <path d="M 52.245602 259.85601 
L 52.245602 17.69649 
" clip-path="url(#pd3e5d4574e)" style="fill: none; stroke: #2a3459; stroke-width: 0.8; stroke-linecap: round"/>
     </g>
     <g id="line2d_2"/>
     <g id="text_1">
      <!-- 17 -->
      <g style="fill: #e6e6e6" transform="translate(46.684664 270.602885) scale(0.1 -0.1)">
       <defs>
        <path id="LiberationSans-31" d="M 488 0 
L 488 478 
L 1609 478 
L 1609 3866 
L 616 3156 
L 616 3688 
L 1656 4403 
L 2175 4403 
L 2175 478 
L 3247 478 
L 3247 0 
L 488 0 
z
" transform="scale(0.015625)"/>
        <path id="LiberationSans-37" d="M 3238 3947 
Q 2906 3441 2628 2973 
Q 2350 2506 2150 2032 
Q 1950 1559 1839 1061 
Q 1728 563 1728 0 
L 1141 0 
Q 1141 528 1266 1036 
Q 1391 1544 1603 2033 
Q 1816 2522 2097 2994 
Q 2378 3466 2694 3925 
L 328 3925 
L 328 4403 
L 3238 4403 
L 3238 3947 
z
" transform="scale(0.015625)"/>
       </defs>
       <use xlink:href="#LiberationSans-31"/>
       <use xlink:href="#LiberationSans-37" x="55.615234"/>
      </g>
     </g>
    </g>
    <g id="xtick_2">
     <g id="line2d_3">
      <path d="M 98.544116 259.85601 
L 98.544116 17.69649 
" clip-path="url(#pd3e5d4574e)" style="fill: none; stroke: #2a3459; stroke-width: 0.8; stroke-linecap: round"/>
     </g>
     <g id="line2d_4"/>
     <g id="text_2">
      <!-- 21 -->
      <g style="fill: #e6e6e6" transform="translate(92.983178 270.602885) scale(0.1 -0.1)">
       <defs>
        <path id="LiberationSans-32" d="M 322 0 
L 322 397 
Q 481 763 711 1042 
Q 941 1322 1194 1548 
Q 1447 1775 1695 1969 
Q 1944 2163 2144 2356 
Q 2344 2550 2467 2762 
Q 2591 2975 2591 3244 
Q 2591 3431 2534 3573 
Q 2478 3716 2372 3812 
Q 2266 3909 2117 3957 
Q 1969 4006 1788 4006 
Q 1619 4006 1470 3959 
Q 1322 3913 1206 3819 
Q 1091 3725 1017 3586 
Q 944 3447 922 3263 
L 347 3316 
Q 375 3553 478 3762 
Q 581 3972 762 4130 
Q 944 4288 1198 4378 
Q 1453 4469 1788 4469 
Q 2116 4469 2372 4391 
Q 2628 4313 2804 4159 
Q 2981 4006 3075 3781 
Q 3169 3556 3169 3263 
Q 3169 3041 3089 2841 
Q 3009 2641 2876 2459 
Q 2744 2278 2569 2109 
Q 2394 1941 2203 1780 
Q 2013 1619 1819 1461 
Q 1625 1303 1454 1143 
Q 1284 984 1150 820 
Q 1016 656 941 478 
L 3238 478 
L 3238 0 
L 322 0 
z
" transform="scale(0.015625)"/>
       </defs>
       <use xlink:href="#LiberationSans-32"/>
       <use xlink:href="#LiberationSans-31" x="55.615234"/>
      </g>
     </g>
    </g>
    <g id="xtick_3">
     <g id="line2d_5">
      <path d="M 144.84263 259.85601 
L 144.84263 17.69649 
" clip-path="url(#pd3e5d4574e)" style="fill: none; stroke: #2a3459; stroke-width: 0.8; stroke-linecap: round"/>
     </g>
     <g id="line2d_6"/>
     <g id="text_3">
      <!-- 25 -->
      <g style="fill: #e6e6e6" transform="translate(139.281692 270.602885) scale(0.1 -0.1)">
       <defs>
        <path id="LiberationSans-35" d="M 3291 1434 
Q 3291 1103 3191 828 
Q 3091 553 2894 354 
Q 2697 156 2405 46 
Q 2113 -63 1728 -63 
Q 1381 -63 1123 18 
Q 866 100 687 242 
Q 509 384 404 575 
Q 300 766 256 984 
L 825 1050 
Q 859 925 921 808 
Q 984 691 1092 598 
Q 1200 506 1358 451 
Q 1516 397 1741 397 
Q 1959 397 2137 464 
Q 2316 531 2442 662 
Q 2569 794 2637 984 
Q 2706 1175 2706 1422 
Q 2706 1625 2640 1795 
Q 2575 1966 2453 2089 
Q 2331 2213 2154 2281 
Q 1978 2350 1753 2350 
Q 1613 2350 1494 2325 
Q 1375 2300 1273 2256 
Q 1172 2213 1089 2155 
Q 1006 2097 934 2034 
L 384 2034 
L 531 4403 
L 3034 4403 
L 3034 3925 
L 1044 3925 
L 959 2528 
Q 1109 2644 1334 2726 
Q 1559 2809 1869 2809 
Q 2197 2809 2459 2709 
Q 2722 2609 2906 2426 
Q 3091 2244 3191 1991 
Q 3291 1738 3291 1434 
z
" transform="scale(0.015625)"/>
       </defs>
       <use xlink:href="#LiberationSans-32"/>
       <use xlink:href="#LiberationSans-35" x="55.615234"/>
      </g>
     </g>
    </g>
    <g id="xtick_4">
     <g id="line2d_7">
      <path d="M 191.141144 259.85601 
L 191.141144 17.69649 
" clip-path="url(#pd3e5d4574e)" style="fill: none; stroke: #2a3459; stroke-width: 0.8; stroke-linecap: round"/>
     </g>
     <g id="line2d_8"/>
     <g id="text_4">
      <!-- 29 -->
      <g style="fill: #e6e6e6" transform="translate(185.580206 270.602885) scale(0.1 -0.1)">
       <defs>
        <path id="LiberationSans-39" d="M 3256 2291 
Q 3256 1703 3145 1261 
Q 3034 819 2828 525 
Q 2622 231 2326 84 
Q 2031 -63 1663 -63 
Q 1409 -63 1206 -11 
Q 1003 41 843 150 
Q 684 259 571 434 
Q 459 609 391 856 
L 928 941 
Q 1016 656 1202 523 
Q 1388 391 1672 391 
Q 1900 391 2089 498 
Q 2278 606 2411 822 
Q 2544 1038 2619 1363 
Q 2694 1688 2700 2125 
Q 2634 1978 2520 1862 
Q 2406 1747 2261 1667 
Q 2116 1588 1947 1545 
Q 1778 1503 1606 1503 
Q 1306 1503 1064 1611 
Q 822 1719 653 1912 
Q 484 2106 392 2379 
Q 300 2653 300 2988 
Q 300 3328 398 3603 
Q 497 3878 684 4070 
Q 872 4263 1145 4366 
Q 1419 4469 1766 4469 
Q 2500 4469 2878 3925 
Q 3256 3381 3256 2291 
z
M 2644 2834 
Q 2644 3078 2586 3293 
Q 2528 3509 2414 3668 
Q 2300 3828 2133 3920 
Q 1966 4013 1747 4013 
Q 1544 4013 1381 3941 
Q 1219 3869 1106 3736 
Q 994 3603 933 3412 
Q 872 3222 872 2988 
Q 872 2766 926 2575 
Q 981 2384 1090 2245 
Q 1200 2106 1362 2026 
Q 1525 1947 1741 1947 
Q 1897 1947 2058 2000 
Q 2219 2053 2348 2162 
Q 2478 2272 2561 2439 
Q 2644 2606 2644 2834 
z
" transform="scale(0.015625)"/>
       </defs>
       <use xlink:href="#LiberationSans-32"/>
       <use xlink:href="#LiberationSans-39" x="55.615234"/>
      </g>
     </g>
    </g>
    <g id="xtick_5">
     <g id="line2d_9">
      <path d="M 225.865029 259.85601 
L 225.865029 17.69649 
" clip-path="url(#pd3e5d4574e)" style="fill: none; stroke: #2a3459; stroke-width: 0.8; stroke-linecap: round"/>
     </g>
     <g id="line2d_10"/>
     <g id="text_5">
      <!-- Jun -->
      <g style="fill: #e6e6e6" transform="translate(217.804092 270.602885) scale(0.1 -0.1)">
       <defs>
        <path id="LiberationSans-4a" d="M 1428 -63 
Q 894 -63 551 215 
Q 209 494 100 1094 
L 684 1191 
Q 716 988 787 842 
Q 859 697 959 603 
Q 1059 509 1181 465 
Q 1303 422 1431 422 
Q 1756 422 1943 645 
Q 2131 869 2131 1300 
L 2131 3916 
L 1284 3916 
L 1284 4403 
L 2725 4403 
L 2725 1313 
Q 2725 997 2637 744 
Q 2550 491 2383 311 
Q 2216 131 1975 34 
Q 1734 -63 1428 -63 
z
" transform="scale(0.015625)"/>
        <path id="LiberationSans-75" d="M 981 3381 
L 981 1238 
Q 981 991 1017 825 
Q 1053 659 1134 557 
Q 1216 456 1348 414 
Q 1481 372 1678 372 
Q 1878 372 2039 442 
Q 2200 513 2314 645 
Q 2428 778 2490 973 
Q 2553 1169 2553 1422 
L 2553 3381 
L 3116 3381 
L 3116 722 
Q 3116 616 3117 498 
Q 3119 381 3122 276 
Q 3125 172 3128 97 
Q 3131 22 3134 0 
L 2603 0 
Q 2600 16 2597 84 
Q 2594 153 2589 242 
Q 2584 331 2581 423 
Q 2578 516 2578 578 
L 2569 578 
Q 2488 431 2391 312 
Q 2294 194 2166 111 
Q 2038 28 1872 -17 
Q 1706 -63 1488 -63 
Q 1206 -63 1003 6 
Q 800 75 669 219 
Q 538 363 477 588 
Q 416 813 416 1128 
L 416 3381 
L 981 3381 
z
" transform="scale(0.015625)"/>
        <path id="LiberationSans-6e" d="M 2578 0 
L 2578 2144 
Q 2578 2391 2542 2556 
Q 2506 2722 2425 2823 
Q 2344 2925 2211 2967 
Q 2078 3009 1881 3009 
Q 1681 3009 1520 2939 
Q 1359 2869 1245 2736 
Q 1131 2603 1068 2408 
Q 1006 2213 1006 1959 
L 1006 0 
L 444 0 
L 444 2659 
Q 444 2766 442 2883 
Q 441 3000 437 3104 
Q 434 3209 431 3284 
Q 428 3359 425 3381 
L 956 3381 
Q 959 3366 962 3297 
Q 966 3228 970 3139 
Q 975 3050 978 2958 
Q 981 2866 981 2803 
L 991 2803 
Q 1072 2950 1169 3069 
Q 1266 3188 1394 3270 
Q 1522 3353 1687 3398 
Q 1853 3444 2072 3444 
Q 2353 3444 2556 3375 
Q 2759 3306 2890 3162 
Q 3022 3019 3083 2792 
Q 3144 2566 3144 2253 
L 3144 0 
L 2578 0 
z
" transform="scale(0.015625)"/>
       </defs>
       <use xlink:href="#LiberationSans-4a"/>
       <use xlink:href="#LiberationSans-75" x="50"/>
       <use xlink:href="#LiberationSans-6e" x="105.615234"/>
      </g>
     </g>
    </g>
    <g id="xtick_6">
     <g id="line2d_11">
      <path d="M 272.163544 259.85601 
L 272.163544 17.69649 
" clip-path="url(#pd3e5d4574e)" style="fill: none; stroke: #2a3459; stroke-width: 0.8; stroke-linecap: round"/>
     </g>
     <g id="line2d_12"/>
     <g id="text_6">
      <!-- 05 -->
      <g style="fill: #e6e6e6" transform="translate(266.602606 270.602885) scale(0.1 -0.1)">
       <defs>
        <path id="LiberationSans-30" d="M 3309 2203 
Q 3309 1569 3189 1136 
Q 3069 703 2861 436 
Q 2653 169 2372 53 
Q 2091 -63 1772 -63 
Q 1450 -63 1172 53 
Q 894 169 689 434 
Q 484 700 367 1133 
Q 250 1566 250 2203 
Q 250 2869 367 3305 
Q 484 3741 690 4000 
Q 897 4259 1178 4364 
Q 1459 4469 1791 4469 
Q 2106 4469 2382 4364 
Q 2659 4259 2865 4000 
Q 3072 3741 3190 3305 
Q 3309 2869 3309 2203 
z
M 2738 2203 
Q 2738 2728 2675 3076 
Q 2613 3425 2491 3633 
Q 2369 3841 2192 3927 
Q 2016 4013 1791 4013 
Q 1553 4013 1372 3925 
Q 1191 3838 1067 3630 
Q 944 3422 881 3073 
Q 819 2725 819 2203 
Q 819 1697 883 1350 
Q 947 1003 1070 792 
Q 1194 581 1372 489 
Q 1550 397 1778 397 
Q 2000 397 2178 489 
Q 2356 581 2479 792 
Q 2603 1003 2670 1350 
Q 2738 1697 2738 2203 
z
" transform="scale(0.015625)"/>
       </defs>
       <use xlink:href="#LiberationSans-30"/>
       <use xlink:href="#LiberationSans-35" x="55.615234"/>
      </g>
     </g>
    </g>
    <g id="xtick_7">
     <g id="line2d_13">
      <path d="M 318.462058 259.85601 
L 318.462058 17.69649 
" clip-path="url(#pd3e5d4574e)" style="fill: none; stroke: #2a3459; stroke-width: 0.8; stroke-linecap: round"/>
     </g>
     <g id="line2d_14"/>
     <g id="text_7">
      <!-- 09 -->
      <g style="fill: #e6e6e6" transform="translate(312.90112 270.602885) scale(0.1 -0.1)">
       <use xlink:href="#LiberationSans-30"/>
       <use xlink:href="#LiberationSans-39" x="55.615234"/>
      </g>
     </g>
    </g>
    <g id="xtick_8">
     <g id="line2d_15">
      <path d="M 364.760572 259.85601 
L 364.760572 17.69649 
" clip-path="url(#pd3e5d4574e)" style="fill: none; stroke: #2a3459; stroke-width: 0.8; stroke-linecap: round"/>
     </g>
     <g id="line2d_16"/>
     <g id="text_8">
      <!-- 13 -->
      <g style="fill: #e6e6e6" transform="translate(359.199634 270.602885) scale(0.1 -0.1)">
       <defs>
        <path id="LiberationSans-33" d="M 3278 1216 
Q 3278 913 3179 675 
Q 3081 438 2892 273 
Q 2703 109 2423 23 
Q 2144 -63 1784 -63 
Q 1375 -63 1095 39 
Q 816 141 634 308 
Q 453 475 362 689 
Q 272 903 244 1131 
L 825 1184 
Q 850 1009 917 865 
Q 984 722 1100 619 
Q 1216 516 1384 459 
Q 1553 403 1784 403 
Q 2209 403 2451 612 
Q 2694 822 2694 1234 
Q 2694 1478 2586 1626 
Q 2478 1775 2317 1858 
Q 2156 1941 1967 1969 
Q 1778 1997 1619 1997 
L 1300 1997 
L 1300 2484 
L 1606 2484 
Q 1766 2484 1937 2517 
Q 2109 2550 2251 2636 
Q 2394 2722 2486 2869 
Q 2578 3016 2578 3244 
Q 2578 3597 2370 3801 
Q 2163 4006 1753 4006 
Q 1381 4006 1151 3815 
Q 922 3625 884 3278 
L 319 3322 
Q 353 3613 478 3828 
Q 603 4044 795 4186 
Q 988 4328 1234 4398 
Q 1481 4469 1759 4469 
Q 2128 4469 2393 4376 
Q 2659 4284 2828 4126 
Q 2997 3969 3076 3756 
Q 3156 3544 3156 3303 
Q 3156 3109 3103 2940 
Q 3050 2772 2937 2637 
Q 2825 2503 2651 2406 
Q 2478 2309 2234 2259 
L 2234 2247 
Q 2500 2219 2697 2126 
Q 2894 2034 3022 1896 
Q 3150 1759 3214 1584 
Q 3278 1409 3278 1216 
z
" transform="scale(0.015625)"/>
       </defs>
       <use xlink:href="#LiberationSans-31"/>
       <use xlink:href="#LiberationSans-33" x="55.615234"/>
      </g>
     </g>
    </g>
    <g id="xtick_9">
     <g id="line2d_17">
      <path d="M 411.059086 259.85601 
L 411.059086 17.69649 
" clip-path="url(#pd3e5d4574e)" style="fill: none; stroke: #2a3459; stroke-width: 0.8; stroke-linecap: round"/>
     </g>
     <g id="line2d_18"/>
     <g id="text_9">
      <!-- 17 -->
      <g style="fill: #e6e6e6" transform="translate(405.498148 270.602885) scale(0.1 -0.1)">
       <use xlink:href="#LiberationSans-31"/>
       <use xlink:href="#LiberationSans-37" x="55.615234"/>
      </g>
     </g>
    </g>
    <g id="text_10">
     <!-- 2024-Jun -->
     <g style="fill: #e6e6e6" transform="translate(387.304448 282.92476) scale(0.1 -0.1)">
      <defs>
       <path id="LiberationSans-34" d="M 2753 997 
L 2753 0 
L 2222 0 
L 2222 997 
L 147 997 
L 147 1434 
L 2163 4403 
L 2753 4403 
L 2753 1441 
L 3372 1441 
L 3372 997 
L 2753 997 
z
M 2222 3769 
Q 2216 3753 2191 3708 
Q 2166 3663 2134 3606 
Q 2103 3550 2070 3492 
Q 2038 3434 2013 3397 
L 884 1734 
Q 869 1709 839 1668 
Q 809 1628 778 1586 
Q 747 1544 715 1503 
Q 684 1463 666 1441 
L 2222 1441 
L 2222 3769 
z
" transform="scale(0.015625)"/>
       <path id="LiberationSans-2d" d="M 284 1450 
L 284 1950 
L 1847 1950 
L 1847 1450 
L 284 1450 
z
" transform="scale(0.015625)"/>
      </defs>
      <use xlink:href="#LiberationSans-32"/>
      <use xlink:href="#LiberationSans-30" x="55.615234"/>
      <use xlink:href="#LiberationSans-32" x="111.230469"/>
      <use xlink:href="#LiberationSans-34" x="166.845703"/>
      <use xlink:href="#LiberationSans-2d" x="222.460938"/>
      <use xlink:href="#LiberationSans-4a" x="255.761719"/>
      <use xlink:href="#LiberationSans-75" x="305.761719"/>
      <use xlink:href="#LiberationSans-6e" x="361.376953"/>
     </g>
    </g>
   </g>
   <g id="matplotlib.axis_2">
    <g id="ytick_1">
     <g id="line2d_19">
      <path d="M 34.304927 248.848759 
L 428.99976 248.848759 
" clip-path="url(#pd3e5d4574e)" style="fill: none; stroke: #2a3459; stroke-width: 0.8; stroke-linecap: round"/>
     </g>
     <g id="line2d_20"/>
     <g id="text_11">
      <!-- 0 -->
      <g style="fill: #e6e6e6" transform="translate(25.24399 252.472197) scale(0.1 -0.1)">
       <use xlink:href="#LiberationSans-30"/>
      </g>
     </g>
    </g>
    <g id="ytick_2">
     <g id="line2d_21">
      <path d="M 34.304927 216.115387 
L 428.99976 216.115387 
" clip-path="url(#pd3e5d4574e)" style="fill: none; stroke: #2a3459; stroke-width: 0.8; stroke-linecap: round"/>
     </g>
     <g id="line2d_22"/>
     <g id="text_12">
      <!-- 5000 -->
      <g style="fill: #e6e6e6" transform="translate(8.561177 219.738825) scale(0.1 -0.1)">
       <use xlink:href="#LiberationSans-35"/>
       <use xlink:href="#LiberationSans-30" x="55.615234"/>
       <use xlink:href="#LiberationSans-30" x="111.230469"/>
       <use xlink:href="#LiberationSans-30" x="166.845703"/>
      </g>
     </g>
    </g>
    <g id="ytick_3">
     <g id="line2d_23">
      <path d="M 34.304927 183.382016 
L 428.99976 183.382016 
" clip-path="url(#pd3e5d4574e)" style="fill: none; stroke: #2a3459; stroke-width: 0.8; stroke-linecap: round"/>
     </g>
     <g id="line2d_24"/>
     <g id="text_13">
      <!-- 10000 -->
      <g style="fill: #e6e6e6" transform="translate(3.00024 187.005453) scale(0.1 -0.1)">
       <use xlink:href="#LiberationSans-31"/>
       <use xlink:href="#LiberationSans-30" x="55.615234"/>
       <use xlink:href="#LiberationSans-30" x="111.230469"/>
       <use xlink:href="#LiberationSans-30" x="166.845703"/>
       <use xlink:href="#LiberationSans-30" x="222.460938"/>
      </g>
     </g>
    </g>
    <g id="ytick_4">
     <g id="line2d_25">
      <path d="M 34.304927 150.648644 
L 428.99976 150.648644 
" clip-path="url(#pd3e5d4574e)" style="fill: none; stroke: #2a3459; stroke-width: 0.8; stroke-linecap: round"/>
     </g>
     <g id="line2d_26"/>
     <g id="text_14">
      <!-- 15000 -->
      <g style="fill: #e6e6e6" transform="translate(3.00024 154.272081) scale(0.1 -0.1)">
       <use xlink:href="#LiberationSans-31"/>
       <use xlink:href="#LiberationSans-35" x="55.615234"/>
       <use xlink:href="#LiberationSans-30" x="111.230469"/>
       <use xlink:href="#LiberationSans-30" x="166.845703"/>
       <use xlink:href="#LiberationSans-30" x="222.460938"/>
      </g>
     </g>
    </g>
    <g id="ytick_5">
     <g id="line2d_27">
      <path d="M 34.304927 117.915272 
L 428.99976 117.915272 
" clip-path="url(#pd3e5d4574e)" style="fill: none; stroke: #2a3459; stroke-width: 0.8; stroke-linecap: round"/>
     </g>
     <g id="line2d_28"/>
     <g id="text_15">
      <!-- 20000 -->
      <g style="fill: #e6e6e6" transform="translate(3.00024 121.53871) scale(0.1 -0.1)">
       <use xlink:href="#LiberationSans-32"/>
       <use xlink:href="#LiberationSans-30" x="55.615234"/>
       <use xlink:href="#LiberationSans-30" x="111.230469"/>
       <use xlink:href="#LiberationSans-30" x="166.845703"/>
       <use xlink:href="#LiberationSans-30" x="222.460938"/>
      </g>
     </g>
    </g>
    <g id="ytick_6">
     <g id="line2d_29">
      <path d="M 34.304927 85.1819 
L 428.99976 85.1819 
" clip-path="url(#pd3e5d4574e)" style="fill: none; stroke: #2a3459; stroke-width: 0.8; stroke-linecap: round"/>
     </g>
     <g id="line2d_30"/>
     <g id="text_16">
      <!-- 25000 -->
      <g style="fill: #e6e6e6" transform="translate(3.00024 88.805338) scale(0.1 -0.1)">
       <use xlink:href="#LiberationSans-32"/>
       <use xlink:href="#LiberationSans-35" x="55.615234"/>
       <use xlink:href="#LiberationSans-30" x="111.230469"/>
       <use xlink:href="#LiberationSans-30" x="166.845703"/>
       <use xlink:href="#LiberationSans-30" x="222.460938"/>
      </g>
     </g>
    </g>
    <g id="ytick_7">
     <g id="line2d_31">
      <path d="M 34.304927 52.448529 
L 428.99976 52.448529 
" clip-path="url(#pd3e5d4574e)" style="fill: none; stroke: #2a3459; stroke-width: 0.8; stroke-linecap: round"/>
     </g>
     <g id="line2d_32"/>
     <g id="text_17">
      <!-- 30000 -->
      <g style="fill: #e6e6e6" transform="translate(3.00024 56.071966) scale(0.1 -0.1)">
       <use xlink:href="#LiberationSans-33"/>
       <use xlink:href="#LiberationSans-30" x="55.615234"/>
       <use xlink:href="#LiberationSans-30" x="111.230469"/>
       <use xlink:href="#LiberationSans-30" x="166.845703"/>
       <use xlink:href="#LiberationSans-30" x="222.460938"/>
      </g>
     </g>
    </g>
    <g id="ytick_8">
     <g id="line2d_33">
      <path d="M 34.304927 19.715157 
L 428.99976 19.715157 
" clip-path="url(#pd3e5d4574e)" style="fill: none; stroke: #2a3459; stroke-width: 0.8; stroke-linecap: round"/>
     </g>
     <g id="line2d_34"/>
     <g id="text_18">
      <!-- 35000 -->
      <g style="fill: #e6e6e6" transform="translate(3.00024 23.338595) scale(0.1 -0.1)">
       <use xlink:href="#LiberationSans-33"/>
       <use xlink:href="#LiberationSans-35" x="55.615234"/>
       <use xlink:href="#LiberationSans-30" x="111.230469"/>
       <use xlink:href="#LiberationSans-30" x="166.845703"/>
       <use xlink:href="#LiberationSans-30" x="222.460938"/>
      </g>
     </g>
    </g>
   </g>
   <g id="PolyCollection_1">
    <defs>
     <path id="m4d844bbf86" d="M 52.245602 -39.151241 
L 52.245602 -39.151241 
L 63.82023 -90.215301 
L 75.394859 -56.231514 
L 86.969487 -39.151241 
L 98.544116 -78.280713 
L 110.118744 -39.164334 
L 121.693373 -75.328163 
L 133.268001 -66.319939 
L 144.84263 -59.956572 
L 156.417258 -59.779812 
L 167.991887 -39.308361 
L 179.566515 -39.157788 
L 191.141144 -82.883026 
L 202.715772 -75.982831 
L 214.290401 -77.508206 
L 225.865029 -69.403423 
L 237.439658 -67.472154 
L 249.014287 -61.488494 
L 260.588915 -72.827334 
L 272.163544 -68.139915 
L 283.738172 -39.151241 
L 295.312801 -39.177428 
L 306.887429 -39.157788 
L 318.462058 -39.157788 
L 330.036686 -259.296259 
L 341.611315 -39.164334 
L 353.185943 -117.469106 
L 364.760572 -75.131763 
L 376.3352 -80.977943 
L 387.909829 -78.830634 
L 399.484457 -39.157788 
L 411.059086 -150.398878 
L 411.059086 -39.151241 
L 411.059086 -39.151241 
L 399.484457 -39.151241 
L 387.909829 -39.151241 
L 376.3352 -39.151241 
L 364.760572 -39.151241 
L 353.185943 -39.151241 
L 341.611315 -39.151241 
L 330.036686 -39.151241 
L 318.462058 -39.151241 
L 306.887429 -39.151241 
L 295.312801 -39.151241 
L 283.738172 -39.151241 
L 272.163544 -39.151241 
L 260.588915 -39.151241 
L 249.014287 -39.151241 
L 237.439658 -39.151241 
L 225.865029 -39.151241 
L 214.290401 -39.151241 
L 202.715772 -39.151241 
L 191.141144 -39.151241 
L 179.566515 -39.151241 
L 167.991887 -39.151241 
L 156.417258 -39.151241 
L 144.84263 -39.151241 
L 133.268001 -39.151241 
L 121.693373 -39.151241 
L 110.118744 -39.151241 
L 98.544116 -39.151241 
L 86.969487 -39.151241 
L 75.394859 -39.151241 
L 63.82023 -39.151241 
L 52.245602 -39.151241 
z
" style="stroke: #08f7fe; stroke-opacity: 0.1"/>
    </defs>
    <g clip-path="url(#pd3e5d4574e)">
     <use xlink:href="#m4d844bbf86" x="0" y="288" style="fill: #08f7fe; fill-opacity: 0.1; stroke: #08f7fe; stroke-opacity: 0.1"/>
    </g>
   </g>
   <g id="PolyCollection_2">
    <defs>
     <path id="me14d216f3d" d="M 52.245602 -39.151241 
L 52.245602 -39.151241 
L 63.82023 -39.197068 
L 75.394859 -39.183974 
L 86.969487 -39.151241 
L 98.544116 -39.223254 
L 110.118744 -39.151241 
L 121.693373 -39.183974 
L 133.268001 -39.190521 
L 144.84263 -39.164334 
L 156.417258 -39.170881 
L 167.991887 -39.151241 
L 179.566515 -39.151241 
L 191.141144 -39.190521 
L 202.715772 -39.170881 
L 214.290401 -39.157788 
L 225.865029 -39.157788 
L 237.439658 -39.164334 
L 249.014287 -39.170881 
L 260.588915 -39.157788 
L 272.163544 -39.170881 
L 283.738172 -39.151241 
L 295.312801 -39.151241 
L 306.887429 -39.151241 
L 318.462058 -39.151241 
L 330.036686 -39.255988 
L 341.611315 -39.151241 
L 353.185943 -39.190521 
L 364.760572 -39.157788 
L 376.3352 -39.170881 
L 387.909829 -39.164334 
L 399.484457 -39.151241 
L 411.059086 -39.197068 
L 411.059086 -39.151241 
L 411.059086 -39.151241 
L 399.484457 -39.151241 
L 387.909829 -39.151241 
L 376.3352 -39.151241 
L 364.760572 -39.151241 
L 353.185943 -39.151241 
L 341.611315 -39.151241 
L 330.036686 -39.151241 
L 318.462058 -39.151241 
L 306.887429 -39.151241 
L 295.312801 -39.151241 
L 283.738172 -39.151241 
L 272.163544 -39.151241 
L 260.588915 -39.151241 
L 249.014287 -39.151241 
L 237.439658 -39.151241 
L 225.865029 -39.151241 
L 214.290401 -39.151241 
L 202.715772 -39.151241 
L 191.141144 -39.151241 
L 179.566515 -39.151241 
L 167.991887 -39.151241 
L 156.417258 -39.151241 
L 144.84263 -39.151241 
L 133.268001 -39.151241 
L 121.693373 -39.151241 
L 110.118744 -39.151241 
L 98.544116 -39.151241 
L 86.969487 -39.151241 
L 75.394859 -39.151241 
L 63.82023 -39.151241 
L 52.245602 -39.151241 
z
" style="stroke: #fe53bb; stroke-opacity: 0.1"/>
    </defs>
    <g clip-path="url(#pd3e5d4574e)">
     <use xlink:href="#me14d216f3d" x="0" y="288" style="fill: #fe53bb; fill-opacity: 0.1; stroke: #fe53bb; stroke-opacity: 0.1"/>
    </g>
   </g>
   <g id="PolyCollection_3">
    <defs>
     <path id="m1d46536f2b" d="M 52.245602 -39.151241 
L 52.245602 -39.183974 
L 63.82023 -39.183974 
L 75.394859 -39.170881 
L 86.969487 -39.183974 
L 98.544116 -39.203614 
L 110.118744 -39.157788 
L 121.693373 -39.183974 
L 133.268001 -39.183974 
L 144.84263 -39.170881 
L 156.417258 -39.164334 
L 167.991887 -39.203614 
L 179.566515 -39.170881 
L 191.141144 -39.203614 
L 202.715772 -39.177428 
L 214.290401 -39.183974 
L 225.865029 -39.177428 
L 237.439658 -39.170881 
L 249.014287 -39.190521 
L 260.588915 -39.197068 
L 272.163544 -39.190521 
L 283.738172 -39.197068 
L 295.312801 -39.157788 
L 306.887429 -39.197068 
L 318.462058 -39.170881 
L 330.036686 -39.190521 
L 341.611315 -39.183974 
L 353.185943 -39.177428 
L 364.760572 -39.190521 
L 376.3352 -39.177428 
L 387.909829 -39.197068 
L 399.484457 -39.190521 
L 411.059086 -39.216708 
L 411.059086 -39.151241 
L 411.059086 -39.151241 
L 399.484457 -39.151241 
L 387.909829 -39.151241 
L 376.3352 -39.151241 
L 364.760572 -39.151241 
L 353.185943 -39.151241 
L 341.611315 -39.151241 
L 330.036686 -39.151241 
L 318.462058 -39.151241 
L 306.887429 -39.151241 
L 295.312801 -39.151241 
L 283.738172 -39.151241 
L 272.163544 -39.151241 
L 260.588915 -39.151241 
L 249.014287 -39.151241 
L 237.439658 -39.151241 
L 225.865029 -39.151241 
L 214.290401 -39.151241 
L 202.715772 -39.151241 
L 191.141144 -39.151241 
L 179.566515 -39.151241 
L 167.991887 -39.151241 
L 156.417258 -39.151241 
L 144.84263 -39.151241 
L 133.268001 -39.151241 
L 121.693373 -39.151241 
L 110.118744 -39.151241 
L 98.544116 -39.151241 
L 86.969487 -39.151241 
L 75.394859 -39.151241 
L 63.82023 -39.151241 
L 52.245602 -39.151241 
z
" style="stroke: #f5d300; stroke-opacity: 0.1"/>
    </defs>
    <g clip-path="url(#pd3e5d4574e)">
     <use xlink:href="#m1d46536f2b" x="0" y="288" style="fill: #f5d300; fill-opacity: 0.1; stroke: #f5d300; stroke-opacity: 0.1"/>
    </g>
   </g>
   <g id="PolyCollection_4">
    <defs>
     <path id="macaf8a7521" d="M 52.245602 -39.151241 
L 52.245602 -39.151241 
L 63.82023 -40.002309 
L 75.394859 -39.400015 
L 86.969487 -39.151241 
L 98.544116 -39.773175 
L 110.118744 -39.151241 
L 121.693373 -39.511308 
L 133.268001 -39.406561 
L 144.84263 -39.406561 
L 156.417258 -39.458935 
L 167.991887 -39.157788 
L 179.566515 -39.151241 
L 191.141144 -39.720802 
L 202.715772 -39.504761 
L 214.290401 -39.328001 
L 225.865029 -39.373828 
L 237.439658 -39.373828 
L 249.014287 -39.373828 
L 260.588915 -39.328001 
L 272.163544 -39.334548 
L 283.738172 -39.151241 
L 295.312801 -39.151241 
L 306.887429 -39.151241 
L 318.462058 -39.151241 
L 330.036686 -40.152882 
L 341.611315 -39.151241 
L 353.185943 -39.530948 
L 364.760572 -40.781363 
L 376.3352 -44.303474 
L 387.909829 -40.88611 
L 399.484457 -39.151241 
L 411.059086 -47.655371 
L 411.059086 -39.151241 
L 411.059086 -39.151241 
L 399.484457 -39.151241 
L 387.909829 -39.151241 
L 376.3352 -39.151241 
L 364.760572 -39.151241 
L 353.185943 -39.151241 
L 341.611315 -39.151241 
L 330.036686 -39.151241 
L 318.462058 -39.151241 
L 306.887429 -39.151241 
L 295.312801 -39.151241 
L 283.738172 -39.151241 
L 272.163544 -39.151241 
L 260.588915 -39.151241 
L 249.014287 -39.151241 
L 237.439658 -39.151241 
L 225.865029 -39.151241 
L 214.290401 -39.151241 
L 202.715772 -39.151241 
L 191.141144 -39.151241 
L 179.566515 -39.151241 
L 167.991887 -39.151241 
L 156.417258 -39.151241 
L 144.84263 -39.151241 
L 133.268001 -39.151241 
L 121.693373 -39.151241 
L 110.118744 -39.151241 
L 98.544116 -39.151241 
L 86.969487 -39.151241 
L 75.394859 -39.151241 
L 63.82023 -39.151241 
L 52.245602 -39.151241 
z
" style="stroke: #00ff41; stroke-opacity: 0.1"/>
    </defs>
    <g clip-path="url(#pd3e5d4574e)">
     <use xlink:href="#macaf8a7521" x="0" y="288" style="fill: #00ff41; fill-opacity: 0.1; stroke: #00ff41; stroke-opacity: 0.1"/>
    </g>
   </g>
   <g id="line2d_35">
    <path d="M 52.245602 248.848759 
L 63.82023 197.784699 
L 75.394859 231.768486 
L 86.969487 248.848759 
L 98.544116 209.719287 
L 110.118744 248.835666 
L 121.693373 212.671837 
L 133.268001 221.680061 
L 144.84263 228.043428 
L 156.417258 228.220188 
L 167.991887 248.691639 
L 179.566515 248.842212 
L 191.141144 205.116974 
L 202.715772 212.017169 
L 214.290401 210.491794 
L 225.865029 218.596577 
L 237.439658 220.527846 
L 249.014287 226.511506 
L 260.588915 215.172666 
L 272.163544 219.860085 
L 283.738172 248.848759 
L 295.312801 248.822572 
L 306.887429 248.842212 
L 318.462058 248.842212 
L 330.036686 28.703741 
L 341.611315 248.835666 
L 353.185943 170.530894 
L 364.760572 212.868237 
L 376.3352 207.022057 
L 387.909829 209.169366 
L 399.484457 248.842212 
L 411.059086 137.601122 
" clip-path="url(#pd3e5d4574e)" style="fill: none; stroke: #08f7fe; stroke-width: 1.5; stroke-linecap: round"/>
   </g>
   <g id="line2d_36">
    <path d="M 52.245602 248.848759 
L 63.82023 248.802932 
L 75.394859 248.816026 
L 86.969487 248.848759 
L 98.544116 248.776746 
L 110.118744 248.848759 
L 121.693373 248.816026 
L 133.268001 248.809479 
L 144.84263 248.835666 
L 156.417258 248.829119 
L 167.991887 248.848759 
L 179.566515 248.848759 
L 191.141144 248.809479 
L 202.715772 248.829119 
L 214.290401 248.842212 
L 225.865029 248.842212 
L 237.439658 248.835666 
L 249.014287 248.829119 
L 260.588915 248.842212 
L 272.163544 248.829119 
L 283.738172 248.848759 
L 295.312801 248.848759 
L 306.887429 248.848759 
L 318.462058 248.848759 
L 330.036686 248.744012 
L 341.611315 248.848759 
L 353.185943 248.809479 
L 364.760572 248.842212 
L 376.3352 248.829119 
L 387.909829 248.835666 
L 399.484457 248.848759 
L 411.059086 248.802932 
" clip-path="url(#pd3e5d4574e)" style="fill: none; stroke: #fe53bb; stroke-width: 1.5; stroke-linecap: round"/>
   </g>
   <g id="line2d_37">
    <path d="M 52.245602 248.816026 
L 63.82023 248.816026 
L 75.394859 248.829119 
L 86.969487 248.816026 
L 98.544116 248.796386 
L 110.118744 248.842212 
L 121.693373 248.816026 
L 133.268001 248.816026 
L 144.84263 248.829119 
L 156.417258 248.835666 
L 167.991887 248.796386 
L 179.566515 248.829119 
L 191.141144 248.796386 
L 202.715772 248.822572 
L 214.290401 248.816026 
L 225.865029 248.822572 
L 237.439658 248.829119 
L 249.014287 248.809479 
L 260.588915 248.802932 
L 272.163544 248.809479 
L 283.738172 248.802932 
L 295.312801 248.842212 
L 306.887429 248.802932 
L 318.462058 248.829119 
L 330.036686 248.809479 
L 341.611315 248.816026 
L 353.185943 248.822572 
L 364.760572 248.809479 
L 376.3352 248.822572 
L 387.909829 248.802932 
L 399.484457 248.809479 
L 411.059086 248.783292 
" clip-path="url(#pd3e5d4574e)" style="fill: none; stroke: #f5d300; stroke-width: 1.5; stroke-linecap: round"/>
   </g>
   <g id="line2d_38">
    <path d="M 52.245602 248.848759 
L 63.82023 247.997691 
L 75.394859 248.599985 
L 86.969487 248.848759 
L 98.544116 248.226825 
L 110.118744 248.848759 
L 121.693373 248.488692 
L 133.268001 248.593439 
L 144.84263 248.593439 
L 156.417258 248.541065 
L 167.991887 248.842212 
L 179.566515 248.848759 
L 191.141144 248.279198 
L 202.715772 248.495239 
L 214.290401 248.671999 
L 225.865029 248.626172 
L 237.439658 248.626172 
L 249.014287 248.626172 
L 260.588915 248.671999 
L 272.163544 248.665452 
L 283.738172 248.848759 
L 295.312801 248.848759 
L 306.887429 248.848759 
L 318.462058 248.848759 
L 330.036686 247.847118 
L 341.611315 248.848759 
L 353.185943 248.469052 
L 364.760572 247.218637 
L 376.3352 243.696526 
L 387.909829 247.11389 
L 399.484457 248.848759 
L 411.059086 240.344629 
" clip-path="url(#pd3e5d4574e)" style="fill: none; stroke: #00ff41; stroke-width: 1.5; stroke-linecap: round"/>
   </g>
   <g id="patch_3">
    <path d="M 34.304927 259.85601 
L 34.304927 17.69649 
" style="fill: none"/>
   </g>
   <g id="patch_4">
    <path d="M 428.99976 259.85601 
L 428.99976 17.69649 
" style="fill: none"/>
   </g>
   <g id="patch_5">
    <path d="M 34.304927 259.85601 
L 428.99976 259.85601 
" style="fill: none"/>
   </g>
   <g id="patch_6">
    <path d="M 34.304927 17.69649 
L 428.99976 17.69649 
" style="fill: none"/>
   </g>
   <g id="text_19">
    <!-- Daily Download Count -->
    <g style="fill: #e6e6e6" transform="translate(172.290781 11.69649) scale(0.12 -0.12)">
     <defs>
      <path id="LiberationSans-44" d="M 4316 2247 
Q 4316 1697 4150 1276 
Q 3984 856 3696 573 
Q 3409 291 3017 145 
Q 2625 0 2172 0 
L 525 0 
L 525 4403 
L 1981 4403 
Q 2491 4403 2920 4276 
Q 3350 4150 3659 3886 
Q 3969 3622 4142 3215 
Q 4316 2809 4316 2247 
z
M 3716 2247 
Q 3716 2694 3587 3011 
Q 3459 3328 3228 3531 
Q 2997 3734 2675 3829 
Q 2353 3925 1969 3925 
L 1122 3925 
L 1122 478 
L 2103 478 
Q 2450 478 2745 590 
Q 3041 703 3256 925 
Q 3472 1147 3594 1478 
Q 3716 1809 3716 2247 
z
" transform="scale(0.015625)"/>
      <path id="LiberationSans-61" d="M 1294 -63 
Q 784 -63 528 206 
Q 272 475 272 944 
Q 272 1278 398 1492 
Q 525 1706 729 1828 
Q 934 1950 1196 1997 
Q 1459 2044 1731 2050 
L 2491 2063 
L 2491 2247 
Q 2491 2456 2447 2603 
Q 2403 2750 2312 2840 
Q 2222 2931 2086 2973 
Q 1950 3016 1766 3016 
Q 1603 3016 1472 2992 
Q 1341 2969 1244 2908 
Q 1147 2847 1087 2742 
Q 1028 2638 1009 2478 
L 422 2531 
Q 453 2731 540 2898 
Q 628 3066 789 3187 
Q 950 3309 1192 3376 
Q 1434 3444 1778 3444 
Q 2416 3444 2737 3151 
Q 3059 2859 3059 2306 
L 3059 850 
Q 3059 600 3125 473 
Q 3191 347 3375 347 
Q 3422 347 3469 353 
Q 3516 359 3559 369 
L 3559 19 
Q 3453 -6 3348 -18 
Q 3244 -31 3125 -31 
Q 2966 -31 2852 11 
Q 2738 53 2666 139 
Q 2594 225 2556 351 
Q 2519 478 2509 647 
L 2491 647 
Q 2400 484 2292 353 
Q 2184 222 2040 130 
Q 1897 38 1714 -12 
Q 1531 -63 1294 -63 
z
M 1422 359 
Q 1691 359 1892 457 
Q 2094 556 2226 709 
Q 2359 863 2425 1044 
Q 2491 1225 2491 1391 
L 2491 1669 
L 1875 1656 
Q 1669 1653 1483 1626 
Q 1297 1600 1156 1522 
Q 1016 1444 933 1303 
Q 850 1163 850 934 
Q 850 659 998 509 
Q 1147 359 1422 359 
z
" transform="scale(0.015625)"/>
      <path id="LiberationSans-69" d="M 428 4100 
L 428 4638 
L 991 4638 
L 991 4100 
L 428 4100 
z
M 428 0 
L 428 3381 
L 991 3381 
L 991 0 
L 428 0 
z
" transform="scale(0.015625)"/>
      <path id="LiberationSans-6c" d="M 431 0 
L 431 4638 
L 994 4638 
L 994 0 
L 431 0 
z
" transform="scale(0.015625)"/>
      <path id="LiberationSans-79" d="M 1888 0 
Q 1769 -306 1645 -551 
Q 1522 -797 1369 -970 
Q 1216 -1144 1028 -1236 
Q 841 -1328 597 -1328 
Q 491 -1328 400 -1322 
Q 309 -1316 209 -1294 
L 209 -872 
Q 269 -881 344 -886 
Q 419 -891 472 -891 
Q 719 -891 931 -706 
Q 1144 -522 1303 -119 
L 1356 16 
L 16 3381 
L 616 3381 
L 1328 1513 
Q 1359 1428 1407 1287 
Q 1456 1147 1504 1006 
Q 1553 866 1590 753 
Q 1628 641 1634 613 
Q 1644 647 1680 748 
Q 1716 850 1761 975 
Q 1806 1100 1853 1228 
Q 1900 1356 1931 1450 
L 2594 3381 
L 3188 3381 
L 1888 0 
z
" transform="scale(0.015625)"/>
      <path id="LiberationSans-20" transform="scale(0.015625)"/>
      <path id="LiberationSans-6f" d="M 3291 1694 
Q 3291 806 2900 371 
Q 2509 -63 1766 -63 
Q 1413 -63 1134 43 
Q 856 150 664 369 
Q 472 588 370 917 
Q 269 1247 269 1694 
Q 269 3444 1784 3444 
Q 2178 3444 2464 3334 
Q 2750 3225 2933 3006 
Q 3116 2788 3203 2459 
Q 3291 2131 3291 1694 
z
M 2700 1694 
Q 2700 2088 2639 2344 
Q 2578 2600 2461 2753 
Q 2344 2906 2175 2967 
Q 2006 3028 1794 3028 
Q 1578 3028 1404 2964 
Q 1231 2900 1109 2745 
Q 988 2591 923 2334 
Q 859 2078 859 1694 
Q 859 1300 928 1042 
Q 997 784 1117 631 
Q 1238 478 1402 415 
Q 1566 353 1759 353 
Q 1975 353 2150 414 
Q 2325 475 2447 628 
Q 2569 781 2634 1040 
Q 2700 1300 2700 1694 
z
" transform="scale(0.015625)"/>
      <path id="LiberationSans-77" d="M 3669 0 
L 3016 0 
L 2475 2181 
Q 2450 2266 2423 2391 
Q 2397 2516 2372 2634 
Q 2341 2772 2313 2919 
Q 2284 2778 2253 2641 
Q 2228 2522 2198 2394 
Q 2169 2266 2144 2169 
L 1588 0 
L 938 0 
L -9 3381 
L 547 3381 
L 1119 1084 
Q 1141 1013 1162 908 
Q 1184 803 1206 703 
Q 1228 588 1253 466 
Q 1278 584 1306 697 
Q 1331 794 1356 894 
Q 1381 994 1400 1059 
L 2013 3381 
L 2616 3381 
L 3206 1059 
Q 3228 978 3253 875 
Q 3278 772 3300 681 
Q 3325 575 3350 466 
Q 3375 584 3400 697 
Q 3422 794 3445 898 
Q 3469 1003 3491 1084 
L 4088 3381 
L 4638 3381 
L 3669 0 
z
" transform="scale(0.015625)"/>
      <path id="LiberationSans-64" d="M 2566 544 
Q 2409 219 2151 78 
Q 1894 -63 1513 -63 
Q 872 -63 570 368 
Q 269 800 269 1675 
Q 269 3444 1513 3444 
Q 1897 3444 2153 3303 
Q 2409 3163 2566 2856 
L 2572 2856 
Q 2572 2888 2570 2955 
Q 2569 3022 2567 3095 
Q 2566 3169 2566 3234 
Q 2566 3300 2566 3328 
L 2566 4638 
L 3128 4638 
L 3128 697 
Q 3128 575 3129 462 
Q 3131 350 3134 256 
Q 3138 163 3141 95 
Q 3144 28 3147 0 
L 2609 0 
Q 2603 31 2598 89 
Q 2594 147 2589 222 
Q 2584 297 2581 380 
Q 2578 463 2578 544 
L 2566 544 
z
M 859 1694 
Q 859 1344 903 1094 
Q 947 844 1044 683 
Q 1141 522 1291 447 
Q 1441 372 1656 372 
Q 1878 372 2048 444 
Q 2219 516 2333 677 
Q 2447 838 2506 1097 
Q 2566 1356 2566 1731 
Q 2566 2091 2506 2339 
Q 2447 2588 2331 2741 
Q 2216 2894 2048 2961 
Q 1881 3028 1663 3028 
Q 1456 3028 1306 2956 
Q 1156 2884 1056 2725 
Q 956 2566 907 2311 
Q 859 2056 859 1694 
z
" transform="scale(0.015625)"/>
      <path id="LiberationSans-43" d="M 2475 3981 
Q 2100 3981 1811 3856 
Q 1522 3731 1326 3500 
Q 1131 3269 1031 2944 
Q 931 2619 931 2222 
Q 931 1825 1039 1495 
Q 1147 1166 1348 928 
Q 1550 691 1842 559 
Q 2134 428 2500 428 
Q 2756 428 2967 495 
Q 3178 563 3348 684 
Q 3519 806 3653 973 
Q 3788 1141 3891 1344 
L 4378 1100 
Q 4259 853 4084 640 
Q 3909 428 3673 272 
Q 3438 116 3139 26 
Q 2841 -63 2472 -63 
Q 1938 -63 1536 107 
Q 1134 278 864 583 
Q 594 888 459 1306 
Q 325 1725 325 2222 
Q 325 2738 467 3153 
Q 609 3569 882 3861 
Q 1156 4153 1556 4311 
Q 1956 4469 2469 4469 
Q 3172 4469 3644 4194 
Q 4116 3919 4338 3378 
L 3772 3191 
Q 3709 3347 3603 3489 
Q 3497 3631 3337 3740 
Q 3178 3850 2964 3915 
Q 2750 3981 2475 3981 
z
" transform="scale(0.015625)"/>
      <path id="LiberationSans-74" d="M 1731 25 
Q 1603 -9 1470 -29 
Q 1338 -50 1163 -50 
Q 488 -50 488 716 
L 488 2972 
L 97 2972 
L 97 3381 
L 509 3381 
L 675 4138 
L 1050 4138 
L 1050 3381 
L 1675 3381 
L 1675 2972 
L 1050 2972 
L 1050 838 
Q 1050 594 1129 495 
Q 1209 397 1406 397 
Q 1488 397 1564 409 
Q 1641 422 1731 441 
L 1731 25 
z
" transform="scale(0.015625)"/>
     </defs>
     <use xlink:href="#LiberationSans-44"/>
     <use xlink:href="#LiberationSans-61" x="72.216797"/>
     <use xlink:href="#LiberationSans-69" x="127.832031"/>
     <use xlink:href="#LiberationSans-6c" x="150.048828"/>
     <use xlink:href="#LiberationSans-79" x="172.265625"/>
     <use xlink:href="#LiberationSans-20" x="222.265625"/>
     <use xlink:href="#LiberationSans-44" x="250.048828"/>
     <use xlink:href="#LiberationSans-6f" x="322.265625"/>
     <use xlink:href="#LiberationSans-77" x="377.880859"/>
     <use xlink:href="#LiberationSans-6e" x="450.097656"/>
     <use xlink:href="#LiberationSans-6c" x="505.712891"/>
     <use xlink:href="#LiberationSans-6f" x="527.929688"/>
     <use xlink:href="#LiberationSans-61" x="583.544922"/>
     <use xlink:href="#LiberationSans-64" x="639.160156"/>
     <use xlink:href="#LiberationSans-20" x="694.775391"/>
     <use xlink:href="#LiberationSans-43" x="722.558594"/>
     <use xlink:href="#LiberationSans-6f" x="794.775391"/>
     <use xlink:href="#LiberationSans-75" x="850.390625"/>
     <use xlink:href="#LiberationSans-6e" x="906.005859"/>
     <use xlink:href="#LiberationSans-74" x="961.621094"/>
    </g>
   </g>
   <g id="legend_1">
    <g id="line2d_39">
     <path d="M 43.304927 30.443365 
L 53.304927 30.443365 
L 63.304927 30.443365 
" style="fill: none; stroke: #08f7fe; stroke-width: 1.5; stroke-linecap: round"/>
    </g>
    <g id="text_20">
     <!-- Craftimizer -->
     <g style="fill: #e6e6e6" transform="translate(71.304927 33.943365) scale(0.1 -0.1)">
      <defs>
       <path id="LiberationSans-72" d="M 444 0 
L 444 2594 
Q 444 2700 442 2811 
Q 441 2922 437 3025 
Q 434 3128 431 3218 
Q 428 3309 425 3381 
L 956 3381 
Q 959 3309 964 3217 
Q 969 3125 973 3028 
Q 978 2931 979 2842 
Q 981 2753 981 2691 
L 994 2691 
Q 1053 2884 1120 3026 
Q 1188 3169 1278 3261 
Q 1369 3353 1494 3398 
Q 1619 3444 1797 3444 
Q 1866 3444 1928 3433 
Q 1991 3422 2025 3413 
L 2025 2897 
Q 1969 2913 1894 2920 
Q 1819 2928 1725 2928 
Q 1531 2928 1395 2840 
Q 1259 2753 1173 2598 
Q 1088 2444 1047 2230 
Q 1006 2016 1006 1763 
L 1006 0 
L 444 0 
z
" transform="scale(0.015625)"/>
       <path id="LiberationSans-66" d="M 1128 2972 
L 1128 0 
L 566 0 
L 566 2972 
L 91 2972 
L 91 3381 
L 566 3381 
L 566 3763 
Q 566 3947 600 4105 
Q 634 4263 726 4380 
Q 819 4497 978 4564 
Q 1138 4631 1391 4631 
Q 1491 4631 1598 4622 
Q 1706 4613 1788 4594 
L 1788 4166 
Q 1734 4175 1664 4183 
Q 1594 4191 1538 4191 
Q 1413 4191 1333 4156 
Q 1253 4122 1208 4058 
Q 1163 3994 1145 3900 
Q 1128 3806 1128 3684 
L 1128 3381 
L 1788 3381 
L 1788 2972 
L 1128 2972 
z
" transform="scale(0.015625)"/>
       <path id="LiberationSans-6d" d="M 2400 0 
L 2400 2144 
Q 2400 2391 2369 2556 
Q 2338 2722 2264 2823 
Q 2191 2925 2072 2967 
Q 1953 3009 1781 3009 
Q 1603 3009 1459 2939 
Q 1316 2869 1214 2736 
Q 1113 2603 1058 2408 
Q 1003 2213 1003 1959 
L 1003 0 
L 444 0 
L 444 2659 
Q 444 2766 442 2883 
Q 441 3000 437 3104 
Q 434 3209 431 3284 
Q 428 3359 425 3381 
L 956 3381 
Q 959 3366 962 3297 
Q 966 3228 970 3139 
Q 975 3050 978 2958 
Q 981 2866 981 2803 
L 991 2803 
Q 1066 2950 1153 3069 
Q 1241 3188 1358 3270 
Q 1475 3353 1626 3398 
Q 1778 3444 1978 3444 
Q 2363 3444 2586 3291 
Q 2809 3138 2897 2803 
L 2906 2803 
Q 2981 2950 3075 3069 
Q 3169 3188 3294 3270 
Q 3419 3353 3575 3398 
Q 3731 3444 3931 3444 
Q 4188 3444 4373 3375 
Q 4559 3306 4678 3162 
Q 4797 3019 4853 2792 
Q 4909 2566 4909 2253 
L 4909 0 
L 4353 0 
L 4353 2144 
Q 4353 2391 4322 2556 
Q 4291 2722 4217 2823 
Q 4144 2925 4025 2967 
Q 3906 3009 3734 3009 
Q 3556 3009 3412 2942 
Q 3269 2875 3167 2744 
Q 3066 2613 3011 2416 
Q 2956 2219 2956 1959 
L 2956 0 
L 2400 0 
z
" transform="scale(0.015625)"/>
       <path id="LiberationSans-7a" d="M 153 0 
L 153 428 
L 2219 2947 
L 278 2947 
L 278 3381 
L 2853 3381 
L 2853 2953 
L 784 434 
L 2969 434 
L 2969 0 
L 153 0 
z
" transform="scale(0.015625)"/>
       <path id="LiberationSans-65" d="M 863 1572 
Q 863 1306 917 1082 
Q 972 859 1086 698 
Q 1200 538 1378 448 
Q 1556 359 1806 359 
Q 2172 359 2392 506 
Q 2613 653 2691 878 
L 3184 738 
Q 3131 597 3036 455 
Q 2941 313 2781 198 
Q 2622 84 2383 10 
Q 2144 -63 1806 -63 
Q 1056 -63 664 384 
Q 272 831 272 1713 
Q 272 2188 390 2517 
Q 509 2847 715 3053 
Q 922 3259 1197 3351 
Q 1472 3444 1784 3444 
Q 2209 3444 2495 3306 
Q 2781 3169 2954 2926 
Q 3128 2684 3201 2356 
Q 3275 2028 3275 1647 
L 3275 1572 
L 863 1572 
z
M 2694 2003 
Q 2647 2538 2422 2783 
Q 2197 3028 1775 3028 
Q 1634 3028 1479 2983 
Q 1325 2938 1194 2822 
Q 1063 2706 972 2507 
Q 881 2309 869 2003 
L 2694 2003 
z
" transform="scale(0.015625)"/>
      </defs>
      <use xlink:href="#LiberationSans-43"/>
      <use xlink:href="#LiberationSans-72" x="72.216797"/>
      <use xlink:href="#LiberationSans-61" x="105.517578"/>
      <use xlink:href="#LiberationSans-66" x="161.132812"/>
      <use xlink:href="#LiberationSans-74" x="188.916016"/>
      <use xlink:href="#LiberationSans-69" x="216.699219"/>
      <use xlink:href="#LiberationSans-6d" x="238.916016"/>
      <use xlink:href="#LiberationSans-69" x="322.216797"/>
      <use xlink:href="#LiberationSans-7a" x="344.433594"/>
      <use xlink:href="#LiberationSans-65" x="394.433594"/>
      <use xlink:href="#LiberationSans-72" x="450.048828"/>
     </g>
    </g>
    <g id="line2d_40">
     <path d="M 43.304927 44.76524 
L 53.304927 44.76524 
L 63.304927 44.76524 
" style="fill: none; stroke: #fe53bb; stroke-width: 1.5; stroke-linecap: round"/>
    </g>
    <g id="text_21">
     <!-- ItemIcons -->
     <g style="fill: #e6e6e6" transform="translate(71.304927 48.26524) scale(0.1 -0.1)">
      <defs>
       <path id="LiberationSans-49" d="M 591 0 
L 591 4403 
L 1188 4403 
L 1188 0 
L 591 0 
z
" transform="scale(0.015625)"/>
       <path id="LiberationSans-63" d="M 859 1706 
Q 859 1416 901 1172 
Q 944 928 1044 751 
Q 1144 575 1308 478 
Q 1472 381 1713 381 
Q 2013 381 2214 543 
Q 2416 706 2463 1044 
L 3031 1006 
Q 3003 797 2909 603 
Q 2816 409 2655 262 
Q 2494 116 2262 26 
Q 2031 -63 1728 -63 
Q 1331 -63 1053 71 
Q 775 206 601 442 
Q 428 678 350 998 
Q 272 1319 272 1694 
Q 272 2034 328 2295 
Q 384 2556 486 2751 
Q 588 2947 725 3080 
Q 863 3213 1023 3292 
Q 1184 3372 1362 3408 
Q 1541 3444 1722 3444 
Q 2006 3444 2228 3366 
Q 2450 3288 2611 3152 
Q 2772 3016 2872 2831 
Q 2972 2647 3013 2434 
L 2434 2391 
Q 2391 2672 2212 2837 
Q 2034 3003 1706 3003 
Q 1466 3003 1305 2923 
Q 1144 2844 1044 2683 
Q 944 2522 901 2278 
Q 859 2034 859 1706 
z
" transform="scale(0.015625)"/>
       <path id="LiberationSans-73" d="M 2969 934 
Q 2969 697 2876 511 
Q 2784 325 2609 198 
Q 2434 72 2179 4 
Q 1925 -63 1597 -63 
Q 1303 -63 1067 -17 
Q 831 28 653 128 
Q 475 228 354 392 
Q 234 556 178 794 
L 675 891 
Q 747 619 972 492 
Q 1197 366 1597 366 
Q 1778 366 1929 391 
Q 2081 416 2190 477 
Q 2300 538 2361 639 
Q 2422 741 2422 891 
Q 2422 1044 2350 1142 
Q 2278 1241 2150 1306 
Q 2022 1372 1839 1420 
Q 1656 1469 1438 1528 
Q 1234 1581 1034 1647 
Q 834 1713 673 1820 
Q 513 1928 413 2087 
Q 313 2247 313 2488 
Q 313 2950 642 3192 
Q 972 3434 1603 3434 
Q 2163 3434 2492 3237 
Q 2822 3041 2909 2606 
L 2403 2544 
Q 2375 2675 2300 2764 
Q 2225 2853 2119 2908 
Q 2013 2963 1880 2986 
Q 1747 3009 1603 3009 
Q 1222 3009 1040 2893 
Q 859 2778 859 2544 
Q 859 2406 926 2317 
Q 994 2228 1114 2167 
Q 1234 2106 1403 2061 
Q 1572 2016 1775 1966 
Q 1909 1931 2050 1892 
Q 2191 1853 2323 1798 
Q 2456 1744 2573 1670 
Q 2691 1597 2778 1494 
Q 2866 1391 2917 1253 
Q 2969 1116 2969 934 
z
" transform="scale(0.015625)"/>
      </defs>
      <use xlink:href="#LiberationSans-49"/>
      <use xlink:href="#LiberationSans-74" x="27.783203"/>
      <use xlink:href="#LiberationSans-65" x="55.566406"/>
      <use xlink:href="#LiberationSans-6d" x="111.181641"/>
      <use xlink:href="#LiberationSans-49" x="194.482422"/>
      <use xlink:href="#LiberationSans-63" x="222.265625"/>
      <use xlink:href="#LiberationSans-6f" x="272.265625"/>
      <use xlink:href="#LiberationSans-6e" x="327.880859"/>
      <use xlink:href="#LiberationSans-73" x="383.496094"/>
     </g>
    </g>
    <g id="line2d_41">
     <path d="M 43.304927 59.087115 
L 53.304927 59.087115 
L 63.304927 59.087115 
" style="fill: none; stroke: #f5d300; stroke-width: 1.5; stroke-linecap: round"/>
    </g>
    <g id="text_22">
     <!-- SomethingNeedDoing -->
     <g style="fill: #e6e6e6" transform="translate(71.304927 62.587115) scale(0.1 -0.1)">
      <defs>
       <path id="LiberationSans-53" d="M 3975 1216 
Q 3975 938 3867 703 
Q 3759 469 3534 298 
Q 3309 128 2967 32 
Q 2625 -63 2156 -63 
Q 1334 -63 875 225 
Q 416 513 291 1056 
L 869 1172 
Q 913 1000 1003 859 
Q 1094 719 1248 617 
Q 1403 516 1631 459 
Q 1859 403 2178 403 
Q 2444 403 2666 448 
Q 2888 494 3047 587 
Q 3206 681 3295 829 
Q 3384 978 3384 1184 
Q 3384 1400 3286 1534 
Q 3188 1669 3009 1756 
Q 2831 1844 2584 1903 
Q 2338 1963 2038 2031 
Q 1853 2072 1667 2120 
Q 1481 2169 1311 2236 
Q 1141 2303 991 2393 
Q 841 2484 731 2611 
Q 622 2738 559 2905 
Q 497 3072 497 3291 
Q 497 3603 623 3826 
Q 750 4050 975 4194 
Q 1200 4338 1506 4403 
Q 1813 4469 2169 4469 
Q 2578 4469 2868 4405 
Q 3159 4341 3359 4212 
Q 3559 4084 3679 3895 
Q 3800 3706 3872 3456 
L 3284 3353 
Q 3241 3513 3158 3638 
Q 3075 3763 2940 3847 
Q 2806 3931 2614 3975 
Q 2422 4019 2163 4019 
Q 1856 4019 1648 3964 
Q 1441 3909 1314 3815 
Q 1188 3722 1133 3595 
Q 1078 3469 1078 3322 
Q 1078 3125 1176 2998 
Q 1275 2872 1444 2787 
Q 1613 2703 1834 2647 
Q 2056 2591 2306 2534 
Q 2509 2488 2711 2439 
Q 2913 2391 3097 2323 
Q 3281 2256 3442 2165 
Q 3603 2075 3722 1944 
Q 3841 1813 3908 1634 
Q 3975 1456 3975 1216 
z
" transform="scale(0.015625)"/>
       <path id="LiberationSans-68" d="M 991 2803 
Q 1084 2975 1193 3095 
Q 1303 3216 1434 3294 
Q 1566 3372 1722 3408 
Q 1878 3444 2072 3444 
Q 2397 3444 2605 3356 
Q 2813 3269 2933 3111 
Q 3053 2953 3098 2734 
Q 3144 2516 3144 2253 
L 3144 0 
L 2578 0 
L 2578 2144 
Q 2578 2359 2551 2521 
Q 2525 2684 2450 2792 
Q 2375 2900 2237 2954 
Q 2100 3009 1881 3009 
Q 1681 3009 1520 2937 
Q 1359 2866 1245 2734 
Q 1131 2603 1068 2415 
Q 1006 2228 1006 1994 
L 1006 0 
L 444 0 
L 444 4638 
L 1006 4638 
L 1006 3431 
Q 1006 3328 1003 3225 
Q 1000 3122 995 3034 
Q 991 2947 987 2886 
Q 984 2825 981 2803 
L 991 2803 
z
" transform="scale(0.015625)"/>
       <path id="LiberationSans-67" d="M 1713 -1328 
Q 1422 -1328 1197 -1268 
Q 972 -1209 812 -1098 
Q 653 -988 553 -834 
Q 453 -681 409 -494 
L 975 -413 
Q 1031 -647 1223 -773 
Q 1416 -900 1728 -900 
Q 1919 -900 2075 -847 
Q 2231 -794 2340 -676 
Q 2450 -559 2509 -371 
Q 2569 -184 2569 84 
L 2569 628 
L 2563 628 
Q 2500 500 2408 383 
Q 2316 266 2183 175 
Q 2050 84 1875 29 
Q 1700 -25 1475 -25 
Q 1153 -25 923 83 
Q 694 191 548 406 
Q 403 622 336 942 
Q 269 1263 269 1684 
Q 269 2091 336 2416 
Q 403 2741 554 2967 
Q 706 3194 948 3314 
Q 1191 3434 1538 3434 
Q 1897 3434 2161 3270 
Q 2425 3106 2569 2803 
L 2575 2803 
Q 2575 2881 2579 2978 
Q 2584 3075 2589 3161 
Q 2594 3247 2600 3309 
Q 2606 3372 2613 3381 
L 3147 3381 
Q 3144 3353 3141 3286 
Q 3138 3219 3134 3125 
Q 3131 3031 3129 2917 
Q 3128 2803 3128 2681 
L 3128 97 
Q 3128 -613 2779 -970 
Q 2431 -1328 1713 -1328 
z
M 2569 1691 
Q 2569 2044 2492 2295 
Q 2416 2547 2291 2706 
Q 2166 2866 2005 2941 
Q 1844 3016 1675 3016 
Q 1459 3016 1304 2941 
Q 1150 2866 1048 2705 
Q 947 2544 898 2292 
Q 850 2041 850 1691 
Q 850 1325 898 1076 
Q 947 828 1047 675 
Q 1147 522 1300 456 
Q 1453 391 1666 391 
Q 1834 391 1995 462 
Q 2156 534 2284 690 
Q 2413 847 2491 1094 
Q 2569 1341 2569 1691 
z
" transform="scale(0.015625)"/>
       <path id="LiberationSans-4e" d="M 3381 0 
L 1025 3750 
Q 1031 3597 1041 3447 
Q 1047 3319 1051 3176 
Q 1056 3034 1056 2925 
L 1056 0 
L 525 0 
L 525 4403 
L 1219 4403 
L 3600 628 
Q 3591 781 3581 934 
Q 3575 1066 3569 1220 
Q 3563 1375 3563 1516 
L 3563 4403 
L 4100 4403 
L 4100 0 
L 3381 0 
z
" transform="scale(0.015625)"/>
      </defs>
      <use xlink:href="#LiberationSans-53"/>
      <use xlink:href="#LiberationSans-6f" x="66.699219"/>
      <use xlink:href="#LiberationSans-6d" x="122.314453"/>
      <use xlink:href="#LiberationSans-65" x="205.615234"/>
      <use xlink:href="#LiberationSans-74" x="261.230469"/>
      <use xlink:href="#LiberationSans-68" x="289.013672"/>
      <use xlink:href="#LiberationSans-69" x="344.628906"/>
      <use xlink:href="#LiberationSans-6e" x="366.845703"/>
      <use xlink:href="#LiberationSans-67" x="422.460938"/>
      <use xlink:href="#LiberationSans-4e" x="478.076172"/>
      <use xlink:href="#LiberationSans-65" x="550.292969"/>
      <use xlink:href="#LiberationSans-65" x="605.908203"/>
      <use xlink:href="#LiberationSans-64" x="661.523438"/>
      <use xlink:href="#LiberationSans-44" x="717.138672"/>
      <use xlink:href="#LiberationSans-6f" x="789.355469"/>
      <use xlink:href="#LiberationSans-69" x="844.970703"/>
      <use xlink:href="#LiberationSans-6e" x="867.1875"/>
      <use xlink:href="#LiberationSans-67" x="922.802734"/>
     </g>
    </g>
    <g id="line2d_42">
     <path d="M 43.304927 73.40899 
L 53.304927 73.40899 
L 63.304927 73.40899 
" style="fill: none; stroke: #00ff41; stroke-width: 1.5; stroke-linecap: round"/>
    </g>
    <g id="text_23">
     <!-- Waitingway.Dalamud -->
     <g style="fill: #e6e6e6" transform="translate(71.304927 76.90899) scale(0.1 -0.1)">
      <defs>
       <path id="LiberationSans-57" d="M 4722 0 
L 4009 0 
L 3247 2797 
Q 3213 2916 3173 3078 
Q 3134 3241 3103 3388 
Q 3066 3559 3028 3738 
Q 2988 3556 2950 3384 
Q 2916 3234 2878 3075 
Q 2841 2916 2806 2797 
L 2038 0 
L 1325 0 
L 28 4403 
L 650 4403 
L 1441 1606 
Q 1494 1409 1542 1215 
Q 1591 1022 1625 869 
Q 1666 688 1700 525 
Q 1747 741 1797 950 
Q 1819 1038 1841 1134 
Q 1863 1231 1886 1325 
Q 1909 1419 1932 1505 
Q 1956 1591 1975 1663 
L 2741 4403 
L 3313 4403 
L 4078 1663 
Q 4097 1591 4120 1505 
Q 4144 1419 4167 1326 
Q 4191 1234 4212 1137 
Q 4234 1041 4256 953 
Q 4306 744 4353 525 
Q 4356 525 4381 633 
Q 4406 741 4443 903 
Q 4481 1066 4526 1255 
Q 4572 1444 4619 1606 
L 5397 4403 
L 6019 4403 
L 4722 0 
z
" transform="scale(0.015625)"/>
       <path id="LiberationSans-2e" d="M 584 0 
L 584 684 
L 1194 684 
L 1194 0 
L 584 0 
z
" transform="scale(0.015625)"/>
      </defs>
      <use xlink:href="#LiberationSans-57"/>
      <use xlink:href="#LiberationSans-61" x="90.634766"/>
      <use xlink:href="#LiberationSans-69" x="146.25"/>
      <use xlink:href="#LiberationSans-74" x="168.466797"/>
      <use xlink:href="#LiberationSans-69" x="196.25"/>
      <use xlink:href="#LiberationSans-6e" x="218.466797"/>
      <use xlink:href="#LiberationSans-67" x="274.082031"/>
      <use xlink:href="#LiberationSans-77" x="329.697266"/>
      <use xlink:href="#LiberationSans-61" x="401.914062"/>
      <use xlink:href="#LiberationSans-79" x="457.529297"/>
      <use xlink:href="#LiberationSans-2e" x="500.154297"/>
      <use xlink:href="#LiberationSans-44" x="527.9375"/>
      <use xlink:href="#LiberationSans-61" x="600.154297"/>
      <use xlink:href="#LiberationSans-6c" x="655.769531"/>
      <use xlink:href="#LiberationSans-61" x="677.986328"/>
      <use xlink:href="#LiberationSans-6d" x="733.601562"/>
      <use xlink:href="#LiberationSans-75" x="816.902344"/>
      <use xlink:href="#LiberationSans-64" x="872.517578"/>
     </g>
    </g>
   </g>
  </g>
 </g>
 <defs>
  <clipPath id="pd3e5d4574e">
   <rect x="34.304927" y="17.69649" width="394.694833" height="242.15952"/>
  </clipPath>
 </defs>
</svg>
