<?xml version="1.0" encoding="utf-8" standalone="no"?>
<!DOCTYPE svg PUBLIC "-//W3C//DTD SVG 1.1//EN"
  "http://www.w3.org/Graphics/SVG/1.1/DTD/svg11.dtd">
<svg xmlns:xlink="http://www.w3.org/1999/xlink" width="432pt" height="288pt" viewBox="0 0 432 288" xmlns="http://www.w3.org/2000/svg" version="1.1">
 <metadata>
  <rdf:RDF xmlns:dc="http://purl.org/dc/elements/1.1/" xmlns:cc="http://creativecommons.org/ns#" xmlns:rdf="http://www.w3.org/1999/02/22-rdf-syntax-ns#">
   <cc:Work>
    <dc:type rdf:resource="http://purl.org/dc/dcmitype/StillImage"/>
    <dc:format>image/svg+xml</dc:format>
    <dc:creator>
     <cc:Agent>
      <dc:title>Matplotlib v3.9.2, https://matplotlib.org/</dc:title>
     </cc:Agent>
    </dc:creator>
   </cc:Work>
  </rdf:RDF>
 </metadata>
 <defs>
  <style type="text/css">*{stroke-linejoin: round; stroke-linecap: butt}</style>
 </defs>
 <g id="figure_1">
  <g id="patch_1">
   <path d="M 0 288 
L 432 288 
L 432 0 
L 0 0 
z
" style="fill: #212946"/>
  </g>
  <g id="axes_1">
   <g id="patch_2">
    <path d="M 31.95024 259.14351 
L 428.99976 259.14351 
L 428.99976 18.118365 
L 31.95024 18.118365 
z
" style="fill: #212946"/>
   </g>
   <g id="matplotlib.axis_1">
    <g id="xtick_1">
     <g id="line2d_1">
      <path d="M 61.641626 259.14351 
L 61.641626 18.118365 
" clip-path="url(#p765c8b8931)" style="fill: none; stroke: #2a3459; stroke-width: 0.8; stroke-linecap: round"/>
     </g>
     <g id="line2d_2"/>
     <g id="text_1">
      <!-- 25 -->
      <g style="fill: #e6e6e6" transform="translate(55.279126 270.241947) scale(0.1 -0.1)">
       <defs>
        <path id="DejaVuSans-32" d="M 1228 531 
L 3431 531 
L 3431 0 
L 469 0 
L 469 531 
Q 828 903 1448 1529 
Q 2069 2156 2228 2338 
Q 2531 2678 2651 2914 
Q 2772 3150 2772 3378 
Q 2772 3750 2511 3984 
Q 2250 4219 1831 4219 
Q 1534 4219 1204 4116 
Q 875 4013 500 3803 
L 500 4441 
Q 881 4594 1212 4672 
Q 1544 4750 1819 4750 
Q 2544 4750 2975 4387 
Q 3406 4025 3406 3419 
Q 3406 3131 3298 2873 
Q 3191 2616 2906 2266 
Q 2828 2175 2409 1742 
Q 1991 1309 1228 531 
z
" transform="scale(0.015625)"/>
        <path id="DejaVuSans-35" d="M 691 4666 
L 3169 4666 
L 3169 4134 
L 1269 4134 
L 1269 2991 
Q 1406 3038 1543 3061 
Q 1681 3084 1819 3084 
Q 2600 3084 3056 2656 
Q 3513 2228 3513 1497 
Q 3513 744 3044 326 
Q 2575 -91 1722 -91 
Q 1428 -91 1123 -41 
Q 819 9 494 109 
L 494 744 
Q 775 591 1075 516 
Q 1375 441 1709 441 
Q 2250 441 2565 725 
Q 2881 1009 2881 1497 
Q 2881 1984 2565 2268 
Q 2250 2553 1709 2553 
Q 1456 2553 1204 2497 
Q 953 2441 691 2322 
L 691 4666 
z
" transform="scale(0.015625)"/>
       </defs>
       <use xlink:href="#DejaVuSans-32"/>
       <use xlink:href="#DejaVuSans-35" x="63.623047"/>
      </g>
     </g>
    </g>
    <g id="xtick_2">
     <g id="line2d_3">
      <path d="M 108.21635 259.14351 
L 108.21635 18.118365 
" clip-path="url(#p765c8b8931)" style="fill: none; stroke: #2a3459; stroke-width: 0.8; stroke-linecap: round"/>
     </g>
     <g id="line2d_4"/>
     <g id="text_2">
      <!-- 29 -->
      <g style="fill: #e6e6e6" transform="translate(101.85385 270.241947) scale(0.1 -0.1)">
       <defs>
        <path id="DejaVuSans-39" d="M 703 97 
L 703 672 
Q 941 559 1184 500 
Q 1428 441 1663 441 
Q 2288 441 2617 861 
Q 2947 1281 2994 2138 
Q 2813 1869 2534 1725 
Q 2256 1581 1919 1581 
Q 1219 1581 811 2004 
Q 403 2428 403 3163 
Q 403 3881 828 4315 
Q 1253 4750 1959 4750 
Q 2769 4750 3195 4129 
Q 3622 3509 3622 2328 
Q 3622 1225 3098 567 
Q 2575 -91 1691 -91 
Q 1453 -91 1209 -44 
Q 966 3 703 97 
z
M 1959 2075 
Q 2384 2075 2632 2365 
Q 2881 2656 2881 3163 
Q 2881 3666 2632 3958 
Q 2384 4250 1959 4250 
Q 1534 4250 1286 3958 
Q 1038 3666 1038 3163 
Q 1038 2656 1286 2365 
Q 1534 2075 1959 2075 
z
" transform="scale(0.015625)"/>
       </defs>
       <use xlink:href="#DejaVuSans-32"/>
       <use xlink:href="#DejaVuSans-39" x="63.623047"/>
      </g>
     </g>
    </g>
    <g id="xtick_3">
     <g id="line2d_5">
      <path d="M 143.147393 259.14351 
L 143.147393 18.118365 
" clip-path="url(#p765c8b8931)" style="fill: none; stroke: #2a3459; stroke-width: 0.8; stroke-linecap: round"/>
     </g>
     <g id="line2d_6"/>
     <g id="text_3">
      <!-- Sep -->
      <g style="fill: #e6e6e6" transform="translate(133.722393 270.241947) scale(0.1 -0.1)">
       <defs>
        <path id="DejaVuSans-53" d="M 3425 4513 
L 3425 3897 
Q 3066 4069 2747 4153 
Q 2428 4238 2131 4238 
Q 1616 4238 1336 4038 
Q 1056 3838 1056 3469 
Q 1056 3159 1242 3001 
Q 1428 2844 1947 2747 
L 2328 2669 
Q 3034 2534 3370 2195 
Q 3706 1856 3706 1288 
Q 3706 609 3251 259 
Q 2797 -91 1919 -91 
Q 1588 -91 1214 -16 
Q 841 59 441 206 
L 441 856 
Q 825 641 1194 531 
Q 1563 422 1919 422 
Q 2459 422 2753 634 
Q 3047 847 3047 1241 
Q 3047 1584 2836 1778 
Q 2625 1972 2144 2069 
L 1759 2144 
Q 1053 2284 737 2584 
Q 422 2884 422 3419 
Q 422 4038 858 4394 
Q 1294 4750 2059 4750 
Q 2388 4750 2728 4690 
Q 3069 4631 3425 4513 
z
" transform="scale(0.015625)"/>
        <path id="DejaVuSans-65" d="M 3597 1894 
L 3597 1613 
L 953 1613 
Q 991 1019 1311 708 
Q 1631 397 2203 397 
Q 2534 397 2845 478 
Q 3156 559 3463 722 
L 3463 178 
Q 3153 47 2828 -22 
Q 2503 -91 2169 -91 
Q 1331 -91 842 396 
Q 353 884 353 1716 
Q 353 2575 817 3079 
Q 1281 3584 2069 3584 
Q 2775 3584 3186 3129 
Q 3597 2675 3597 1894 
z
M 3022 2063 
Q 3016 2534 2758 2815 
Q 2500 3097 2075 3097 
Q 1594 3097 1305 2825 
Q 1016 2553 972 2059 
L 3022 2063 
z
" transform="scale(0.015625)"/>
        <path id="DejaVuSans-70" d="M 1159 525 
L 1159 -1331 
L 581 -1331 
L 581 3500 
L 1159 3500 
L 1159 2969 
Q 1341 3281 1617 3432 
Q 1894 3584 2278 3584 
Q 2916 3584 3314 3078 
Q 3713 2572 3713 1747 
Q 3713 922 3314 415 
Q 2916 -91 2278 -91 
Q 1894 -91 1617 61 
Q 1341 213 1159 525 
z
M 3116 1747 
Q 3116 2381 2855 2742 
Q 2594 3103 2138 3103 
Q 1681 3103 1420 2742 
Q 1159 2381 1159 1747 
Q 1159 1113 1420 752 
Q 1681 391 2138 391 
Q 2594 391 2855 752 
Q 3116 1113 3116 1747 
z
" transform="scale(0.015625)"/>
       </defs>
       <use xlink:href="#DejaVuSans-53"/>
       <use xlink:href="#DejaVuSans-65" x="63.476562"/>
       <use xlink:href="#DejaVuSans-70" x="125"/>
      </g>
     </g>
    </g>
    <g id="xtick_4">
     <g id="line2d_7">
      <path d="M 189.722117 259.14351 
L 189.722117 18.118365 
" clip-path="url(#p765c8b8931)" style="fill: none; stroke: #2a3459; stroke-width: 0.8; stroke-linecap: round"/>
     </g>
     <g id="line2d_8"/>
     <g id="text_4">
      <!-- 05 -->
      <g style="fill: #e6e6e6" transform="translate(183.359617 270.241947) scale(0.1 -0.1)">
       <defs>
        <path id="DejaVuSans-30" d="M 2034 4250 
Q 1547 4250 1301 3770 
Q 1056 3291 1056 2328 
Q 1056 1369 1301 889 
Q 1547 409 2034 409 
Q 2525 409 2770 889 
Q 3016 1369 3016 2328 
Q 3016 3291 2770 3770 
Q 2525 4250 2034 4250 
z
M 2034 4750 
Q 2819 4750 3233 4129 
Q 3647 3509 3647 2328 
Q 3647 1150 3233 529 
Q 2819 -91 2034 -91 
Q 1250 -91 836 529 
Q 422 1150 422 2328 
Q 422 3509 836 4129 
Q 1250 4750 2034 4750 
z
" transform="scale(0.015625)"/>
       </defs>
       <use xlink:href="#DejaVuSans-30"/>
       <use xlink:href="#DejaVuSans-35" x="63.623047"/>
      </g>
     </g>
    </g>
    <g id="xtick_5">
     <g id="line2d_9">
      <path d="M 236.29684 259.14351 
L 236.29684 18.118365 
" clip-path="url(#p765c8b8931)" style="fill: none; stroke: #2a3459; stroke-width: 0.8; stroke-linecap: round"/>
     </g>
     <g id="line2d_10"/>
     <g id="text_5">
      <!-- 09 -->
      <g style="fill: #e6e6e6" transform="translate(229.93434 270.241947) scale(0.1 -0.1)">
       <use xlink:href="#DejaVuSans-30"/>
       <use xlink:href="#DejaVuSans-39" x="63.623047"/>
      </g>
     </g>
    </g>
    <g id="xtick_6">
     <g id="line2d_11">
      <path d="M 282.871564 259.14351 
L 282.871564 18.118365 
" clip-path="url(#p765c8b8931)" style="fill: none; stroke: #2a3459; stroke-width: 0.8; stroke-linecap: round"/>
     </g>
     <g id="line2d_12"/>
     <g id="text_6">
      <!-- 13 -->
      <g style="fill: #e6e6e6" transform="translate(276.509064 270.241947) scale(0.1 -0.1)">
       <defs>
        <path id="DejaVuSans-31" d="M 794 531 
L 1825 531 
L 1825 4091 
L 703 3866 
L 703 4441 
L 1819 4666 
L 2450 4666 
L 2450 531 
L 3481 531 
L 3481 0 
L 794 0 
L 794 531 
z
" transform="scale(0.015625)"/>
        <path id="DejaVuSans-33" d="M 2597 2516 
Q 3050 2419 3304 2112 
Q 3559 1806 3559 1356 
Q 3559 666 3084 287 
Q 2609 -91 1734 -91 
Q 1441 -91 1130 -33 
Q 819 25 488 141 
L 488 750 
Q 750 597 1062 519 
Q 1375 441 1716 441 
Q 2309 441 2620 675 
Q 2931 909 2931 1356 
Q 2931 1769 2642 2001 
Q 2353 2234 1838 2234 
L 1294 2234 
L 1294 2753 
L 1863 2753 
Q 2328 2753 2575 2939 
Q 2822 3125 2822 3475 
Q 2822 3834 2567 4026 
Q 2313 4219 1838 4219 
Q 1578 4219 1281 4162 
Q 984 4106 628 3988 
L 628 4550 
Q 988 4650 1302 4700 
Q 1616 4750 1894 4750 
Q 2613 4750 3031 4423 
Q 3450 4097 3450 3541 
Q 3450 3153 3228 2886 
Q 3006 2619 2597 2516 
z
" transform="scale(0.015625)"/>
       </defs>
       <use xlink:href="#DejaVuSans-31"/>
       <use xlink:href="#DejaVuSans-33" x="63.623047"/>
      </g>
     </g>
    </g>
    <g id="xtick_7">
     <g id="line2d_13">
      <path d="M 329.446288 259.14351 
L 329.446288 18.118365 
" clip-path="url(#p765c8b8931)" style="fill: none; stroke: #2a3459; stroke-width: 0.8; stroke-linecap: round"/>
     </g>
     <g id="line2d_14"/>
     <g id="text_7">
      <!-- 17 -->
      <g style="fill: #e6e6e6" transform="translate(323.083788 270.241947) scale(0.1 -0.1)">
       <defs>
        <path id="DejaVuSans-37" d="M 525 4666 
L 3525 4666 
L 3525 4397 
L 1831 0 
L 1172 0 
L 2766 4134 
L 525 4134 
L 525 4666 
z
" transform="scale(0.015625)"/>
       </defs>
       <use xlink:href="#DejaVuSans-31"/>
       <use xlink:href="#DejaVuSans-37" x="63.623047"/>
      </g>
     </g>
    </g>
    <g id="xtick_8">
     <g id="line2d_15">
      <path d="M 376.021012 259.14351 
L 376.021012 18.118365 
" clip-path="url(#p765c8b8931)" style="fill: none; stroke: #2a3459; stroke-width: 0.8; stroke-linecap: round"/>
     </g>
     <g id="line2d_16"/>
     <g id="text_8">
      <!-- 21 -->
      <g style="fill: #e6e6e6" transform="translate(369.658512 270.241947) scale(0.1 -0.1)">
       <use xlink:href="#DejaVuSans-32"/>
       <use xlink:href="#DejaVuSans-31" x="63.623047"/>
      </g>
     </g>
    </g>
    <g id="xtick_9">
     <g id="line2d_17">
      <path d="M 422.595735 259.14351 
L 422.595735 18.118365 
" clip-path="url(#p765c8b8931)" style="fill: none; stroke: #2a3459; stroke-width: 0.8; stroke-linecap: round"/>
     </g>
     <g id="line2d_18"/>
     <g id="text_9">
      <!-- 25 -->
      <g style="fill: #e6e6e6" transform="translate(416.233235 270.241947) scale(0.1 -0.1)">
       <use xlink:href="#DejaVuSans-32"/>
       <use xlink:href="#DejaVuSans-35" x="63.623047"/>
      </g>
     </g>
    </g>
    <g id="text_10">
     <!-- 2024-Sep -->
     <g style="fill: #e6e6e6" transform="translate(381.091948 282.920073) scale(0.1 -0.1)">
      <defs>
       <path id="DejaVuSans-34" d="M 2419 4116 
L 825 1625 
L 2419 1625 
L 2419 4116 
z
M 2253 4666 
L 3047 4666 
L 3047 1625 
L 3713 1625 
L 3713 1100 
L 3047 1100 
L 3047 0 
L 2419 0 
L 2419 1100 
L 313 1100 
L 313 1709 
L 2253 4666 
z
" transform="scale(0.015625)"/>
       <path id="DejaVuSans-2d" d="M 313 2009 
L 1997 2009 
L 1997 1497 
L 313 1497 
L 313 2009 
z
" transform="scale(0.015625)"/>
      </defs>
      <use xlink:href="#DejaVuSans-32"/>
      <use xlink:href="#DejaVuSans-30" x="63.623047"/>
      <use xlink:href="#DejaVuSans-32" x="127.246094"/>
      <use xlink:href="#DejaVuSans-34" x="190.869141"/>
      <use xlink:href="#DejaVuSans-2d" x="254.492188"/>
      <use xlink:href="#DejaVuSans-53" x="290.576172"/>
      <use xlink:href="#DejaVuSans-65" x="354.052734"/>
      <use xlink:href="#DejaVuSans-70" x="415.576172"/>
     </g>
    </g>
   </g>
   <g id="matplotlib.axis_2">
    <g id="ytick_1">
     <g id="line2d_19">
      <path d="M 31.95024 248.187822 
L 428.99976 248.187822 
" clip-path="url(#p765c8b8931)" style="fill: none; stroke: #2a3459; stroke-width: 0.8; stroke-linecap: round"/>
     </g>
     <g id="line2d_20"/>
     <g id="text_11">
      <!-- 0 -->
      <g style="fill: #e6e6e6" transform="translate(22.08774 251.98704) scale(0.1 -0.1)">
       <use xlink:href="#DejaVuSans-30"/>
      </g>
     </g>
    </g>
    <g id="ytick_2">
     <g id="line2d_21">
      <path d="M 31.95024 197.66003 
L 428.99976 197.66003 
" clip-path="url(#p765c8b8931)" style="fill: none; stroke: #2a3459; stroke-width: 0.8; stroke-linecap: round"/>
     </g>
     <g id="line2d_22"/>
     <g id="text_12">
      <!-- 2000 -->
      <g style="fill: #e6e6e6" transform="translate(3.00024 201.459249) scale(0.1 -0.1)">
       <use xlink:href="#DejaVuSans-32"/>
       <use xlink:href="#DejaVuSans-30" x="63.623047"/>
       <use xlink:href="#DejaVuSans-30" x="127.246094"/>
       <use xlink:href="#DejaVuSans-30" x="190.869141"/>
      </g>
     </g>
    </g>
    <g id="ytick_3">
     <g id="line2d_23">
      <path d="M 31.95024 147.132238 
L 428.99976 147.132238 
" clip-path="url(#p765c8b8931)" style="fill: none; stroke: #2a3459; stroke-width: 0.8; stroke-linecap: round"/>
     </g>
     <g id="line2d_24"/>
     <g id="text_13">
      <!-- 4000 -->
      <g style="fill: #e6e6e6" transform="translate(3.00024 150.931457) scale(0.1 -0.1)">
       <use xlink:href="#DejaVuSans-34"/>
       <use xlink:href="#DejaVuSans-30" x="63.623047"/>
       <use xlink:href="#DejaVuSans-30" x="127.246094"/>
       <use xlink:href="#DejaVuSans-30" x="190.869141"/>
      </g>
     </g>
    </g>
    <g id="ytick_4">
     <g id="line2d_25">
      <path d="M 31.95024 96.604447 
L 428.99976 96.604447 
" clip-path="url(#p765c8b8931)" style="fill: none; stroke: #2a3459; stroke-width: 0.8; stroke-linecap: round"/>
     </g>
     <g id="line2d_26"/>
     <g id="text_14">
      <!-- 6000 -->
      <g style="fill: #e6e6e6" transform="translate(3.00024 100.403666) scale(0.1 -0.1)">
       <defs>
        <path id="DejaVuSans-36" d="M 2113 2584 
Q 1688 2584 1439 2293 
Q 1191 2003 1191 1497 
Q 1191 994 1439 701 
Q 1688 409 2113 409 
Q 2538 409 2786 701 
Q 3034 994 3034 1497 
Q 3034 2003 2786 2293 
Q 2538 2584 2113 2584 
z
M 3366 4563 
L 3366 3988 
Q 3128 4100 2886 4159 
Q 2644 4219 2406 4219 
Q 1781 4219 1451 3797 
Q 1122 3375 1075 2522 
Q 1259 2794 1537 2939 
Q 1816 3084 2150 3084 
Q 2853 3084 3261 2657 
Q 3669 2231 3669 1497 
Q 3669 778 3244 343 
Q 2819 -91 2113 -91 
Q 1303 -91 875 529 
Q 447 1150 447 2328 
Q 447 3434 972 4092 
Q 1497 4750 2381 4750 
Q 2619 4750 2861 4703 
Q 3103 4656 3366 4563 
z
" transform="scale(0.015625)"/>
       </defs>
       <use xlink:href="#DejaVuSans-36"/>
       <use xlink:href="#DejaVuSans-30" x="63.623047"/>
       <use xlink:href="#DejaVuSans-30" x="127.246094"/>
       <use xlink:href="#DejaVuSans-30" x="190.869141"/>
      </g>
     </g>
    </g>
    <g id="ytick_5">
     <g id="line2d_27">
      <path d="M 31.95024 46.076655 
L 428.99976 46.076655 
" clip-path="url(#p765c8b8931)" style="fill: none; stroke: #2a3459; stroke-width: 0.8; stroke-linecap: round"/>
     </g>
     <g id="line2d_28"/>
     <g id="text_15">
      <!-- 8000 -->
      <g style="fill: #e6e6e6" transform="translate(3.00024 49.875874) scale(0.1 -0.1)">
       <defs>
        <path id="DejaVuSans-38" d="M 2034 2216 
Q 1584 2216 1326 1975 
Q 1069 1734 1069 1313 
Q 1069 891 1326 650 
Q 1584 409 2034 409 
Q 2484 409 2743 651 
Q 3003 894 3003 1313 
Q 3003 1734 2745 1975 
Q 2488 2216 2034 2216 
z
M 1403 2484 
Q 997 2584 770 2862 
Q 544 3141 544 3541 
Q 544 4100 942 4425 
Q 1341 4750 2034 4750 
Q 2731 4750 3128 4425 
Q 3525 4100 3525 3541 
Q 3525 3141 3298 2862 
Q 3072 2584 2669 2484 
Q 3125 2378 3379 2068 
Q 3634 1759 3634 1313 
Q 3634 634 3220 271 
Q 2806 -91 2034 -91 
Q 1263 -91 848 271 
Q 434 634 434 1313 
Q 434 1759 690 2068 
Q 947 2378 1403 2484 
z
M 1172 3481 
Q 1172 3119 1398 2916 
Q 1625 2713 2034 2713 
Q 2441 2713 2670 2916 
Q 2900 3119 2900 3481 
Q 2900 3844 2670 4047 
Q 2441 4250 2034 4250 
Q 1625 4250 1398 4047 
Q 1172 3844 1172 3481 
z
" transform="scale(0.015625)"/>
       </defs>
       <use xlink:href="#DejaVuSans-38"/>
       <use xlink:href="#DejaVuSans-30" x="63.623047"/>
       <use xlink:href="#DejaVuSans-30" x="127.246094"/>
       <use xlink:href="#DejaVuSans-30" x="190.869141"/>
      </g>
     </g>
    </g>
   </g>
   <g id="PolyCollection_1">
    <defs>
     <path id="mb6a3386874" d="M 49.997945 -39.812178 
L 49.997945 -56.183183 
L 61.641626 -166.005338 
L 73.285307 -124.345174 
L 84.928988 -72.50366 
L 96.572669 -156.960863 
L 108.21635 -115.856505 
L 119.860031 -119.267131 
L 131.503712 -97.691764 
L 143.147393 -137.785566 
L 154.791074 -117.296547 
L 166.434755 -125.658896 
L 178.078436 -110.854253 
L 189.722117 -117.498658 
L 201.365798 -119.620825 
L 213.009479 -93.472693 
L 224.65316 -136.017094 
L 236.29684 -123.359882 
L 247.940521 -39.862706 
L 259.584202 -173.180284 
L 271.227883 -126.239966 
L 282.871564 -116.387047 
L 294.515245 -116.867061 
L 306.158926 -122.324062 
L 317.802607 -89.7589 
L 329.446288 -39.812178 
L 341.089969 -212.187739 
L 352.73365 -39.812178 
L 364.377331 -39.812178 
L 376.021012 -258.925947 
L 387.664693 -77.076425 
L 399.308374 -161.584156 
L 410.952055 -39.812178 
L 410.952055 -39.812178 
L 410.952055 -39.812178 
L 399.308374 -39.812178 
L 387.664693 -39.812178 
L 376.021012 -39.812178 
L 364.377331 -39.812178 
L 352.73365 -39.812178 
L 341.089969 -39.812178 
L 329.446288 -39.812178 
L 317.802607 -39.812178 
L 306.158926 -39.812178 
L 294.515245 -39.812178 
L 282.871564 -39.812178 
L 271.227883 -39.812178 
L 259.584202 -39.812178 
L 247.940521 -39.812178 
L 236.29684 -39.812178 
L 224.65316 -39.812178 
L 213.009479 -39.812178 
L 201.365798 -39.812178 
L 189.722117 -39.812178 
L 178.078436 -39.812178 
L 166.434755 -39.812178 
L 154.791074 -39.812178 
L 143.147393 -39.812178 
L 131.503712 -39.812178 
L 119.860031 -39.812178 
L 108.21635 -39.812178 
L 96.572669 -39.812178 
L 84.928988 -39.812178 
L 73.285307 -39.812178 
L 61.641626 -39.812178 
L 49.997945 -39.812178 
z
" style="stroke: #08f7fe; stroke-opacity: 0.1"/>
    </defs>
    <g clip-path="url(#p765c8b8931)">
     <use xlink:href="#mb6a3386874" x="0" y="288" style="fill: #08f7fe; fill-opacity: 0.1; stroke: #08f7fe; stroke-opacity: 0.1"/>
    </g>
   </g>
   <g id="PolyCollection_2">
    <defs>
     <path id="m5571e8d3e2" d="M 49.997945 -39.812178 
L 49.997945 -39.862706 
L 61.641626 -40.393248 
L 73.285307 -39.989026 
L 84.928988 -39.837442 
L 96.572669 -39.963762 
L 108.21635 -40.115345 
L 119.860031 -39.837442 
L 131.503712 -40.01429 
L 143.147393 -39.989026 
L 154.791074 -39.938498 
L 166.434755 -40.064817 
L 178.078436 -39.88797 
L 189.722117 -39.862706 
L 201.365798 -39.913234 
L 213.009479 -39.837442 
L 224.65316 -40.064817 
L 236.29684 -39.913234 
L 247.940521 -39.812178 
L 259.584202 -39.88797 
L 271.227883 -39.862706 
L 282.871564 -39.938498 
L 294.515245 -39.862706 
L 306.158926 -39.862706 
L 317.802607 -39.88797 
L 329.446288 -39.812178 
L 341.089969 -39.989026 
L 352.73365 -39.812178 
L 364.377331 -39.812178 
L 376.021012 -40.46904 
L 387.664693 -39.88797 
L 399.308374 -39.963762 
L 410.952055 -39.812178 
L 410.952055 -39.812178 
L 410.952055 -39.812178 
L 399.308374 -39.812178 
L 387.664693 -39.812178 
L 376.021012 -39.812178 
L 364.377331 -39.812178 
L 352.73365 -39.812178 
L 341.089969 -39.812178 
L 329.446288 -39.812178 
L 317.802607 -39.812178 
L 306.158926 -39.812178 
L 294.515245 -39.812178 
L 282.871564 -39.812178 
L 271.227883 -39.812178 
L 259.584202 -39.812178 
L 247.940521 -39.812178 
L 236.29684 -39.812178 
L 224.65316 -39.812178 
L 213.009479 -39.812178 
L 201.365798 -39.812178 
L 189.722117 -39.812178 
L 178.078436 -39.812178 
L 166.434755 -39.812178 
L 154.791074 -39.812178 
L 143.147393 -39.812178 
L 131.503712 -39.812178 
L 119.860031 -39.812178 
L 108.21635 -39.812178 
L 96.572669 -39.812178 
L 84.928988 -39.812178 
L 73.285307 -39.812178 
L 61.641626 -39.812178 
L 49.997945 -39.812178 
z
" style="stroke: #fe53bb; stroke-opacity: 0.1"/>
    </defs>
    <g clip-path="url(#p765c8b8931)">
     <use xlink:href="#m5571e8d3e2" x="0" y="288" style="fill: #fe53bb; fill-opacity: 0.1; stroke: #fe53bb; stroke-opacity: 0.1"/>
    </g>
   </g>
   <g id="PolyCollection_3">
    <defs>
     <path id="m917ed46e41" d="M 49.997945 -39.812178 
L 49.997945 -40.064817 
L 61.641626 -40.115345 
L 73.285307 -39.989026 
L 84.928988 -39.862706 
L 96.572669 -39.963762 
L 108.21635 -40.064817 
L 119.860031 -39.989026 
L 131.503712 -40.241665 
L 143.147393 -39.913234 
L 154.791074 -39.938498 
L 166.434755 -39.88797 
L 178.078436 -39.963762 
L 189.722117 -39.913234 
L 201.365798 -39.963762 
L 213.009479 -39.938498 
L 224.65316 -40.090081 
L 236.29684 -39.862706 
L 247.940521 -39.989026 
L 259.584202 -39.88797 
L 271.227883 -39.913234 
L 282.871564 -39.88797 
L 294.515245 -39.989026 
L 306.158926 -39.913234 
L 317.802607 -39.989026 
L 329.446288 -39.88797 
L 341.089969 -40.01429 
L 352.73365 -39.88797 
L 364.377331 -40.01429 
L 376.021012 -39.938498 
L 387.664693 -39.913234 
L 399.308374 -39.862706 
L 410.952055 -39.862706 
L 410.952055 -39.812178 
L 410.952055 -39.812178 
L 399.308374 -39.812178 
L 387.664693 -39.812178 
L 376.021012 -39.812178 
L 364.377331 -39.812178 
L 352.73365 -39.812178 
L 341.089969 -39.812178 
L 329.446288 -39.812178 
L 317.802607 -39.812178 
L 306.158926 -39.812178 
L 294.515245 -39.812178 
L 282.871564 -39.812178 
L 271.227883 -39.812178 
L 259.584202 -39.812178 
L 247.940521 -39.812178 
L 236.29684 -39.812178 
L 224.65316 -39.812178 
L 213.009479 -39.812178 
L 201.365798 -39.812178 
L 189.722117 -39.812178 
L 178.078436 -39.812178 
L 166.434755 -39.812178 
L 154.791074 -39.812178 
L 143.147393 -39.812178 
L 131.503712 -39.812178 
L 119.860031 -39.812178 
L 108.21635 -39.812178 
L 96.572669 -39.812178 
L 84.928988 -39.812178 
L 73.285307 -39.812178 
L 61.641626 -39.812178 
L 49.997945 -39.812178 
z
" style="stroke: #f5d300; stroke-opacity: 0.1"/>
    </defs>
    <g clip-path="url(#p765c8b8931)">
     <use xlink:href="#m917ed46e41" x="0" y="288" style="fill: #f5d300; fill-opacity: 0.1; stroke: #f5d300; stroke-opacity: 0.1"/>
    </g>
   </g>
   <g id="PolyCollection_4">
    <defs>
     <path id="mc2be6f5047" d="M 49.997945 -39.812178 
L 49.997945 -40.01429 
L 61.641626 -41.883818 
L 73.285307 -40.974318 
L 84.928988 -40.115345 
L 96.572669 -40.620623 
L 108.21635 -40.443776 
L 119.860031 -40.721679 
L 131.503712 -40.393248 
L 143.147393 -40.519567 
L 154.791074 -71.316256 
L 166.434755 -67.956158 
L 178.078436 -46.860805 
L 189.722117 -44.182832 
L 201.365798 -43.424916 
L 213.009479 -42.186985 
L 224.65316 -43.121749 
L 236.29684 -42.212249 
L 247.940521 -39.812178 
L 259.584202 -43.930193 
L 271.227883 -41.454332 
L 282.871564 -41.024845 
L 294.515245 -40.898526 
L 306.158926 -41.25222 
L 317.802607 -40.645887 
L 329.446288 -39.812178 
L 341.089969 -41.681707 
L 352.73365 -39.812178 
L 364.377331 -39.812178 
L 376.021012 -43.728082 
L 387.664693 -40.46904 
L 399.308374 -41.176429 
L 410.952055 -39.812178 
L 410.952055 -39.812178 
L 410.952055 -39.812178 
L 399.308374 -39.812178 
L 387.664693 -39.812178 
L 376.021012 -39.812178 
L 364.377331 -39.812178 
L 352.73365 -39.812178 
L 341.089969 -39.812178 
L 329.446288 -39.812178 
L 317.802607 -39.812178 
L 306.158926 -39.812178 
L 294.515245 -39.812178 
L 282.871564 -39.812178 
L 271.227883 -39.812178 
L 259.584202 -39.812178 
L 247.940521 -39.812178 
L 236.29684 -39.812178 
L 224.65316 -39.812178 
L 213.009479 -39.812178 
L 201.365798 -39.812178 
L 189.722117 -39.812178 
L 178.078436 -39.812178 
L 166.434755 -39.812178 
L 154.791074 -39.812178 
L 143.147393 -39.812178 
L 131.503712 -39.812178 
L 119.860031 -39.812178 
L 108.21635 -39.812178 
L 96.572669 -39.812178 
L 84.928988 -39.812178 
L 73.285307 -39.812178 
L 61.641626 -39.812178 
L 49.997945 -39.812178 
z
" style="stroke: #00ff41; stroke-opacity: 0.1"/>
    </defs>
    <g clip-path="url(#p765c8b8931)">
     <use xlink:href="#mc2be6f5047" x="0" y="288" style="fill: #00ff41; fill-opacity: 0.1; stroke: #00ff41; stroke-opacity: 0.1"/>
    </g>
   </g>
   <g id="line2d_29">
    <path d="M 49.997945 231.816817 
L 61.641626 121.994662 
L 73.285307 163.654826 
L 84.928988 215.49634 
L 96.572669 131.039137 
L 108.21635 172.143495 
L 119.860031 168.732869 
L 131.503712 190.308236 
L 143.147393 150.214434 
L 154.791074 170.703453 
L 166.434755 162.341104 
L 178.078436 177.145747 
L 189.722117 170.501342 
L 201.365798 168.379175 
L 213.009479 194.527307 
L 224.65316 151.982906 
L 236.29684 164.640118 
L 247.940521 248.137294 
L 259.584202 114.819716 
L 271.227883 161.760034 
L 282.871564 171.612953 
L 294.515245 171.132939 
L 306.158926 165.675938 
L 317.802607 198.2411 
L 329.446288 248.187822 
L 341.089969 75.812261 
L 352.73365 248.187822 
L 364.377331 248.187822 
L 376.021012 29.074053 
L 387.664693 210.923575 
L 399.308374 126.415844 
L 410.952055 248.187822 
" clip-path="url(#p765c8b8931)" style="fill: none; stroke: #08f7fe; stroke-width: 1.5; stroke-linecap: round"/>
   </g>
   <g id="line2d_30">
    <path d="M 49.997945 248.137294 
L 61.641626 247.606752 
L 73.285307 248.010974 
L 84.928988 248.162558 
L 96.572669 248.036238 
L 108.21635 247.884655 
L 119.860031 248.162558 
L 131.503712 247.98571 
L 143.147393 248.010974 
L 154.791074 248.061502 
L 166.434755 247.935183 
L 178.078436 248.11203 
L 189.722117 248.137294 
L 201.365798 248.086766 
L 213.009479 248.162558 
L 224.65316 247.935183 
L 236.29684 248.086766 
L 247.940521 248.187822 
L 259.584202 248.11203 
L 271.227883 248.137294 
L 282.871564 248.061502 
L 294.515245 248.137294 
L 306.158926 248.137294 
L 317.802607 248.11203 
L 329.446288 248.187822 
L 341.089969 248.010974 
L 352.73365 248.187822 
L 364.377331 248.187822 
L 376.021012 247.53096 
L 387.664693 248.11203 
L 399.308374 248.036238 
L 410.952055 248.187822 
" clip-path="url(#p765c8b8931)" style="fill: none; stroke: #fe53bb; stroke-width: 1.5; stroke-linecap: round"/>
   </g>
   <g id="line2d_31">
    <path d="M 49.997945 247.935183 
L 61.641626 247.884655 
L 73.285307 248.010974 
L 84.928988 248.137294 
L 96.572669 248.036238 
L 108.21635 247.935183 
L 119.860031 248.010974 
L 131.503712 247.758335 
L 143.147393 248.086766 
L 154.791074 248.061502 
L 166.434755 248.11203 
L 178.078436 248.036238 
L 189.722117 248.086766 
L 201.365798 248.036238 
L 213.009479 248.061502 
L 224.65316 247.909919 
L 236.29684 248.137294 
L 247.940521 248.010974 
L 259.584202 248.11203 
L 271.227883 248.086766 
L 282.871564 248.11203 
L 294.515245 248.010974 
L 306.158926 248.086766 
L 317.802607 248.010974 
L 329.446288 248.11203 
L 341.089969 247.98571 
L 352.73365 248.11203 
L 364.377331 247.98571 
L 376.021012 248.061502 
L 387.664693 248.086766 
L 399.308374 248.137294 
L 410.952055 248.137294 
" clip-path="url(#p765c8b8931)" style="fill: none; stroke: #f5d300; stroke-width: 1.5; stroke-linecap: round"/>
   </g>
   <g id="line2d_32">
    <path d="M 49.997945 247.98571 
L 61.641626 246.116182 
L 73.285307 247.025682 
L 84.928988 247.884655 
L 96.572669 247.379377 
L 108.21635 247.556224 
L 119.860031 247.278321 
L 131.503712 247.606752 
L 143.147393 247.480433 
L 154.791074 216.683744 
L 166.434755 220.043842 
L 178.078436 241.139195 
L 189.722117 243.817168 
L 201.365798 244.575084 
L 213.009479 245.813015 
L 224.65316 244.878251 
L 236.29684 245.787751 
L 247.940521 248.187822 
L 259.584202 244.069807 
L 271.227883 246.545668 
L 282.871564 246.975155 
L 294.515245 247.101474 
L 306.158926 246.74778 
L 317.802607 247.354113 
L 329.446288 248.187822 
L 341.089969 246.318293 
L 352.73365 248.187822 
L 364.377331 248.187822 
L 376.021012 244.271918 
L 387.664693 247.53096 
L 399.308374 246.823571 
L 410.952055 248.187822 
" clip-path="url(#p765c8b8931)" style="fill: none; stroke: #00ff41; stroke-width: 1.5; stroke-linecap: round"/>
   </g>
   <g id="patch_3">
    <path d="M 31.95024 259.14351 
L 31.95024 18.118365 
" style="fill: none"/>
   </g>
   <g id="patch_4">
    <path d="M 428.99976 259.14351 
L 428.99976 18.118365 
" style="fill: none"/>
   </g>
   <g id="patch_5">
    <path d="M 31.95024 259.14351 
L 428.99976 259.14351 
" style="fill: none"/>
   </g>
   <g id="patch_6">
    <path d="M 31.95024 18.118365 
L 428.99976 18.118365 
" style="fill: none"/>
   </g>
   <g id="text_16">
    <!-- Daily Download Count -->
    <g style="fill: #e6e6e6" transform="translate(163.836563 12.118365) scale(0.12 -0.12)">
     <defs>
      <path id="DejaVuSans-44" d="M 1259 4147 
L 1259 519 
L 2022 519 
Q 2988 519 3436 956 
Q 3884 1394 3884 2338 
Q 3884 3275 3436 3711 
Q 2988 4147 2022 4147 
L 1259 4147 
z
M 628 4666 
L 1925 4666 
Q 3281 4666 3915 4102 
Q 4550 3538 4550 2338 
Q 4550 1131 3912 565 
Q 3275 0 1925 0 
L 628 0 
L 628 4666 
z
" transform="scale(0.015625)"/>
      <path id="DejaVuSans-61" d="M 2194 1759 
Q 1497 1759 1228 1600 
Q 959 1441 959 1056 
Q 959 750 1161 570 
Q 1363 391 1709 391 
Q 2188 391 2477 730 
Q 2766 1069 2766 1631 
L 2766 1759 
L 2194 1759 
z
M 3341 1997 
L 3341 0 
L 2766 0 
L 2766 531 
Q 2569 213 2275 61 
Q 1981 -91 1556 -91 
Q 1019 -91 701 211 
Q 384 513 384 1019 
Q 384 1609 779 1909 
Q 1175 2209 1959 2209 
L 2766 2209 
L 2766 2266 
Q 2766 2663 2505 2880 
Q 2244 3097 1772 3097 
Q 1472 3097 1187 3025 
Q 903 2953 641 2809 
L 641 3341 
Q 956 3463 1253 3523 
Q 1550 3584 1831 3584 
Q 2591 3584 2966 3190 
Q 3341 2797 3341 1997 
z
" transform="scale(0.015625)"/>
      <path id="DejaVuSans-69" d="M 603 3500 
L 1178 3500 
L 1178 0 
L 603 0 
L 603 3500 
z
M 603 4863 
L 1178 4863 
L 1178 4134 
L 603 4134 
L 603 4863 
z
" transform="scale(0.015625)"/>
      <path id="DejaVuSans-6c" d="M 603 4863 
L 1178 4863 
L 1178 0 
L 603 0 
L 603 4863 
z
" transform="scale(0.015625)"/>
      <path id="DejaVuSans-79" d="M 2059 -325 
Q 1816 -950 1584 -1140 
Q 1353 -1331 966 -1331 
L 506 -1331 
L 506 -850 
L 844 -850 
Q 1081 -850 1212 -737 
Q 1344 -625 1503 -206 
L 1606 56 
L 191 3500 
L 800 3500 
L 1894 763 
L 2988 3500 
L 3597 3500 
L 2059 -325 
z
" transform="scale(0.015625)"/>
      <path id="DejaVuSans-20" transform="scale(0.015625)"/>
      <path id="DejaVuSans-6f" d="M 1959 3097 
Q 1497 3097 1228 2736 
Q 959 2375 959 1747 
Q 959 1119 1226 758 
Q 1494 397 1959 397 
Q 2419 397 2687 759 
Q 2956 1122 2956 1747 
Q 2956 2369 2687 2733 
Q 2419 3097 1959 3097 
z
M 1959 3584 
Q 2709 3584 3137 3096 
Q 3566 2609 3566 1747 
Q 3566 888 3137 398 
Q 2709 -91 1959 -91 
Q 1206 -91 779 398 
Q 353 888 353 1747 
Q 353 2609 779 3096 
Q 1206 3584 1959 3584 
z
" transform="scale(0.015625)"/>
      <path id="DejaVuSans-77" d="M 269 3500 
L 844 3500 
L 1563 769 
L 2278 3500 
L 2956 3500 
L 3675 769 
L 4391 3500 
L 4966 3500 
L 4050 0 
L 3372 0 
L 2619 2869 
L 1863 0 
L 1184 0 
L 269 3500 
z
" transform="scale(0.015625)"/>
      <path id="DejaVuSans-6e" d="M 3513 2113 
L 3513 0 
L 2938 0 
L 2938 2094 
Q 2938 2591 2744 2837 
Q 2550 3084 2163 3084 
Q 1697 3084 1428 2787 
Q 1159 2491 1159 1978 
L 1159 0 
L 581 0 
L 581 3500 
L 1159 3500 
L 1159 2956 
Q 1366 3272 1645 3428 
Q 1925 3584 2291 3584 
Q 2894 3584 3203 3211 
Q 3513 2838 3513 2113 
z
" transform="scale(0.015625)"/>
      <path id="DejaVuSans-64" d="M 2906 2969 
L 2906 4863 
L 3481 4863 
L 3481 0 
L 2906 0 
L 2906 525 
Q 2725 213 2448 61 
Q 2172 -91 1784 -91 
Q 1150 -91 751 415 
Q 353 922 353 1747 
Q 353 2572 751 3078 
Q 1150 3584 1784 3584 
Q 2172 3584 2448 3432 
Q 2725 3281 2906 2969 
z
M 947 1747 
Q 947 1113 1208 752 
Q 1469 391 1925 391 
Q 2381 391 2643 752 
Q 2906 1113 2906 1747 
Q 2906 2381 2643 2742 
Q 2381 3103 1925 3103 
Q 1469 3103 1208 2742 
Q 947 2381 947 1747 
z
" transform="scale(0.015625)"/>
      <path id="DejaVuSans-43" d="M 4122 4306 
L 4122 3641 
Q 3803 3938 3442 4084 
Q 3081 4231 2675 4231 
Q 1875 4231 1450 3742 
Q 1025 3253 1025 2328 
Q 1025 1406 1450 917 
Q 1875 428 2675 428 
Q 3081 428 3442 575 
Q 3803 722 4122 1019 
L 4122 359 
Q 3791 134 3420 21 
Q 3050 -91 2638 -91 
Q 1578 -91 968 557 
Q 359 1206 359 2328 
Q 359 3453 968 4101 
Q 1578 4750 2638 4750 
Q 3056 4750 3426 4639 
Q 3797 4528 4122 4306 
z
" transform="scale(0.015625)"/>
      <path id="DejaVuSans-75" d="M 544 1381 
L 544 3500 
L 1119 3500 
L 1119 1403 
Q 1119 906 1312 657 
Q 1506 409 1894 409 
Q 2359 409 2629 706 
Q 2900 1003 2900 1516 
L 2900 3500 
L 3475 3500 
L 3475 0 
L 2900 0 
L 2900 538 
Q 2691 219 2414 64 
Q 2138 -91 1772 -91 
Q 1169 -91 856 284 
Q 544 659 544 1381 
z
M 1991 3584 
L 1991 3584 
z
" transform="scale(0.015625)"/>
      <path id="DejaVuSans-74" d="M 1172 4494 
L 1172 3500 
L 2356 3500 
L 2356 3053 
L 1172 3053 
L 1172 1153 
Q 1172 725 1289 603 
Q 1406 481 1766 481 
L 2356 481 
L 2356 0 
L 1766 0 
Q 1100 0 847 248 
Q 594 497 594 1153 
L 594 3053 
L 172 3053 
L 172 3500 
L 594 3500 
L 594 4494 
L 1172 4494 
z
" transform="scale(0.015625)"/>
     </defs>
     <use xlink:href="#DejaVuSans-44"/>
     <use xlink:href="#DejaVuSans-61" x="77.001953"/>
     <use xlink:href="#DejaVuSans-69" x="138.28125"/>
     <use xlink:href="#DejaVuSans-6c" x="166.064453"/>
     <use xlink:href="#DejaVuSans-79" x="193.847656"/>
     <use xlink:href="#DejaVuSans-20" x="253.027344"/>
     <use xlink:href="#DejaVuSans-44" x="284.814453"/>
     <use xlink:href="#DejaVuSans-6f" x="361.816406"/>
     <use xlink:href="#DejaVuSans-77" x="422.998047"/>
     <use xlink:href="#DejaVuSans-6e" x="504.785156"/>
     <use xlink:href="#DejaVuSans-6c" x="568.164062"/>
     <use xlink:href="#DejaVuSans-6f" x="595.947266"/>
     <use xlink:href="#DejaVuSans-61" x="657.128906"/>
     <use xlink:href="#DejaVuSans-64" x="718.408203"/>
     <use xlink:href="#DejaVuSans-20" x="781.884766"/>
     <use xlink:href="#DejaVuSans-43" x="813.671875"/>
     <use xlink:href="#DejaVuSans-6f" x="883.496094"/>
     <use xlink:href="#DejaVuSans-75" x="944.677734"/>
     <use xlink:href="#DejaVuSans-6e" x="1008.056641"/>
     <use xlink:href="#DejaVuSans-74" x="1071.435547"/>
    </g>
   </g>
   <g id="legend_1">
    <g id="line2d_33">
     <path d="M 40.95024 31.216802 
L 50.95024 31.216802 
L 60.95024 31.216802 
" style="fill: none; stroke: #08f7fe; stroke-width: 1.5; stroke-linecap: round"/>
    </g>
    <g id="text_17">
     <!-- Craftimizer -->
     <g style="fill: #e6e6e6" transform="translate(68.95024 34.716802) scale(0.1 -0.1)">
      <defs>
       <path id="DejaVuSans-72" d="M 2631 2963 
Q 2534 3019 2420 3045 
Q 2306 3072 2169 3072 
Q 1681 3072 1420 2755 
Q 1159 2438 1159 1844 
L 1159 0 
L 581 0 
L 581 3500 
L 1159 3500 
L 1159 2956 
Q 1341 3275 1631 3429 
Q 1922 3584 2338 3584 
Q 2397 3584 2469 3576 
Q 2541 3569 2628 3553 
L 2631 2963 
z
" transform="scale(0.015625)"/>
       <path id="DejaVuSans-66" d="M 2375 4863 
L 2375 4384 
L 1825 4384 
Q 1516 4384 1395 4259 
Q 1275 4134 1275 3809 
L 1275 3500 
L 2222 3500 
L 2222 3053 
L 1275 3053 
L 1275 0 
L 697 0 
L 697 3053 
L 147 3053 
L 147 3500 
L 697 3500 
L 697 3744 
Q 697 4328 969 4595 
Q 1241 4863 1831 4863 
L 2375 4863 
z
" transform="scale(0.015625)"/>
       <path id="DejaVuSans-6d" d="M 3328 2828 
Q 3544 3216 3844 3400 
Q 4144 3584 4550 3584 
Q 5097 3584 5394 3201 
Q 5691 2819 5691 2113 
L 5691 0 
L 5113 0 
L 5113 2094 
Q 5113 2597 4934 2840 
Q 4756 3084 4391 3084 
Q 3944 3084 3684 2787 
Q 3425 2491 3425 1978 
L 3425 0 
L 2847 0 
L 2847 2094 
Q 2847 2600 2669 2842 
Q 2491 3084 2119 3084 
Q 1678 3084 1418 2786 
Q 1159 2488 1159 1978 
L 1159 0 
L 581 0 
L 581 3500 
L 1159 3500 
L 1159 2956 
Q 1356 3278 1631 3431 
Q 1906 3584 2284 3584 
Q 2666 3584 2933 3390 
Q 3200 3197 3328 2828 
z
" transform="scale(0.015625)"/>
       <path id="DejaVuSans-7a" d="M 353 3500 
L 3084 3500 
L 3084 2975 
L 922 459 
L 3084 459 
L 3084 0 
L 275 0 
L 275 525 
L 2438 3041 
L 353 3041 
L 353 3500 
z
" transform="scale(0.015625)"/>
      </defs>
      <use xlink:href="#DejaVuSans-43"/>
      <use xlink:href="#DejaVuSans-72" x="69.824219"/>
      <use xlink:href="#DejaVuSans-61" x="110.9375"/>
      <use xlink:href="#DejaVuSans-66" x="172.216797"/>
      <use xlink:href="#DejaVuSans-74" x="205.671875"/>
      <use xlink:href="#DejaVuSans-69" x="244.880859"/>
      <use xlink:href="#DejaVuSans-6d" x="272.664062"/>
      <use xlink:href="#DejaVuSans-69" x="370.076172"/>
      <use xlink:href="#DejaVuSans-7a" x="397.859375"/>
      <use xlink:href="#DejaVuSans-65" x="450.349609"/>
      <use xlink:href="#DejaVuSans-72" x="511.873047"/>
     </g>
    </g>
    <g id="line2d_34">
     <path d="M 40.95024 45.894927 
L 50.95024 45.894927 
L 60.95024 45.894927 
" style="fill: none; stroke: #fe53bb; stroke-width: 1.5; stroke-linecap: round"/>
    </g>
    <g id="text_18">
     <!-- ItemIcons -->
     <g style="fill: #e6e6e6" transform="translate(68.95024 49.394927) scale(0.1 -0.1)">
      <defs>
       <path id="DejaVuSans-49" d="M 628 4666 
L 1259 4666 
L 1259 0 
L 628 0 
L 628 4666 
z
" transform="scale(0.015625)"/>
       <path id="DejaVuSans-63" d="M 3122 3366 
L 3122 2828 
Q 2878 2963 2633 3030 
Q 2388 3097 2138 3097 
Q 1578 3097 1268 2742 
Q 959 2388 959 1747 
Q 959 1106 1268 751 
Q 1578 397 2138 397 
Q 2388 397 2633 464 
Q 2878 531 3122 666 
L 3122 134 
Q 2881 22 2623 -34 
Q 2366 -91 2075 -91 
Q 1284 -91 818 406 
Q 353 903 353 1747 
Q 353 2603 823 3093 
Q 1294 3584 2113 3584 
Q 2378 3584 2631 3529 
Q 2884 3475 3122 3366 
z
" transform="scale(0.015625)"/>
       <path id="DejaVuSans-73" d="M 2834 3397 
L 2834 2853 
Q 2591 2978 2328 3040 
Q 2066 3103 1784 3103 
Q 1356 3103 1142 2972 
Q 928 2841 928 2578 
Q 928 2378 1081 2264 
Q 1234 2150 1697 2047 
L 1894 2003 
Q 2506 1872 2764 1633 
Q 3022 1394 3022 966 
Q 3022 478 2636 193 
Q 2250 -91 1575 -91 
Q 1294 -91 989 -36 
Q 684 19 347 128 
L 347 722 
Q 666 556 975 473 
Q 1284 391 1588 391 
Q 1994 391 2212 530 
Q 2431 669 2431 922 
Q 2431 1156 2273 1281 
Q 2116 1406 1581 1522 
L 1381 1569 
Q 847 1681 609 1914 
Q 372 2147 372 2553 
Q 372 3047 722 3315 
Q 1072 3584 1716 3584 
Q 2034 3584 2315 3537 
Q 2597 3491 2834 3397 
z
" transform="scale(0.015625)"/>
      </defs>
      <use xlink:href="#DejaVuSans-49"/>
      <use xlink:href="#DejaVuSans-74" x="29.492188"/>
      <use xlink:href="#DejaVuSans-65" x="68.701172"/>
      <use xlink:href="#DejaVuSans-6d" x="130.224609"/>
      <use xlink:href="#DejaVuSans-49" x="227.636719"/>
      <use xlink:href="#DejaVuSans-63" x="257.128906"/>
      <use xlink:href="#DejaVuSans-6f" x="312.109375"/>
      <use xlink:href="#DejaVuSans-6e" x="373.291016"/>
      <use xlink:href="#DejaVuSans-73" x="436.669922"/>
     </g>
    </g>
    <g id="line2d_35">
     <path d="M 40.95024 60.573052 
L 50.95024 60.573052 
L 60.95024 60.573052 
" style="fill: none; stroke: #f5d300; stroke-width: 1.5; stroke-linecap: round"/>
    </g>
    <g id="text_19">
     <!-- SomethingNeedDoing -->
     <g style="fill: #e6e6e6" transform="translate(68.95024 64.073052) scale(0.1 -0.1)">
      <defs>
       <path id="DejaVuSans-68" d="M 3513 2113 
L 3513 0 
L 2938 0 
L 2938 2094 
Q 2938 2591 2744 2837 
Q 2550 3084 2163 3084 
Q 1697 3084 1428 2787 
Q 1159 2491 1159 1978 
L 1159 0 
L 581 0 
L 581 4863 
L 1159 4863 
L 1159 2956 
Q 1366 3272 1645 3428 
Q 1925 3584 2291 3584 
Q 2894 3584 3203 3211 
Q 3513 2838 3513 2113 
z
" transform="scale(0.015625)"/>
       <path id="DejaVuSans-67" d="M 2906 1791 
Q 2906 2416 2648 2759 
Q 2391 3103 1925 3103 
Q 1463 3103 1205 2759 
Q 947 2416 947 1791 
Q 947 1169 1205 825 
Q 1463 481 1925 481 
Q 2391 481 2648 825 
Q 2906 1169 2906 1791 
z
M 3481 434 
Q 3481 -459 3084 -895 
Q 2688 -1331 1869 -1331 
Q 1566 -1331 1297 -1286 
Q 1028 -1241 775 -1147 
L 775 -588 
Q 1028 -725 1275 -790 
Q 1522 -856 1778 -856 
Q 2344 -856 2625 -561 
Q 2906 -266 2906 331 
L 2906 616 
Q 2728 306 2450 153 
Q 2172 0 1784 0 
Q 1141 0 747 490 
Q 353 981 353 1791 
Q 353 2603 747 3093 
Q 1141 3584 1784 3584 
Q 2172 3584 2450 3431 
Q 2728 3278 2906 2969 
L 2906 3500 
L 3481 3500 
L 3481 434 
z
" transform="scale(0.015625)"/>
       <path id="DejaVuSans-4e" d="M 628 4666 
L 1478 4666 
L 3547 763 
L 3547 4666 
L 4159 4666 
L 4159 0 
L 3309 0 
L 1241 3903 
L 1241 0 
L 628 0 
L 628 4666 
z
" transform="scale(0.015625)"/>
      </defs>
      <use xlink:href="#DejaVuSans-53"/>
      <use xlink:href="#DejaVuSans-6f" x="63.476562"/>
      <use xlink:href="#DejaVuSans-6d" x="124.658203"/>
      <use xlink:href="#DejaVuSans-65" x="222.070312"/>
      <use xlink:href="#DejaVuSans-74" x="283.59375"/>
      <use xlink:href="#DejaVuSans-68" x="322.802734"/>
      <use xlink:href="#DejaVuSans-69" x="386.181641"/>
      <use xlink:href="#DejaVuSans-6e" x="413.964844"/>
      <use xlink:href="#DejaVuSans-67" x="477.34375"/>
      <use xlink:href="#DejaVuSans-4e" x="540.820312"/>
      <use xlink:href="#DejaVuSans-65" x="615.625"/>
      <use xlink:href="#DejaVuSans-65" x="677.148438"/>
      <use xlink:href="#DejaVuSans-64" x="738.671875"/>
      <use xlink:href="#DejaVuSans-44" x="802.148438"/>
      <use xlink:href="#DejaVuSans-6f" x="879.150391"/>
      <use xlink:href="#DejaVuSans-69" x="940.332031"/>
      <use xlink:href="#DejaVuSans-6e" x="968.115234"/>
      <use xlink:href="#DejaVuSans-67" x="1031.494141"/>
     </g>
    </g>
    <g id="line2d_36">
     <path d="M 40.95024 75.251177 
L 50.95024 75.251177 
L 60.95024 75.251177 
" style="fill: none; stroke: #00ff41; stroke-width: 1.5; stroke-linecap: round"/>
    </g>
    <g id="text_20">
     <!-- Waitingway.Dalamud -->
     <g style="fill: #e6e6e6" transform="translate(68.95024 78.751177) scale(0.1 -0.1)">
      <defs>
       <path id="DejaVuSans-57" d="M 213 4666 
L 850 4666 
L 1831 722 
L 2809 4666 
L 3519 4666 
L 4500 722 
L 5478 4666 
L 6119 4666 
L 4947 0 
L 4153 0 
L 3169 4050 
L 2175 0 
L 1381 0 
L 213 4666 
z
" transform="scale(0.015625)"/>
       <path id="DejaVuSans-2e" d="M 684 794 
L 1344 794 
L 1344 0 
L 684 0 
L 684 794 
z
" transform="scale(0.015625)"/>
      </defs>
      <use xlink:href="#DejaVuSans-57"/>
      <use xlink:href="#DejaVuSans-61" x="92.501953"/>
      <use xlink:href="#DejaVuSans-69" x="153.78125"/>
      <use xlink:href="#DejaVuSans-74" x="181.564453"/>
      <use xlink:href="#DejaVuSans-69" x="220.773438"/>
      <use xlink:href="#DejaVuSans-6e" x="248.556641"/>
      <use xlink:href="#DejaVuSans-67" x="311.935547"/>
      <use xlink:href="#DejaVuSans-77" x="375.412109"/>
      <use xlink:href="#DejaVuSans-61" x="457.199219"/>
      <use xlink:href="#DejaVuSans-79" x="518.478516"/>
      <use xlink:href="#DejaVuSans-2e" x="563.408203"/>
      <use xlink:href="#DejaVuSans-44" x="595.195312"/>
      <use xlink:href="#DejaVuSans-61" x="672.197266"/>
      <use xlink:href="#DejaVuSans-6c" x="733.476562"/>
      <use xlink:href="#DejaVuSans-61" x="761.259766"/>
      <use xlink:href="#DejaVuSans-6d" x="822.539062"/>
      <use xlink:href="#DejaVuSans-75" x="919.951172"/>
      <use xlink:href="#DejaVuSans-64" x="983.330078"/>
     </g>
    </g>
   </g>
  </g>
 </g>
 <defs>
  <clipPath id="p765c8b8931">
   <rect x="31.95024" y="18.118365" width="397.04952" height="241.025145"/>
  </clipPath>
 </defs>
</svg>
